<?xml version="1.0" encoding="utf-8"?><svg xmlns="http://www.w3.org/2000/svg" xmlns:xlink="http://www.w3.org/1999/xlink"><symbol viewBox="0 0 32 32" id="contacts-address"><path d="M15.999 17.96a2.91 2.91 0 0 1-2.914-2.907 2.91 2.91 0 0 1 2.914-2.906 2.91 2.91 0 0 1 2.914 2.906A2.91 2.91 0 0 1 16 17.96z"/><path fill-rule="evenodd" clip-rule="evenodd" d="M29 16c0 7.18-5.82 13-13 13S3 23.18 3 16 8.82 3 16 3s13 5.82 13 13zM15.786 9.004c-2.988.104-5.47 2.43-5.757 5.397a6.004 6.004 0 0 0 .08 1.72l.002.015.008.044c.007.03.016.074.03.128.092.412.231.812.404 1.187.601 1.421 1.992 3.799 5.113 6.385.191.16.472.16.666 0 3.12-2.583 4.512-4.96 5.116-6.388a5.735 5.735 0 0 0 .444-1.375c.071-.369.108-.747.108-1.134 0-3.377-2.803-6.1-6.214-5.98z"/><path fill-rule="evenodd" clip-rule="evenodd" d="M32 16c0 8.837-7.163 16-16 16S0 24.837 0 16 7.163 0 16 0s16 7.163 16 16zm-1 0c0 8.284-6.716 15-15 15-8.284 0-15-6.716-15-15C1 7.716 7.716 1 16 1c8.284 0 15 6.716 15 15z"/></symbol><symbol viewBox="0 0 32 32" id="contacts-clock"><path d="M16 16.387h2.605a.387.387 0 1 0 0-.775h-2.218v-3.361a.388.388 0 1 0-.775 0V16c0 .214.174.387.388.387z"/><path fill-rule="evenodd" clip-rule="evenodd" d="M9.322 16A6.686 6.686 0 0 0 16 22.678 6.686 6.686 0 0 0 22.678 16 6.686 6.686 0 0 0 16 9.322 6.686 6.686 0 0 0 9.322 16zm11.77 0c0 .214.174.387.388.387h.41a5.878 5.878 0 0 1-1.447 3.495l-.304-.305a.387.387 0 1 0-.548.548l.305.305a5.878 5.878 0 0 1-3.509 1.46v-.457a.388.388 0 1 0-.775 0v.457a5.88 5.88 0 0 1-3.519-1.469l.33-.33a.387.387 0 1 0-.549-.547l-.327.327a5.878 5.878 0 0 1-1.437-3.483h.457a.388.388 0 1 0 0-.776h-.457a5.88 5.88 0 0 1 1.46-3.508l.304.304a.386.386 0 0 0 .548 0 .387.387 0 0 0 0-.548l-.304-.304a5.88 5.88 0 0 1 3.494-1.446v.41a.388.388 0 0 0 .775 0v-.41a5.877 5.877 0 0 1 3.484 1.437l-.28.28a.387.387 0 1 0 .548.548l.282-.282a5.879 5.879 0 0 1 1.469 3.52h-.41a.388.388 0 0 0-.387.387z"/><path fill-rule="evenodd" clip-rule="evenodd" d="M29 16c0 7.18-5.82 13-13 13S3 23.18 3 16 8.82 3 16 3s13 5.82 13 13zM16 8c-4.411 0-8 3.589-8 8s3.589 8 8 8 8-3.589 8-8-3.589-8-8-8z"/><path fill-rule="evenodd" clip-rule="evenodd" d="M32 16c0 8.837-7.163 16-16 16S0 24.837 0 16 7.163 0 16 0s16 7.163 16 16zm-1 0c0 8.284-6.716 15-15 15-8.284 0-15-6.716-15-15C1 7.716 7.716 1 16 1c8.284 0 15 6.716 15 15z"/></symbol><symbol viewBox="0 0 32 32" id="contacts-email"><path fill-rule="evenodd" clip-rule="evenodd" d="M29 16c0 7.18-5.82 13-13 13S3 23.18 3 16 8.82 3 16 3s13 5.82 13 13zm-6.429-6H9.43c-.458 0-.81.148-1.058.443-.247.296-.37.665-.37 1.108 0 .358.163.746.49 1.164a4.34 4.34 0 0 0 1.045.984c.203.136.813.541 1.83 1.214a642.317 642.317 0 0 1 2.34 1.556l.133.09.246.17c.194.133.354.241.482.324l.079.05a8.475 8.475 0 0 0 .386.227 3.109 3.109 0 0 0 .513.23c.161.05.31.077.447.077h.017a1.648 1.648 0 0 0 .446-.077 2.78 2.78 0 0 0 .514-.23 9.575 9.575 0 0 0 .681-.42l.266-.181.246-.17.075-.05.058-.04 4.179-2.77c.434-.29.797-.64 1.089-1.048.291-.41.437-.838.437-1.287a1.28 1.28 0 0 0-.424-.964 1.415 1.415 0 0 0-1.005-.4zm-13.67 4.61A4.675 4.675 0 0 1 8 13.87v6.583l3.995-3.814a301.072 301.072 0 0 0-3.093-2.028zM22.572 22c.36 0 .671-.113.936-.337l-4.533-4.328-.112.077-.202.139c-.339.238-.614.425-.826.558a5.18 5.18 0 0 1-.843.41 2.684 2.684 0 0 1-.982.208h-.018c-.304 0-.631-.07-.982-.209a5.162 5.162 0 0 1-.844-.41l-.1-.062-.089-.059-.07-.047a19.35 19.35 0 0 1-.567-.39l-.313-.216-4.534 4.329c.265.224.577.337.937.337h13.14zm-2.565-5.36a295.76 295.76 0 0 1 3.1-2.03c.34-.22.637-.468.893-.74v6.583l-3.993-3.812z"/><path fill-rule="evenodd" clip-rule="evenodd" d="M32 16c0 8.837-7.163 16-16 16S0 24.837 0 16 7.163 0 16 0s16 7.163 16 16zm-1 0c0 8.284-6.716 15-15 15-8.284 0-15-6.716-15-15C1 7.716 7.716 1 16 1c8.284 0 15 6.716 15 15z"/></symbol><symbol viewBox="0 0 92 92" id="contacts-reserv"><path fill-rule="evenodd" clip-rule="evenodd" d="M46 89.125c23.817 0 43.125-19.308 43.125-43.125S69.817 2.875 46 2.875 2.875 22.183 2.875 46 22.183 89.125 46 89.125zM46 92c25.405 0 46-20.595 46-46S71.405 0 46 0 0 20.595 0 46s20.595 46 46 46z"/><path d="M29.494 46.806c2.322-6.515 8.346-11.019 15.338-11.475a1.24 1.24 0 0 0 1.166-1.313c-.049-.68-.668-1.19-1.33-1.149-7.996.52-14.879 5.669-17.533 13.118a1.233 1.233 0 0 0 .765 1.574 1.253 1.253 0 0 0 1.595-.755z"/><path fill-rule="evenodd" clip-rule="evenodd" d="M46 83.375c20.643 0 37.375-16.733 37.375-37.375S66.643 8.625 46 8.625 8.625 25.358 8.625 46 25.357 83.375 46 83.375zm3.71-56.148c-.048.337-.145.66-.282.963 11.322 1.537 20.27 10.54 21.418 21.943H21.152c1.149-11.408 10.092-20.406 21.42-21.943a3.513 3.513 0 0 1-.299-1.091 3.363 3.363 0 0 1-.023-.399c0-2.04 1.682-3.7 3.75-3.7s3.75 1.66 3.75 3.7c0 .179-.014.355-.04.527zM74.75 52.6c.432 0 .834.222 1.064.585.229.365.247.816.055 1.2C74.11 57.85 70.582 60 66.66 60H25.34c-3.926 0-7.453-2.151-9.207-5.617a1.184 1.184 0 0 1-.131-.5v-.107a1.215 1.215 0 0 1 .186-.591 1.253 1.253 0 0 1 1.062-.585h57.5z"/></symbol><symbol viewBox="0 0 32 32" id="contacts-tel"><path fill-rule="evenodd" clip-rule="evenodd" d="M29 16c0 7.18-5.82 13-13 13S3 23.18 3 16 8.82 3 16 3s13 5.82 13 13zm-8.226 5.894c-.398.451-3.267 3.278-7.589-3.304-4.555-6.94-1.824-8.84-.639-9.31l.057-.021.094-.034.04-.013c.167-.054.273-.071.273-.071l-.001.008c.785-.135 1.521.17 1.662.843l.248 1.53c.168.803-.482 1.768-1.452 2.156l-.079.031c.514 1.744 1.55 3.752 3.582 5.579l.15-.127c.79-.674 1.963-.808 2.62-.3l1.155.983c.641.496.617 1.38-.12 2.05z"/><path fill-rule="evenodd" clip-rule="evenodd" d="M32 16c0 8.837-7.163 16-16 16S0 24.837 0 16 7.163 0 16 0s16 7.163 16 16zm-1 0c0 8.284-6.716 15-15 15-8.284 0-15-6.716-15-15C1 7.716 7.716 1 16 1c8.284 0 15 6.716 15 15z"/></symbol><symbol viewBox="0 0 139.4 44.7" id="dorohovdesign"><path d="M52.2 19.5V8.1H57c3.6 0 6.1 2.1 6.1 5.7 0 3.5-2.6 5.7-6.1 5.7h-4.8zm7.9-5.7c0-1.8-1.1-3.1-3.1-3.1h-1.9v6.2H57c2 0 3.1-1.4 3.1-3.1m4.1 0c0-3.4 2.6-5.9 6.1-5.9 3.5 0 6.1 2.4 6.1 5.9 0 3.5-2.6 5.9-6.1 5.9-3.5 0-6.1-2.4-6.1-5.9m9.2 0c0-1.9-1.2-3.3-3.1-3.3-1.9 0-3.1 1.4-3.1 3.3 0 1.8 1.2 3.3 3.1 3.3 1.9 0 3.1-1.4 3.1-3.3m11 5.7l-1.9-3.8H81v3.8h-2.9V8.1h5.7c2.5 0 3.9 1.7 3.9 3.8 0 2-1.2 3-2.3 3.4l2.3 4.2h-3.3zm.3-7.6c0-.8-.6-1.2-1.4-1.2H81v2.4h2.3c.8 0 1.4-.4 1.4-1.2m4.2 1.9c0-3.4 2.6-5.9 6.1-5.9 3.5 0 6.1 2.4 6.1 5.9 0 3.5-2.6 5.9-6.1 5.9-3.5 0-6.1-2.4-6.1-5.9m9.1 0c0-1.9-1.2-3.3-3.1-3.3-1.9 0-3.1 1.4-3.1 3.3 0 1.8 1.2 3.3 3.1 3.3 1.9 0 3.1-1.4 3.1-3.3m12.4 5.7v-4.6h-4.7v4.6h-3V8.1h3v4.3h4.7V8.1h2.9v11.4zm4.6-5.7c0-3.4 2.6-5.9 6.1-5.9 3.5 0 6.1 2.4 6.1 5.9 0 3.5-2.6 5.9-6.1 5.9-3.5 0-6.1-2.4-6.1-5.9m9.2 0c0-1.9-1.2-3.3-3.1-3.3-1.9 0-3.1 1.4-3.1 3.3 0 1.8 1.2 3.3 3.1 3.3 1.9 0 3.1-1.4 3.1-3.3m7.3 5.7l-4.3-11.4h3.3l2.8 8.2 2.8-8.2h3.3l-4.2 11.4zm-79.3 17V25.1H57c3.6 0 6.1 2.1 6.1 5.7 0 3.5-2.6 5.7-6.1 5.7h-4.8zm7.9-5.7c0-1.8-1.1-3.1-3.1-3.1h-1.9v6.2H57c2 0 3.1-1.4 3.1-3.1m4.7 5.7V25.1h8.3v2.6h-5.3v1.8H73V32h-5.2v1.9h5.3v2.6zm9.6-1.6l1.5-2.2c.8.8 2.1 1.5 3.6 1.5 1 0 1.6-.4 1.6-.9 0-1.5-6.4-.3-6.4-4.7 0-1.9 1.6-3.6 4.5-3.6 1.8 0 3.4.5 4.6 1.6l-1.6 2.1c-1-.8-2.2-1.2-3.3-1.2-.8 0-1.2.3-1.2.8 0 1.4 6.4.4 6.4 4.6 0 2.3-1.7 3.8-4.7 3.8-2.2 0-3.8-.7-5-1.8m11.5-9.8h2.9v11.3h-2.9zm4.7 5.7c0-3.6 2.8-5.9 6.1-5.9 2.5 0 4.1 1.3 4.8 2.8L99.1 29c-.4-.7-1.3-1.4-2.4-1.4-1.9 0-3.2 1.4-3.2 3.3s1.3 3.3 3.2 3.3c.8 0 1.7-.3 2.1-.7v-.9h-2.6V30h5.5v4.5c-1.2 1.3-2.9 2.2-5 2.2-3.4 0-6.1-2.3-6.1-5.9m20.9 5.7l-4.8-6.6v6.6h-2.9V25.1h3l4.6 6.3v-6.3h2.9v11.4zM17.7 0H0v44.7h17.8c15 0 24.6-8.8 24.6-22.4C42.4 8.7 32.7 0 17.7 0m-.4 35.7h-8V9.5h8c9.3 0 15.7 3.7 15.7 12.7.1 7.5-5.8 13.5-15.7 13.5"/><path d="M19.1 17H17v10.6h2c4 0 6.4-2.4 6.4-5.4 0-3.7-2.6-5.2-6.3-5.2"/></symbol><symbol viewBox="0 0 96.124 96.123" id="fb"><path d="M72.089.02L59.624 0C45.62 0 36.57 9.285 36.57 23.656v10.907H24.037a1.96 1.96 0 0 0-1.96 1.961v15.803a1.96 1.96 0 0 0 1.96 1.96H36.57v39.876a1.96 1.96 0 0 0 1.96 1.96h16.352a1.96 1.96 0 0 0 1.96-1.96V54.287h14.654a1.96 1.96 0 0 0 1.96-1.96l.006-15.803a1.963 1.963 0 0 0-1.961-1.961H56.842v-9.246c0-4.444 1.059-6.7 6.848-6.7l8.397-.003a1.96 1.96 0 0 0 1.959-1.96V1.98A1.96 1.96 0 0 0 72.089.02z"/></symbol><symbol viewBox="0 0 17 17" id="form-email"><path d="M8.5 0C3.813 0 0 3.813 0 8.5 0 13.187 3.813 17 8.5 17c2.27 0 4.405-.884 6.01-2.49a.354.354 0 1 0-.5-.5 7.74 7.74 0 0 1-5.51 2.282C4.204 16.292.708 12.796.708 8.5.708 4.204 4.204.708 8.5.708c4.296 0 7.792 3.496 7.792 7.792v.708a2.127 2.127 0 0 1-2.125 2.125 2.127 2.127 0 0 1-2.125-2.125V6.021a.354.354 0 1 0-.709 0v.376A3.528 3.528 0 0 0 8.5 4.958 3.546 3.546 0 0 0 4.958 8.5 3.546 3.546 0 0 0 8.5 12.042a3.53 3.53 0 0 0 3.046-1.765 2.835 2.835 0 0 0 2.62 1.765A2.837 2.837 0 0 0 17 9.208V8.5C17 3.813 13.187 0 8.5 0zm0 11.333A2.837 2.837 0 0 1 5.667 8.5 2.837 2.837 0 0 1 8.5 5.667 2.837 2.837 0 0 1 11.333 8.5 2.836 2.836 0 0 1 8.5 11.333z"/></symbol><symbol viewBox="0 0 17 17" id="form-name"><path d="M14.671 14.234l2.004-1.002-5.451-2.008 2.008 5.451 1.002-2.003 2.101 2.1a.308.308 0 1 0 .437-.436l-2.1-2.102zm-2.404-1.967l2.854 1.052-1.202.6-.6 1.202-1.052-2.854z"/><path d="M8.5 0C3.813 0 0 3.813 0 8.5a8.479 8.479 0 0 0 2.759 6.262l-.008.007.276.232.055.043c.146.12.298.236.452.348a8.674 8.674 0 0 0 1.354.8l.044.02a8.424 8.424 0 0 0 2.792.75l.083.007c.229.019.46.031.693.031a.309.309 0 1 0 0-.618c-.196 0-.391-.01-.586-.024l-.1-.008a8.004 8.004 0 0 1-.585-.072l-.026-.005a7.847 7.847 0 0 1-1.202-.3l-.036-.012a7.869 7.869 0 0 1-.576-.22l-.004-.002a8.109 8.109 0 0 1-.527-.253l-.068-.035a7.956 7.956 0 0 1-1.013-.645l-.04-.032.029-.017 2.444-1.333c.42-.23.681-.67.681-1.148v-1.113l-.07-.086a5.16 5.16 0 0 1-.928-1.921l-.029-.123-.105-.068a.512.512 0 0 1-.238-.43V7.439c0-.144.061-.278.172-.378l.102-.092V5.247l-.002-.04c-.001-.008-.092-.751.431-1.348.447-.51 1.213-.768 2.276-.768 1.059 0 1.822.256 2.27.762.524.59.438 1.348.437 1.354l-.003 1.762.102.092c.112.1.173.235.173.379v1.095c0 .22-.15.42-.365.487a.309.309 0 0 0 .182.59c.48-.147.8-.58.8-1.077V7.44c0-.268-.097-.528-.273-.733V5.265c.016-.161.073-1.066-.582-1.813-.57-.65-1.492-.98-2.741-.98s-2.171.33-2.74.98c-.656.747-.599 1.652-.583 1.812v1.443a1.126 1.126 0 0 0-.274.732v1.096c0 .34.153.658.414.872.25.98.766 1.723.956 1.975v.894a.69.69 0 0 1-.359.605L3.47 14.214a2.23 2.23 0 0 0-.232.148A7.863 7.863 0 0 1 .618 8.5C.618 4.154 4.154.618 8.5.618s7.882 3.536 7.882 7.882a.309.309 0 1 0 .618 0C17 3.813 13.187 0 8.5 0z"/></symbol><symbol viewBox="0 0 17 17" id="form-tel"><path d="M16.554 13.115l-.66-.44A8.46 8.46 0 0 0 8.534.035a.283.283 0 1 0 0 .567 7.892 7.892 0 0 1 6.886 11.757l-2.308-1.539a1.005 1.005 0 0 0-1.345.219l-1.001 1.288a.429.429 0 0 1-.55.116l-.19-.105c-.632-.345-1.418-.774-3.003-2.359C5.44 8.394 5.01 7.607 4.664 6.976l-.104-.19a.429.429 0 0 1 .113-.552l1.288-1.002c.412-.323.507-.908.219-1.345L3.885.447A1 1 0 0 0 2.538.142L1.1 1.007A2.03 2.03 0 0 0 .174 2.21c-.518 1.888-.128 5.146 4.671 9.946 2.09 2.091 3.888 3.343 5.408 4.052A7.879 7.879 0 0 1 .638 8.5a.283.283 0 1 0-.566 0 8.473 8.473 0 0 0 8.462 8.465 8.39 8.39 0 0 0 2.578-.406c.75.28 1.545.43 2.347.44.45.002.897-.057 1.332-.174a2.027 2.027 0 0 0 1.2-.926l.866-1.438a1 1 0 0 0-.303-1.347zm-.184 1.056l-.863 1.439a1.462 1.462 0 0 1-.866.67c-.824.227-1.94.255-3.374-.262a.281.281 0 0 0-.073-.028c-1.586-.59-3.556-1.844-5.949-4.237C.64 7.147.242 4.102.72 2.358c.104-.364.344-.674.671-.865L2.83.63a.433.433 0 0 1 .584.131l1.247 1.872 1.046 1.57a.436.436 0 0 1-.095.583L4.324 5.788a.992.992 0 0 0-.262 1.273l.102.185c.362.664.812 1.49 2.456 3.134 1.643 1.643 2.469 2.093 3.132 2.455l.187.103a.99.99 0 0 0 1.272-.263l1.002-1.288a.436.436 0 0 1 .584-.095l3.44 2.295a.433.433 0 0 1 .133.584z"/></symbol><symbol viewBox="0 0 16 14" id="icon-down"><path fill-rule="evenodd" clip-rule="evenodd" d="M7.93 11l5.196-9H2.734l5.196 9zm-.866 2.5a1 1 0 0 0 1.732 0l6.928-12a1 1 0 0 0-.866-1.5H1a1 1 0 0 0-.866 1.5l6.929 12z"/></symbol><symbol viewBox="0 0 14 16" id="icon-next"><path fill-rule="evenodd" clip-rule="evenodd" d="M11 7.93L2 2.734v10.392l9-5.196zm2.5.866a1 1 0 0 0 0-1.732L1.5.135a1 1 0 0 0-1.5.866v13.857a1 1 0 0 0 1.5.866l12-6.928z"/></symbol><symbol viewBox="0 0 14 16" id="icon-prev"><path fill-rule="evenodd" clip-rule="evenodd" d="M3 8l9 5.196V2.804L3 8zM.5 7.134a1 1 0 0 0 0 1.732l12 6.928a1 1 0 0 0 1.5-.866V1.072a1 1 0 0 0-1.5-.866L.5 7.134z"/></symbol><symbol viewBox="0 0 16 17" id="icon-search"><path d="M15.757 15.484l-3.944-4.208a6.949 6.949 0 0 0 1.57-4.412C13.382 3.079 10.38 0 6.69 0 3.001 0 0 3.08 0 6.864s3.002 6.863 6.691 6.863a6.505 6.505 0 0 0 3.834-1.242l3.974 4.24a.856.856 0 0 0 1.234.025.913.913 0 0 0 .024-1.266zM6.69 1.791c2.727 0 4.946 2.275 4.946 5.073 0 2.797-2.219 5.073-4.946 5.073S1.746 9.66 1.746 6.864c0-2.798 2.218-5.073 4.945-5.073z"/></symbol><symbol viewBox="0 0 92 92" id="inst"><path d="M46 89.625c24.093 0 43.625-19.532 43.625-43.625S70.093 2.375 46 2.375 2.375 21.907 2.375 46 21.907 89.625 46 89.625zM91.5 46c0 25.129-20.372 45.5-45.5 45.5S.5 71.129.5 46 20.872.5 46 .5 91.5 20.871 91.5 46zm-8.625 0c0 20.365-16.509 36.875-36.875 36.875S9.125 66.365 9.125 46C9.125 25.634 25.634 9.125 46 9.125S82.875 25.635 82.875 46zM63.5 33.364c0-2.877-2.2-4.864-4.863-4.864H33.363c-2.662 0-4.863 1.987-4.863 4.864v25.272c0 2.877 2.2 4.864 4.863 4.864h25.274c2.662 0 4.863-1.987 4.863-4.864V33.364zm-10.762.944c0-.566.464-1.03 1.03-1.03h3.843c.566 0 1.03.464 1.03 1.03v3.664c0 .566-.465 1.03-1.03 1.03h-3.843c-.566 0-1.03-.464-1.03-1.03v-3.664zm-19.46 9.57h1.969a10.457 10.457 0 0 0-.282 2.417c0 5.946 4.97 10.74 11.068 10.74 6.097 0 11.069-4.794 11.069-10.74 0-.83-.1-1.64-.284-2.416h1.84V57.74a.855.855 0 0 1-.851.852H34.13a.857.857 0 0 1-.854-.852V43.88zm6.425 2.048c0-3.363 2.82-6.116 6.328-6.116 3.513 0 6.33 2.753 6.33 6.116 0 3.363-2.82 6.116-6.33 6.116-3.508 0-6.328-2.752-6.328-6.116z"/></symbol><symbol viewBox="0 0 200 60" fill="none" id="logotip"><path d="M188.053 24.487c1.175-.969 2.222-1.715 3.156-2.239.032-.016.048-.032.08-.048l.435-.238a11.2 11.2 0 0 1 .596-.238c.966-.318 2.045-.429 3.268-.334 1.273.127 2.206 1.223 2.094 2.478a2.34 2.34 0 0 1-.741 1.477 192.33 192.33 0 0 0-4.348 4.097c.886-.127 1.627.11 2.255.73.064.048.145.159.257.286.451.603.612 1.27.483 2-.096.54-.37 1.017-.772 1.43a1.551 1.551 0 0 1-.161.143c-.033.032-.081.08-.129.111-.177.159-.338.318-.483.445-.097.095-.322.286-.661.603a92.004 92.004 0 0 1-4.251 3.494c-3.059 2.366-5.41 3.589-7.036 3.652-.097.016-.258.016-.467.016v.016c-1.176 0-2.142-.35-2.899-1.032-.757-.699-1.175-1.62-1.272-2.795-.016-.159-.016-.318-.016-.46 0-.175.016-.35.048-.509.049-.238.113-.492.178-.762a7.87 7.87 0 0 1 .322-.937l.016-.048a5.207 5.207 0 0 1-.741-.095c-.177.19-.322.334-.435.445-1.336 1.429-2.93 3.287-4.766 5.574a2.274 2.274 0 0 1-2.029.857c-1.497-.08-2.383-.953-2.657-2.636-.113-.476-.145-.92-.113-1.366a4.19 4.19 0 0 1 .419-1.429l.016-.031c.129-.239.258-.493.403-.731a95.313 95.313 0 0 1-2.754 2.207l-.016.016c-.37.286-.773.588-1.175.89-.322.222-.677.476-1.095.746-2.061 1.381-3.736 2.048-4.992 2.017h-.064c-1.208-.064-2.19-.445-2.931-1.112a4.273 4.273 0 0 1-.741-.89c-.563.366-1.095.684-1.578.938-1.352.714-2.512 1.064-3.51 1.064-1.192 0-2.174-.318-2.931-.953-.853-.715-1.288-1.7-1.288-2.922h.016c0-.953.21-1.938.596-2.906.129-.318.274-.651.435-.969l-.049.048c-.096.095-.322.286-.676.603a91.99 91.99 0 0 1-4.235 3.494 35.944 35.944 0 0 1-3.011 2.096 32.74 32.74 0 0 1 3.51.778h.017l.144.048c.371.11.709.222 1.047.333.37.127.757.27 1.127.429 1.933.778 3.494 1.747 4.686 2.795l.016.016c.209.206.451.428.693.698.225.255.434.493.611.731 1.047 1.366 1.578 2.858 1.546 4.351-.112 6.971-6.586 9.163-15.104 9.036-12.399-.207-29.548-5.447-34.153-6.844-1.819.698-3.703 1.62-5.555 2.524-5.427 2.668-10.58 5.193-15.555 3.018a2.63 2.63 0 0 1-.547-.334 2.628 2.628 0 0 1-.87-1.143c-.29-.762-.193-1.477.242-2.112v-.016c.322-.46.756-.778 1.304-.937a2.18 2.18 0 0 1 .628-.111 3.55 3.55 0 0 1 1.063.127c.016 0 .032.016.048.016 2.898.92 6.183-.715 10.257-2.748.467-.222.95-.476 1.45-.714a402.271 402.271 0 0 1-5.508-1.7c-.048.048-.096.08-.129.112-.048.032-.08.063-.112.08-.548.412-1.015.746-1.401 1.032-.532.38-1.063.73-1.562 1.048-2.705 1.762-5.443 3.191-8.196 4.271a29.28 29.28 0 0 1-1.723.588c-.628.206-1.369.413-2.206.62-4.428 1.11-10.547 1.762-13.349-1.001a8.12 8.12 0 0 1-1.272-1.652c-.934-1.667-1.079-3.477-.596-5.224.435-1.588 1.401-3.113 2.738-4.43a14.049 14.049 0 0 1 2.979-2.224c1.69-1.096 3.767-1.7 6.038-1.97-.612-.92-.87-2.032-.757-3.35 0-.08.016-.143.032-.222.032-.365.113-.73.194-1.096.096-.397.241-.81.402-1.239.21-.524.467-1.063.773-1.603l-.177.206c-1.9 2.24-3.43 4.177-4.573 5.844h.016l-.016.016c-.193.286-.387.54-.564.81-.129.158-.306.397-.563.698-1.288 1.588-2.544 2.35-3.752 2.271h-.032c-1.047-.063-1.852-.54-2.4-1.429-.354-.572-.531-1.286-.531-2.096 0-.429.048-.858.161-1.302.097-.366.242-.763.435-1.176a12.3 12.3 0 0 1 .467-.905c.16-.301.354-.619.563-.937 1.03-1.603 2.609-3.652 4.767-6.161a.349.349 0 0 0 .064-.08c.886-1 1.771-1.984 2.657-2.937-.79.62-1.417 1.111-1.916 1.508a523.745 523.745 0 0 0-10.998 9.036c.499.08.966.334 1.417.778l.016.016c.596.556.853 1.255.757 2.08a2.996 2.996 0 0 1-.419 1.223 7.02 7.02 0 0 1-.821 1.08l-.048.048c-2.947 3.112-6.248 5.447-9.871 6.971-3.623 1.54-7.552 2.27-11.803 2.191-2.593-.047-4.88-.46-6.844-1.254-1.546-.62-2.914-1.461-4.074-2.525-1.127.334-2.27.62-3.413.826a27.52 27.52 0 0 1-4.75.428c-4.59 0-8.035-1.032-10.338-3.112-2.432-2.175-3.446-5.32-3.092-9.401v-.063c.08-.779.21-1.604.403-2.43.177-.842.435-1.652.724-2.477 1.53-4.098 4.493-8.131 8.905-12.085l.032-.032c.354-.317.757-.667 1.224-1.048.45-.365.886-.699 1.336-1.032 2.303-1.715 4.847-3.16 7.633-4.335a34.041 34.041 0 0 1 5.652-1.858c1.884-.413 3.687-.636 5.426-.636.58 0 1.192.048 1.804.127l.628.096c.21-.143.435-.286.644-.413a38.048 38.048 0 0 1 1.594-.937c2.753-1.556 5.78-2.843 9.082-3.859a48.002 48.002 0 0 1 7.39-1.715 47.835 47.835 0 0 1 7.472-.588v.016c4.541 0 9.388.604 14.54 1.81.049 0 .097.017.145.032.21.048.468.112.741.175l.822.238c1.497.413 2.624.89 3.413 1.43a.49.49 0 0 1 .113.079c.225.159.402.318.564.476h.016c.354.35.595.73.74 1.144.113.333.161.635.161.952a106.313 106.313 0 0 1 6.94-3.588c2.4-1.144 4.734-1.985 7.005-2.557 2.335-.572 4.605-.858 6.827-.858 2.512 0 4.622.334 6.329 1 1.932.747 3.349 1.922 4.251 3.526h.016c.177.318.306.635.402.937.193.604.21 1.16.081 1.7-.21.762-.66 1.333-1.369 1.73-.161.08-.338.159-.531.223-.628.206-1.24.158-1.868-.175a2.799 2.799 0 0 1-.483-.318v-.016.016c-.29-.254-.725-.698-1.289-1.381a.034.034 0 0 0-.032-.032 4.936 4.936 0 0 0-2.013-1.43c-.933-.38-2.028-.555-3.333-.555-.354 0-.805.016-1.352.063-.451.048.032-.015-.242.016-.322.032-.741.08-1.24.16l-.096.03c-.097.017.032-.015-.226.064-.418.143-.789.286-1.127.43a.485.485 0 0 1-.129.063c-2.399 1.095-5.33 3.096-8.808 5.987-3.607 2.985-7.793 6.955-12.56 11.878-.386.413-.772.826-1.159 1.223.435-.35.87-.683 1.304-1a35.804 35.804 0 0 1 3.575-2.288v-.016c.048-.015.097-.047.145-.063a23.993 23.993 0 0 1 1.675-.858 25.448 25.448 0 0 1 1.674-.714c1.176-.429 2.222-.635 3.14-.635 1.095 0 2.013.301 2.722.873.837.699 1.256 1.62 1.256 2.795 0 1.048-.403 2.096-1.208 3.128-.451.588-1.047 1.16-1.787 1.747.193.127.386.286.547.477.016.015.048.063.097.11l.016.017c.16.206.29.428.386.667.049.11.08.206.097.301.048.159.064.334.08.492.049.858-.29 1.636-1.014 2.35l-.016.017c.37-.096.805-.143 1.288-.143.419-.048.87-.08 1.353-.064.338.016.66.032.982.064.644-.223 1.336-.572 2.093-1.017-.193.032-.37.048-.563.048-.435 0-.854-.095-1.257-.286a2.305 2.305 0 0 1-.386-.254h-.016c-.853-.635-1.224-1.508-1.079-2.604.08-.556.306-1.128.709-1.747a5.6 5.6 0 0 1 .386-.556c.403-.54.918-1.096 1.53-1.651.547-.524 1.207-1.049 1.948-1.604l.016-.016c1.305-.953 2.528-1.668 3.672-2.144 1.288-.54 2.495-.794 3.639-.778 3.381.08 5.088 1.763 5.169 5.097v.016c0 .397-.017.762-.049 1.112-.032.175-.048.365-.08.54l.064-.064c.209-.206.451-.428.741-.698.354-.334.66-.604.902-.794a26.399 26.399 0 0 1 5.088-3.399c1.256-.667 2.415-1.159 3.446-1.492 1.175-.35 2.254-.54 3.253-.54v.015c1.207 0 2.206.286 2.962.874.934.73 1.401 1.715 1.401 2.985h.016c0 2.525-1.9 5.685-5.684 9.497v.016c-5.265 5.224-9.452 7.844-12.543 7.844-3.14 0-4.702-1.604-4.702-4.795 0-.922.161-1.874.499-2.827-.467.365-.95.714-1.466 1.048a20.701 20.701 0 0 1-5.877 2.684c.016.222.032.444.032.683 0 .015-.016.031-.016.047.032 1.064-.45 2.27-1.417 3.605-.257.365-.58.762-.934 1.175 2.094.667 3.994 1.35 5.684 1.97 1.192.428 2.271.809 3.189 1.11 3.429-1.254 6.682-2.413 9.597-3.35 2.64-.858 5.056-1.572 7.133-2.048-.306-.413-.531-.97-.644-1.668a4.964 4.964 0 0 1-.097-1.366 4.14 4.14 0 0 1 .403-1.429l.032-.031c.725-1.398 1.739-2.89 3.011-4.526 1.24-1.588 2.754-3.303 4.525-5.146.016-.015.032-.031.032-.047 2.093-2.128 3.913-3.7 5.475-4.732.048-.032.097-.064.161-.096.161-.095.306-.19.467-.27.177-.079.402-.174.66-.27 1.063-.412 2.335-.619 3.832-.619a2.3 2.3 0 0 1 2.303 2.287c0 .27-.032.524-.129.762 1.176-.969 2.239-1.715 3.172-2.239.017-.016.049-.032.065-.048a11.6 11.6 0 0 0 .451-.238c.177-.08.37-.159.596-.238.95-.318 2.045-.429 3.252-.334 1.272.127 2.206 1.223 2.093 2.478a2.194 2.194 0 0 1-.74 1.477h.016a165.049 165.049 0 0 0-4.364 4.097c.886-.127 1.643.11 2.271.73.048.048.145.159.241.286.387.508.564 1.048.531 1.62 2.915-3.97 7.858-7.94 10.612-9.497a7.928 7.928 0 0 1 2.303-.825c.789-.16 1.61-.19 2.479-.127 1.24.11 2.158 1.127 2.142 2.318a32.902 32.902 0 0 1 2.641-1.747 6.444 6.444 0 0 1 2.093-.762c.709-.143 1.465-.175 2.303-.095a2.289 2.289 0 0 1 2.093 2.477 2.225 2.225 0 0 1-.741 1.477c-1.546 1.413-3.027 2.763-4.38 4.034.693-.032 1.337.222 1.9.778h.017v.015c.37.366.611.763.708 1.176a69.296 69.296 0 0 1 3.478-3.828c0-.015.016-.031.032-.047 2.078-2.128 3.897-3.7 5.459-4.732.064-.032.113-.064.161-.096.161-.095.322-.19.483-.27.177-.079.387-.174.66-.27 1.063-.412 2.335-.619 3.817-.619 1.288 0 2.318 1.032 2.318 2.287 0 .27-.048.524-.128.762zm-58.13 15.848c-.274-.508-.435-1.111-.499-1.794-.016-.159-.016-.318-.016-.46 0-.175.016-.35.064-.509.032-.238.097-.492.177-.762.081-.334.194-.635.306-.937l.033-.048a5.442 5.442 0 0 1-.757-.095c-.177.19-.322.334-.419.445-1.143 1.223-2.48 2.763-3.993 4.62a54.719 54.719 0 0 1 3.204-.349c.644-.047 1.288-.079 1.9-.11zm-49.37.334c2.27.35 4.46.81 6.296 1.254.902-.841 1.659-1.572 2.255-2.223l-.387-.095c-.467-.175-.853-.413-1.16-.746a2.587 2.587 0 0 1-.66-1.493c-.015-.127-.015-.222-.015-.27 0-.175.032-.492.128-.905.016-.08.033-.143.049-.207a72.07 72.07 0 0 1-4.477 3.43c-.048.032-.096.048-.145.08-.37.254-.74.492-1.095.714a20.26 20.26 0 0 1-.789.46zm-37.019 2.715c-.048-.047-.08-.095-.129-.127-.08-.11-.16-.206-.225-.317-.306-.445-.451-.937-.451-1.509 0-.714.21-1.445.644-2.175.306-.54.757-1.096 1.337-1.7.402-.412.982-.968 1.739-1.651a91.481 91.481 0 0 1 2.334-2.017 646.954 646.954 0 0 1 3.656-5.606c1.385-2.08 3.124-4.668 5.185-7.733.016-.016.016-.032.032-.064l.113-.143a107.512 107.512 0 0 0-6.216 5.51c-3.462 3.32-6.537 6.162-9.243 8.544-2.77 2.43-5.2 4.43-7.326 6.003l-.049.047c-.402.302-.837.62-1.272.922-.467.333-.917.635-1.336.92a39.375 39.375 0 0 1-3.301 1.922c.08.048.161.08.241.111 1.305.508 2.867.778 4.702.81 3.446.064 6.65-.524 9.565-1.747zM78.96 10.655a5.91 5.91 0 0 1-.821-.38h-.016c-.016-.017-.032-.032-.064-.032a.525.525 0 0 0-.113-.064 9.21 9.21 0 0 0-.854-.27 3.202 3.202 0 0 0-.692.223 5.127 5.127 0 0 0-1.047.682.698.698 0 0 0-.112.096 24.895 24.895 0 0 0-2.158 2.064c-.87.905-1.787 1.97-2.802 3.208l-.467.603a133.971 133.971 0 0 1 8.245-5.574c.29-.19.595-.365.901-.556zM65.771 8.162a82.087 82.087 0 0 0-4.444-.127c-1.868 0-3.784.16-5.748.477-2.013.333-4.09.825-6.232 1.492-.032.016-.048.016-.08.032-1.949.62-3.8 1.334-5.572 2.128-.87.397-1.739.81-2.592 1.255 1.062 1.588 1.545 3.525 1.417 5.812-.145 2.795-.999 5.478-2.56 8.05a25.527 25.527 0 0 1-1.627 2.335 450.598 450.598 0 0 0 7.552-6.542c.048-.048.097-.08.129-.111a187.455 187.455 0 0 1 8.196-6.845 127.798 127.798 0 0 1 7.761-5.685l.016-.016c.049-.031.08-.047.113-.063.387-.254.79-.524 1.224-.794a52.87 52.87 0 0 1 1.353-.81c.37-.207.724-.397 1.094-.588zm-28.71 10.83c.08-.968-.016-1.746-.306-2.334a2.024 2.024 0 0 0-.242-.397 29.147 29.147 0 0 0-3.96 3.478 33.99 33.99 0 0 0-4.429 5.717l-.016.016a62.223 62.223 0 0 0-.966 1.667c-.338.62-.612 1.143-.821 1.588-.725 1.524-1.256 2.985-1.562 4.351 1.562-.92 3.172-2.048 4.814-3.382v-.016c2.464-1.97 4.316-3.89 5.572-5.749 1.16-1.699 1.803-3.35 1.916-4.923v-.015zm-9.066-3.239c-1.03.35-2.093.794-3.204 1.35a36.853 36.853 0 0 0-4.476 2.62c-1.482.985-2.883 2.096-4.251 3.287v.016c-.033.032-.081.064-.13.111a56.309 56.309 0 0 0-2.254 2.096c-.74.73-1.417 1.43-2.012 2.097-2.995 3.334-4.606 6.256-4.831 8.765-.193 2.176.258 3.748 1.353 4.717 1.24 1.08 3.365 1.62 6.392 1.62 1.16 0 2.335-.128 3.543-.382.499-.11 1.014-.238 1.53-.397-.049-.127-.081-.238-.13-.365-.305.064-.611.127-.901.175a16.98 16.98 0 0 1-3.043.27v.016c-2.11 0-3.946-.493-5.475-1.461a.282.282 0 0 0-.08-.064 4.645 4.645 0 0 1-1.37-1.302c-.45-.651-.676-1.35-.676-2.096 0-.492.129-.937.387-1.35.322-.524.773-.89 1.384-1.096a2.43 2.43 0 0 1 2.158.302c.338.206.628.508.854.89h.016l.112.19c.194.143.451.254.773.35.516.158 1.176.237 1.98.237a9.61 9.61 0 0 0 2.094-.238c.355-.08.693-.174 1.063-.286v-.444c.016-.826.048-1.7.08-2.636.049-1.223.435-2.716 1.128-4.463.644-1.604 1.578-3.462 2.785-5.573l.016-.016h-.016a38.238 38.238 0 0 1 4.654-6.352 9.51 9.51 0 0 1 .547-.588zm54.958 16.754c-.838.206-1.562.301-2.206.301h-.13c-.225.207-.434.413-.627.62-.419.412-.821.825-1.224 1.27-.547.603-1.014 1.143-1.369 1.62.451-.223.934-.493 1.45-.826.209-.127.499-.318.87-.556.305-.206.595-.413.885-.603a50.81 50.81 0 0 0 2.35-1.826zm-1.788 14.212c-1.771-.413-3.655-.778-5.523-.969-3.252-.365-6.392-.238-8.421.953-1.03.62-1.933 1.731-2.4 2.89-.225.54-.322 1.048-.273 1.477.032.239.129.445.306.588.338.301.966.492 1.948.54.596.032 1.192.016 1.787-.032a16.677 16.677 0 0 0 1.9-.302c3.205-.698 6.763-2.413 10.676-5.145zm30.418 2.922c6.956 1.985 17.777 4.685 25.779 4.828 4.863.079 8.519-.747 8.776-3.335a3.421 3.421 0 0 0-.58-1.191c-.338-.477-.805-.905-1.352-1.318-3.43-2.446-9.951-3.208-16.312-2.652-5.99.524-11.883 2.191-16.311 3.668z" fill="#E31E24"/><path d="M186.748 22.947c1.175-.953 2.222-1.7 3.156-2.24.016-.015.048-.015.064-.031.161-.095.306-.175.451-.238.177-.08.37-.16.596-.239.95-.333 2.045-.444 3.253-.333 1.272.111 2.222 1.223 2.093 2.477a2.279 2.279 0 0 1-.725 1.477 163.63 163.63 0 0 0-4.347 4.081c.869-.127 1.626.111 2.254.73.064.064.145.16.242.302.466.604.627 1.27.483 2.001a2.535 2.535 0 0 1-.773 1.414l-.145.143c-.049.047-.081.079-.129.11-.177.175-.338.318-.483.461-.097.096-.322.286-.676.588-1.208 1.08-2.625 2.239-4.235 3.493-3.06 2.382-5.411 3.605-7.037 3.669-.113 0-.258.016-.483.016-1.176 0-2.142-.35-2.882-1.033-.757-.682-1.192-1.62-1.289-2.779 0-.174-.016-.317-.016-.46 0-.175.032-.35.065-.524.048-.238.096-.492.177-.746.08-.334.193-.652.322-.953l.016-.048a11.048 11.048 0 0 1-.757-.08c-.177.175-.306.334-.419.445-1.336 1.43-2.93 3.287-4.766 5.574a2.39 2.39 0 0 1-2.029.858c-1.513-.08-2.399-.953-2.673-2.636a5.003 5.003 0 0 1-.096-1.366 3.85 3.85 0 0 1 .418-1.43l.016-.047c.129-.238.258-.476.403-.73a94.765 94.765 0 0 1-2.753 2.223l-.033.016c-.37.285-.757.571-1.175.873a19.29 19.29 0 0 1-1.079.762c-2.077 1.382-3.736 2.049-5.008 2.001h-.048c-1.208-.063-2.19-.429-2.931-1.095a3.592 3.592 0 0 1-.74-.906c-.564.366-1.095.683-1.579.937-1.352.715-2.528 1.08-3.526 1.08-1.192 0-2.158-.318-2.914-.953-.854-.73-1.289-1.699-1.289-2.922h.016c0-.968.21-1.937.596-2.922.129-.317.274-.635.435-.952l-.064.047c-.097.096-.306.286-.661.588a82.729 82.729 0 0 1-4.251 3.493c-1.095.858-2.093 1.557-3.011 2.112 1.272.207 2.432.461 3.511.779h.032c.032.016.08.031.129.047.37.111.724.223 1.046.334.387.127.773.27 1.127.413 1.949.794 3.511 1.746 4.686 2.81l.032.016c.21.19.435.429.693.699.225.238.435.476.612.715 1.046 1.381 1.562 2.874 1.545 4.367-.128 6.97-6.601 9.162-15.103 9.02-12.399-.207-29.564-5.431-34.154-6.829-1.82.699-3.703 1.62-5.555 2.525-5.442 2.652-10.58 5.177-15.57 3.001a1.945 1.945 0 0 1-.548-.333 2.464 2.464 0 0 1-.854-1.128c-.306-.762-.193-1.477.226-2.112l.016-.016h-.016c.322-.476.773-.778 1.304-.952a2.25 2.25 0 0 1 .644-.096c.338-.016.709.016 1.063.127.016 0 .032 0 .032.016v-.016c2.915.937 6.2-.698 10.273-2.731.467-.238.95-.476 1.433-.715-1.739-.54-3.639-1.111-5.49-1.699-.049.032-.097.08-.145.111-.032.032-.065.048-.097.08-.547.397-1.014.746-1.4 1.016-.548.381-1.064.73-1.563 1.064-2.705 1.763-5.442 3.192-8.212 4.272-.45.175-1.03.38-1.707.587-.644.19-1.385.413-2.206.62-4.444 1.095-10.547 1.762-13.349-1a7.667 7.667 0 0 1-1.272-1.668c-.95-1.668-1.095-3.462-.612-5.225.435-1.572 1.401-3.096 2.754-4.43a14.174 14.174 0 0 1 2.979-2.223c1.69-1.08 3.768-1.684 6.038-1.97-.612-.905-.87-2.016-.757-3.334 0-.08.017-.16.017-.223.048-.365.112-.73.209-1.095.096-.413.225-.826.402-1.24.21-.539.467-1.063.773-1.603l-.177.206c-1.916 2.224-3.43 4.177-4.573 5.844v.016c-.193.27-.386.54-.58.794-.112.175-.306.397-.547.715-1.288 1.588-2.544 2.35-3.768 2.27h-.016c-1.063-.079-1.852-.555-2.4-1.428-.37-.588-.547-1.287-.547-2.113 0-.412.065-.841.177-1.286.097-.381.242-.762.435-1.19h-.016c.129-.255.274-.557.467-.89.177-.302.37-.62.563-.937 1.031-1.62 2.625-3.668 4.767-6.162.032-.031.048-.063.08-.079a122.527 122.527 0 0 1 2.641-2.938c-.773.604-1.4 1.112-1.9 1.509a523.487 523.487 0 0 0-10.998 9.036c.483.063.966.333 1.417.778l.016.016c.596.555.837 1.254.757 2.08-.048.413-.193.81-.419 1.207-.177.317-.45.683-.837 1.096 0 .015-.016.015-.032.031-2.963 3.129-6.248 5.447-9.887 6.987-3.623 1.525-7.552 2.255-11.787 2.176-2.592-.032-4.879-.46-6.86-1.239-1.545-.619-2.898-1.46-4.057-2.524-1.144.333-2.27.603-3.414.81-1.642.301-3.22.444-4.75.444-4.605 0-8.051-1.048-10.354-3.113-2.415-2.19-3.446-5.32-3.076-9.4v-.064c.065-.794.21-1.604.387-2.445.193-.826.435-1.652.74-2.462 1.53-4.113 4.493-8.13 8.905-12.1 0 0 .016-.016.032-.016.355-.318.757-.683 1.224-1.064.435-.35.886-.7 1.32-1.033 2.303-1.699 4.864-3.144 7.633-4.319 1.948-.826 3.832-1.445 5.652-1.858 1.884-.429 3.688-.635 5.426-.635.596 0 1.192.032 1.82.127.21.016.403.048.612.095.225-.143.45-.286.66-.429a51.207 51.207 0 0 1 1.578-.936c2.77-1.54 5.797-2.827 9.082-3.843a50.93 50.93 0 0 1 7.39-1.731 50.014 50.014 0 0 1 7.488-.572c4.541 0 9.388.603 14.54 1.81.05.016.097.016.13.032.225.064.467.111.757.19.273.064.547.144.82.223 1.482.429 2.625.905 3.398 1.43.049.03.08.063.13.094.208.16.402.318.563.46v.017-.016c.354.35.612.746.757 1.16.112.317.16.634.144.936a125.238 125.238 0 0 1 6.94-3.589c2.4-1.127 4.735-1.985 7.021-2.54A27.777 27.777 0 0 1 102.05 0c2.511 0 4.621.333 6.328 1 1.932.763 3.349 1.938 4.251 3.526v.016c.177.317.322.619.418.92.178.604.21 1.176.065 1.7-.193.778-.644 1.35-1.369 1.73a2.182 2.182 0 0 1-.515.223c-.628.222-1.256.159-1.868-.159a2.202 2.202 0 0 1-.483-.333h-.016c-.29-.238-.709-.699-1.272-1.366-.016-.016-.016-.032-.032-.047a5.113 5.113 0 0 0-2.029-1.43c-.918-.365-2.029-.555-3.317-.555v.015-.015c-.355 0-.806.031-1.353.079-.451.032.032-.016-.242.016-.322.032-.74.08-1.256.159l-.08.016c-.113.031.032 0-.225.079-.42.127-.79.27-1.128.429-.048.016-.096.031-.145.063-2.383 1.096-5.313 3.08-8.808 5.971-3.606 3.001-7.777 6.955-12.543 11.894-.403.413-.79.81-1.16 1.223.419-.35.854-.683 1.305-1.016a34.063 34.063 0 0 1 3.574-2.287c.049-.032.097-.048.13-.08.579-.301 1.126-.587 1.69-.857a15.32 15.32 0 0 1 1.675-.699c1.175-.428 2.222-.635 3.123-.635 1.111 0 2.013.286 2.738.873.837.683 1.256 1.62 1.256 2.78 0 1.064-.403 2.112-1.208 3.144a11.727 11.727 0 0 1-1.803 1.747c.209.127.386.285.563.476.016.016.049.048.097.111v.016h.016c.161.206.29.429.386.667.033.095.065.19.097.302.032.159.064.317.08.492.049.842-.29 1.62-1.014 2.334l-.016.016a6.15 6.15 0 0 1 1.288-.127c.419-.063.87-.08 1.337-.063.338 0 .676.031.998.063a11.478 11.478 0 0 0 2.077-1.032 2.15 2.15 0 0 1-.547.063 2.71 2.71 0 0 1-1.256-.301 2.055 2.055 0 0 1-.403-.238c-.87-.651-1.224-1.525-1.079-2.605.08-.556.306-1.143.693-1.747.145-.222.273-.397.386-.555.419-.54.934-1.096 1.546-1.668a22.016 22.016 0 0 1 1.948-1.604h.017c1.288-.953 2.511-1.667 3.655-2.16 1.288-.523 2.512-.793 3.655-.762 3.365.064 5.088 1.763 5.153 5.082v.032c.016.397 0 .762-.049 1.096-.016.19-.048.365-.08.555.032-.031.048-.047.08-.063.21-.207.451-.445.741-.715.354-.317.66-.587.886-.794a28.197 28.197 0 0 1 5.088-3.382c1.272-.667 2.415-1.16 3.462-1.493 1.159-.365 2.254-.54 3.237-.54 1.223 0 2.206.302 2.979.89.934.714 1.4 1.714 1.4 2.985 0 2.509-1.883 5.685-5.668 9.496h-.016c-5.265 5.24-9.436 7.86-12.527 7.86-3.14 0-4.718-1.603-4.718-4.81 0-.922.177-1.859.499-2.828-.451.366-.95.715-1.449 1.048a20.574 20.574 0 0 1-5.894 2.684c.016.223.032.46.032.699v.048c.017 1.048-.45 2.255-1.416 3.604-.274.366-.58.763-.934 1.175 2.077.668 3.993 1.35 5.684 1.954 1.191.428 2.27.826 3.188 1.111 3.414-1.238 6.682-2.398 9.597-3.35 2.641-.858 5.04-1.557 7.133-2.033-.322-.429-.531-.969-.644-1.667a3.973 3.973 0 0 1-.096-1.366c.032-.492.177-.969.402-1.43l.016-.047c.741-1.382 1.739-2.89 3.011-4.51 1.256-1.604 2.754-3.319 4.541-5.16 0-.017.016-.017.032-.033 2.078-2.128 3.897-3.716 5.459-4.732a1.43 1.43 0 0 0 .161-.095c.161-.111.322-.19.483-.27.177-.095.387-.19.66-.286 1.063-.397 2.335-.603 3.833-.603a2.29 2.29 0 0 1 2.302 2.286c0 .254-.048.509-.128.747 1.175-.953 2.222-1.7 3.156-2.24.032-.015.048-.015.08-.031.145-.095.29-.175.435-.238a11.2 11.2 0 0 1 .596-.239c.966-.333 2.045-.444 3.268-.333a2.29 2.29 0 0 1 2.094 2.477c-.049.588-.338 1.096-.741 1.477a238.163 238.163 0 0 0-4.348 4.081c.886-.127 1.627.111 2.255.73.064.064.145.16.257.302.371.493.548 1.033.532 1.62 2.914-3.986 7.858-7.94 10.611-9.496a7.353 7.353 0 0 1 2.303-.826c.773-.159 1.61-.19 2.48-.127 1.223.095 2.157 1.128 2.125 2.319.998-.73 1.9-1.318 2.657-1.763.628-.35 1.32-.62 2.093-.762a8.402 8.402 0 0 1 2.303-.08 2.289 2.289 0 0 1 2.093 2.478 2.295 2.295 0 0 1-.741 1.46c-1.545 1.414-3.027 2.764-4.395 4.034.708-.032 1.352.238 1.916.794l.016.016c.37.365.596.746.708 1.175a83.075 83.075 0 0 1 3.462-3.843c.016-.016.033-.016.049-.032 2.077-2.128 3.896-3.716 5.458-4.732.049-.032.113-.063.161-.095.161-.111.322-.19.467-.27a5.35 5.35 0 0 1 .661-.286c1.062-.397 2.35-.603 3.832-.603 1.272 0 2.319 1.016 2.319 2.286 0 .254-.049.509-.129.747zm-58.13 15.864a4.518 4.518 0 0 1-.499-1.795c-.016-.174-.016-.317-.016-.46 0-.175.016-.35.048-.524.049-.238.113-.492.178-.746a8.07 8.07 0 0 1 .322-.953l.016-.048c-.258-.016-.499-.048-.741-.08-.177.175-.322.334-.435.445-1.143 1.223-2.463 2.763-3.993 4.621a54.719 54.719 0 0 1 3.204-.349c.66-.048 1.288-.095 1.916-.111zm-49.385.333c2.286.35 4.46.81 6.312 1.239a49.486 49.486 0 0 0 2.254-2.207 2.963 2.963 0 0 1-.403-.111 2.798 2.798 0 0 1-1.143-.747 2.41 2.41 0 0 1-.66-1.493c-.016-.127-.032-.206-.032-.254 0-.19.048-.492.129-.92.016-.064.032-.128.048-.207a55.27 55.27 0 0 1-4.477 3.43c-.032.032-.08.063-.128.095-.387.254-.741.492-1.095.699-.274.175-.532.318-.805.476zM42.229 41.86a1.032 1.032 0 0 1-.128-.143c-.097-.095-.161-.19-.242-.302a2.728 2.728 0 0 1-.45-1.508c0-.715.225-1.445.643-2.192.306-.524.757-1.096 1.337-1.699.402-.413.982-.953 1.755-1.652.708-.619 1.481-1.302 2.335-2.016a410.667 410.667 0 0 1 3.655-5.59 1046.68 1046.68 0 0 1 5.185-7.75c0-.015.016-.031.032-.047l.097-.143a101.67 101.67 0 0 0-6.2 5.51c-3.462 3.303-6.537 6.162-9.258 8.528-2.754 2.43-5.202 4.446-7.311 6.018-.016.016-.032.032-.048.032-.419.318-.838.62-1.288.937a20.11 20.11 0 0 1-1.337.905 39.4 39.4 0 0 1-3.285 1.938c.08.031.145.063.226.095 1.304.508 2.882.778 4.701.81 3.462.063 6.65-.508 9.581-1.731zM77.64 9.13a16.297 16.297 0 0 1-.806-.381l-.016-.016c-.032-.016-.048-.016-.064-.032a.283.283 0 0 1-.113-.047c-.21-.08-.5-.175-.87-.286a4.225 4.225 0 0 0-.676.238c-.37.159-.708.397-1.063.683a.289.289 0 0 1-.112.08c-.628.523-1.353 1.222-2.158 2.064a60.725 60.725 0 0 0-2.786 3.207l-.467.604a126.578 126.578 0 0 1 9.13-6.114zM64.45 6.638a68.351 68.351 0 0 0-4.429-.143c-1.867 0-3.8.175-5.764.492a46.92 46.92 0 0 0-6.216 1.493c-.032 0-.064.016-.096.016a57.315 57.315 0 0 0-5.556 2.128c-.885.397-1.755.825-2.592 1.27 1.063 1.572 1.53 3.51 1.417 5.812-.161 2.795-1.015 5.463-2.56 8.036a21.984 21.984 0 0 1-1.643 2.334 384.489 384.489 0 0 0 7.568-6.543c.032-.031.08-.08.13-.11 2.865-2.526 5.587-4.813 8.18-6.845a125.677 125.677 0 0 1 7.776-5.67l.017-.015c.032-.032.064-.048.112-.08a55.97 55.97 0 0 1 2.577-1.588c.354-.206.724-.397 1.079-.587zm-28.695 10.83c.08-.969-.032-1.747-.306-2.334a8.708 8.708 0 0 0-.241-.397 31.37 31.37 0 0 0-3.978 3.461c-1.626 1.7-3.091 3.605-4.412 5.733l-.016.016c-.322.508-.628 1.064-.966 1.652a52.757 52.757 0 0 0-.821 1.588c-.74 1.54-1.256 2.985-1.578 4.367 1.578-.937 3.172-2.065 4.815-3.399h.016c2.447-1.985 4.299-3.89 5.571-5.748 1.16-1.715 1.803-3.35 1.916-4.923v-.016zm-9.082-3.255c-1.014.365-2.077.81-3.188 1.35a38.28 38.28 0 0 0-4.492 2.62 41.46 41.46 0 0 0-4.235 3.303c-.049.047-.097.08-.129.11a72.024 72.024 0 0 0-2.254 2.097c-.741.73-1.417 1.43-2.03 2.112-2.994 3.335-4.605 6.257-4.814 8.75-.193 2.191.258 3.764 1.353 4.716 1.224 1.08 3.365 1.636 6.392 1.636 1.16 0 2.335-.143 3.543-.397.5-.111 1.014-.238 1.53-.381a3.57 3.57 0 0 1-.13-.381c-.305.08-.611.127-.9.19a18.51 18.51 0 0 1-3.044.27c-2.126 0-3.945-.476-5.475-1.46-.032-.017-.064-.032-.097-.048-.563-.381-1.014-.81-1.352-1.303-.451-.65-.677-1.35-.677-2.096 0-.492.13-.937.37-1.35.323-.54.79-.905 1.386-1.095.772-.254 1.497-.159 2.173.286.339.222.628.524.854.889l.129.19c.177.143.434.27.773.366.515.143 1.175.222 1.964.222.692 0 1.385-.08 2.11-.238a9.263 9.263 0 0 0 1.046-.27l.016-.46c.016-.81.049-1.684.08-2.637.049-1.223.42-2.715 1.128-4.446.644-1.62 1.578-3.478 2.786-5.59a38.265 38.265 0 0 1 4.637-6.368c.193-.19.37-.38.547-.587zm54.974 16.753c-.837.206-1.578.318-2.206.318h-.016v-.016h-.113c-.225.222-.435.429-.644.62-.403.412-.821.84-1.208 1.285a28.13 28.13 0 0 0-1.385 1.604c.451-.222.934-.492 1.466-.81.21-.142.499-.317.853-.555.306-.207.596-.413.886-.62a36.79 36.79 0 0 0 2.367-1.826zM79.86 45.18a48.29 48.29 0 0 0-5.524-.969c-3.268-.35-6.408-.238-8.421.969-1.047.603-1.948 1.715-2.415 2.874-.21.54-.306 1.048-.258 1.477.032.254.113.46.29.603.354.286.982.477 1.964.54a13.2 13.2 0 0 0 1.772-.047c.58-.048 1.207-.143 1.916-.302 3.204-.699 6.763-2.398 10.675-5.145zm30.417 2.938c6.956 1.969 17.777 4.684 25.78 4.811 4.863.08 8.518-.73 8.775-3.335a4.523 4.523 0 0 0-.579-1.19c-.338-.461-.805-.906-1.369-1.303-3.43-2.445-9.935-3.208-16.296-2.652-5.99.524-11.883 2.176-16.311 3.669z" fill="#FEFEFE"/><path d="M176.845 30.267c.032.08.129.143.258.19.257.096.628.128 1.127.096.934-.047 2.222-.317 3.881-.81.483-.508.966-.984 1.417-1.445.483-.476.95-.937 1.4-1.365 2.351-2.24 4.316-3.812 5.878-4.7.129-.08.274-.16.402-.207.129-.064.274-.127.419-.175.709-.238 1.546-.318 2.48-.222.29.015.499.27.467.555a.474.474 0 0 1-.161.334 188.35 188.35 0 0 0-6.377 6.082c-1.852 1.89-3.462 3.652-4.798 5.256v.016h-.016c-.226.27-.435.54-.628.778-.177.223-.355.445-.532.683v.016c-.708.921-1.079 1.525-1.143 1.794.209.064.644-.079 1.304-.428.822-.43 1.884-1.16 3.221-2.192.112-.11.579-.508 1.401-1.207l3.993-3.35c.016-.032.048-.048.081-.064l.032-.016c.048-.031.112-.063.145-.08l.032-.015c.096-.048.177-.08.258-.111h.048c.338-.08.612-.016.837.206.451.445.387.905-.193 1.35-.66.62-1.433 1.318-2.319 2.064a93.414 93.414 0 0 1-3.043 2.446l-.016.016-.258.19c-.402.302-.757.588-1.095.826-.354.238-.676.477-.998.683-1.61 1.064-2.85 1.588-3.704 1.572-.869.08-1.546-.111-2.013-.54l-.032-.032c-.451-.428-.676-1.063-.676-1.905v-.111c.032-.239.097-.477.161-.73.08-.255.161-.493.258-.747.37-.89.95-1.826 1.739-2.795-1.047.222-1.933.35-2.657.365-.87.032-1.546-.08-2.013-.35l-.419.43-.789.825c-1.401 1.493-3.011 3.383-4.863 5.67a.511.511 0 0 1-.402.19v.016a.952.952 0 0 1-.821-.429c-.161-.206-.258-.476-.306-.841v-.016h-.016c-.017-.08-.017-.16-.033-.254-.016-.064-.016-.143-.016-.239-.016-.412.049-.778.226-1.111l8.872-6.162zm-8.872 6.162l.016-.032c.676-1.286 1.626-2.7 2.834-4.224 1.191-1.54 2.673-3.224 4.412-5.018l.016-.032c.982-1 1.916-1.89 2.77-2.62a23.035 23.035 0 0 1 2.415-1.874c.483-.318 1.095-.556 1.787-.73a11.538 11.538 0 0 1 2.335-.223c.29 0 .515.223.515.508 0 .175-.08.334-.225.43l-.016.015c-.322.222-.644.445-.95.699-.338.254-.676.524-1.031.826-1.771 1.508-3.784 3.557-6.006 6.113l-8.872 6.162zM111.067 5.383a3.8 3.8 0 0 1 .258.604c.08.27.096.524.048.746a.918.918 0 0 1-.483.604h-.016v.015h-.016c-.065.032-.145.064-.21.096-.241.063-.467-.143-.611-.254-.29-.207-.645-.572-1.063-1.064v-.016a6.844 6.844 0 0 0-.677-.683 5.213 5.213 0 0 0-.74-.588c-1.385-.92-3.172-1.381-5.346-1.381-.934 0-1.997.095-3.189.27l-.257.063-.274.08v.016c-.467.143-.918.317-1.336.508h-.016c-5.121 2.318-12.464 8.416-22.012 18.31-2.673 2.779-4.992 5.32-6.924 7.59-1.933 2.255-3.51 4.256-4.702 5.987l-.113.19c-.048.064-.531.731-.531.715a4.582 4.582 0 0 1-.483.62c-.854 1.032-1.578 1.54-2.158 1.508l-.048-.016h-.033c-.112-.016-.225-.032-.322-.08-.112-.031-.209-.095-.306-.158-.37-.302-.563-.81-.563-1.525 0-.285.032-.571.113-.857a4.23 4.23 0 0 1 .322-.89c.386-.825 1.03-1.89 1.964-3.16.918-1.254 2.11-2.73 3.559-4.414l.016-.032c.37-.429.757-.857 1.16-1.302.45-.492.837-.937 1.19-1.318l.033-.032a128.659 128.659 0 0 1 6.2-6.288l.032-.032c4.202-3.954 8.131-7.241 11.77-9.862.741-.524 1.45-1.016 2.158-1.492a133.45 133.45 0 0 0-8.776 5.081 138.183 138.183 0 0 0-10.724 7.511 462.635 462.635 0 0 0-8.566 6.813 632.637 632.637 0 0 0-8.985 7.495 25.46 25.46 0 0 1-1.063 1.461 30.05 30.05 0 0 1-1.256 1.572v.016l-.032.032c-.226.254-.435.508-.628.747-.226.238-.419.46-.612.65-1.063 1.112-1.9 1.668-2.528 1.668-.113 0-.21-.016-.322-.048l-.032-.016a1.978 1.978 0 0 1-.274-.11v-.017h-.016a1.006 1.006 0 0 1-.338-.349l-.017-.048a1.197 1.197 0 0 1-.08-.428c0-.397.129-.842.402-1.302l.017-.032c.08-.143.177-.27.273-.397.21-.286.467-.604.79-.921l.015-.016c.387-.413.934-.921 1.627-1.54.708-.636 1.546-1.35 2.512-2.16l.885-1.398 1.047-1.604c7.68-11.719 23.236-31.379-1.787-7.479v.016l-.033.016-.016.016c-.95.905-1.852 1.778-2.737 2.604-.902.842-1.771 1.667-2.625 2.43-4.347 4.001-8.019 7.114-10.982 9.337l-.032.016a43.782 43.782 0 0 1-4.573 3.033 34.792 34.792 0 0 1-3.88 1.89 9.296 9.296 0 0 0 3.172 2.017c1.513.587 3.285.905 5.33.936 3.751.08 7.213-.555 10.386-1.905 3.172-1.334 6.102-3.43 8.71-6.178l.146-.158.016-.016c.258-.254.483-.429.676-.524l.032-.032c.29-.143.548-.159.79-.016l.032.032h.016l.016.016c.354.238.435.587.225 1.048-.112.254-.354.587-.708.969v.015l-.129.143h-.016a31.709 31.709 0 0 1-2.4 2.255 31.573 31.573 0 0 1-2.56 1.922c-4.476 2.953-9.564 4.383-15.249 4.287-2.35-.047-4.428-.413-6.199-1.127-1.675-.667-3.092-1.636-4.235-2.906-1.433.476-2.834.857-4.235 1.096a25.02 25.02 0 0 1-4.444.413c-4.122 0-7.182-.89-9.13-2.652-1.98-1.78-2.818-4.431-2.496-7.94v-.032c.226-2.668 1.143-5.336 2.721-7.988 1.788-3.001 4.17-5.59 6.747-7.908 2.786-2.51 6.006-4.542 9.694-6.098l.016-.016c.5-.207.998-.413 1.53-.604.515-.19 1.014-.365 1.497-.508l.049-.016c2.544-.81 4.975-1.206 7.278-1.206h.032c.531 0 1.047.047 1.546.11h.016l.225.033h.049c.322.063.628.127.917.206a34.65 34.65 0 0 1 1.273-.826c.483-.302.998-.603 1.513-.89 2.64-1.492 5.54-2.715 8.728-3.7a46.688 46.688 0 0 1 7.117-1.667c2.4-.365 4.798-.555 7.214-.555h.016c2.19 0 4.46.158 6.811.444a60.74 60.74 0 0 1 2.367.35c1.627.254 3.269.587 4.927.968l.033.016a27.4 27.4 0 0 1 2.673.747c.756.27 1.368.555 1.803.857l.016.016c.177.111.322.238.419.333.16.16.274.318.322.477.097.254.048.476-.097.683l-.032.031h.016l-.032.048-.032.016v.016l-.145.095h-.016l-.016.016c-.065.016-.113.048-.194.048-.064.016-.128 0-.209 0h-.016l-.032-.016h-.016c-.21-.048-.516-.175-.918-.397a6.215 6.215 0 0 0-.74-.302 11.685 11.685 0 0 0-1.096-.333 5.854 5.854 0 0 0-1.497.46l-.032.016a6.73 6.73 0 0 0-1.45.921h.016-.016v.016c-.193.143-.402.333-.628.524-.225.206-.45.413-.66.62-1.175 1.127-2.528 2.62-4.025 4.477l-2.835 3.653a291.46 291.46 0 0 1-2.834 3.62 180.25 180.25 0 0 1-3.607 4.447c-.354.413-.708.842-1.094 1.302 4.025-3.366 7.181-5.94 9.468-7.718a124.85 124.85 0 0 1 11.062-7.701 111.982 111.982 0 0 1 11.272-6.178c4.557-2.144 8.92-3.223 13.075-3.223 2.286 0 4.17.285 5.668.873.257.095.499.206.708.318l.033.015c1.159.588 2.028 1.382 2.592 2.398h.016zm-.016 0h.016-.016zm-32.382.43v.015-.016zm-6.843-.16a54.963 54.963 0 0 0-1.594-.222 74.597 74.597 0 0 0-10.21-.715c-3.912 0-8.083.7-12.527 2.065A52.896 52.896 0 0 0 41.65 9.02a49.71 49.71 0 0 0-4.686 2.398c.08.063.161.143.226.206.273.223.515.477.74.73 1.095 1.335 1.594 3.097 1.482 5.257v.063a13.154 13.154 0 0 1-.274 2.08 18.14 18.14 0 0 1-.564 2.033c-1.223 3.415-3.735 6.638-7.52 9.687h-.015.016-.017l-.016.016c-.418.334-.837.667-1.272.985a38.44 38.44 0 0 1-1.336.92 34.714 34.714 0 0 1-6.989 3.542l.065.302c.032.206.096.428.145.667.241.92.547 1.747.918 2.477 2.528-1.16 5.362-2.922 8.518-5.288h.016c.499-.381 1.03-.778 1.594-1.207l1.739-1.381c3.108-2.494 6.892-5.717 11.352-9.656l.032-.031c5.684-5.018 10.966-9.163 15.861-12.466 3.092-2.065 6.183-3.557 9.275-4.447.306-.095.596-.174.886-.254zM37.544 17.595v-.016c.193-2.382-.564-4.081-2.238-5.097-.5.333-.966.667-1.417 1-.532.413-1.08.826-1.595 1.286-2.672 2.271-5.023 5.018-7.02 8.242-1.288 2.08-2.27 4.066-2.93 5.955-.66 1.858-1.015 3.62-1.047 5.288v.413c.16-.063.322-.143.467-.206.402-.19.805-.397 1.207-.604 2.061-1.096 4.219-2.54 6.425-4.335l.016-.016c2.576-2.08 4.557-4.129 5.91-6.13 1.336-1.969 2.077-3.89 2.222-5.78zm-5.314-6.05c-.274-.016-.547-.016-.837-.016-2.48 0-5.378.81-8.712 2.461-1.61.794-3.188 1.7-4.701 2.732a44.38 44.38 0 0 0-4.412 3.43c-3.124 2.747-5.508 5.335-7.15 7.717v.016c-1.61 2.35-2.512 4.526-2.689 6.511-.242 2.78.403 4.844 1.948 6.193 1.578 1.382 4.106 2.08 7.6 2.08a18.68 18.68 0 0 0 3.914-.428 24.97 24.97 0 0 0 3.558-1.064l-.048-.111c-.113-.207-.21-.413-.306-.62l-.016-.047c-.403-.874-.677-1.81-.87-2.81-.87.253-1.723.46-2.512.587-.966.174-1.868.254-2.721.254-1.771 0-3.269-.381-4.509-1.175h-.016l-.032-.032a4.027 4.027 0 0 1-.274-.19 1.847 1.847 0 0 1-.273-.223c-.467-.445-.709-.953-.709-1.525v-.079h.016a.92.92 0 0 1 .032-.222l.016-.016a.376.376 0 0 1 .097-.175l.016-.032h.016v-.016a.962.962 0 0 1 .338-.222.749.749 0 0 1 .628.095l.017.016c.112.08.209.19.29.334h.015c.081.143.145.238.21.333l.016.016a.61.61 0 0 0 .08.096l.017.015c.112.112.225.191.338.286.145.096.273.175.434.254.806.413 1.9.62 3.285.62.805 0 1.643-.096 2.496-.286a15.81 15.81 0 0 0 2.432-.762c0-.509.016-1.096.032-1.731l.016-.747v-.016c.016-.555.048-1.159.064-1.778v-.111c.016-.286.065-.604.13-.937.064-.35.144-.699.24-1.064.548-1.842 1.643-4.208 3.318-7.114.338-.604.708-1.192 1.11-1.795.387-.587.79-1.16 1.209-1.715 1.932-2.573 4.202-4.891 6.86-6.987zm56.73 11.688c0 .666-.274 1.35-.838 2.048l-.016.032c-.177.222-.37.444-.58.65-.45.43-.998.89-1.674 1.367-.403.27-.87.524-1.401.778l-.032.016c-.516.238-1.095.476-1.723.682-.676.239-1.272.413-1.804.524-.547.112-1.03.175-1.465.175h-.08a4.705 4.705 0 0 1-.548-.063h-.016l-.064-.016-.049-.016c-.467.429-.885.841-1.288 1.238-.467.477-.886.922-1.272 1.334-1.916 2.112-2.882 3.716-2.882 4.796 0 .159.032.27.112.334h.016c.097.095.29.127.564.127h.016c.548 0 1.192-.143 1.932-.429.13-.048.274-.111.387-.159.676-.286 1.417-.683 2.238-1.19l.032-.033c1.063-.65 2.158-1.429 3.317-2.334a54.787 54.787 0 0 0 3.623-3.113l.017-.015a.917.917 0 0 0 .128-.111 1.63 1.63 0 0 1 .612-.318.752.752 0 0 1 .757.238l.016.016.016.016v.016a.777.777 0 0 1 .129.81c-.08.206-.225.413-.45.635l-.033.047a75.76 75.76 0 0 1-3.22 2.716v.016h-.017a69.09 69.09 0 0 1-3.188 2.382c-2.818 1.937-5.185 2.795-7.133 2.604-1.047-.095-1.836-.46-2.335-1.064-.515-.587-.725-1.413-.628-2.445v-.064c.129-1.175.563-2.382 1.32-3.62.741-1.223 1.804-2.478 3.156-3.764v-.016l.049-.032c.257-.238.515-.476.773-.698.273-.254.563-.493.837-.715a31.535 31.535 0 0 1 4.766-3.224c1.208-.682 2.27-1.19 3.22-1.524.967-.35 1.804-.524 2.513-.524 1.465 0 2.19.635 2.19 1.89zm-3.495 6.748l.017-.015-.017.015zm1.482-6.939c-.097.048-.242.127-.451.238-.564.286-1.337.762-2.303 1.461a59.388 59.388 0 0 0-2.624 2.033c-.451.38-.902.762-1.32 1.143 1.223-.27 2.672-1.048 4.363-2.35.821-.651 1.433-1.223 1.836-1.7.29-.349.45-.619.499-.825zM64.048 42.177c2.738-1.762 6.828-2.064 10.998-1.746 3.977.301 8.035 1.175 11.014 1.89.419-.382.821-.747 1.192-1.096.418-.397.805-.779 1.16-1.144 1.754-1.747 2.624-2.906 2.624-3.478v-.508c-.596.16-1.256.286-1.98.366h-.033c-.161.016-.29.016-.403.016-.306 0-.563-.048-.756-.143l-.033-.016a.819.819 0 0 1-.466-.667v-.08c0-.08.032-.27.096-.571 0-.032 0-.048.016-.08.08-.302.338-.508.74-.62.275-.078.661-.126 1.144-.126l.097-.016h.032a2.51 2.51 0 0 1 .306-.032h.016c.097-.016.21-.016.338-.016a9.145 9.145 0 0 1 1.594.096c1.127-.334 2.383-.985 3.8-1.938 1.482-.984 3.108-2.318 4.879-3.986.806-.746 1.417-1.477 1.852-2.16.403-.65.644-1.27.709-1.857.032-.286-.016-.493-.161-.62-.194-.142-.532-.222-1.047-.222-.741 0-1.787.429-3.108 1.27v.016h-.016v.016c-.08.048-.16.095-.257.175-.097.063-.194.143-.29.222-.532.429-1.111 1.048-1.755 1.826v.016c-1.514 1.795-2.593 2.7-3.237 2.7a.903.903 0 0 1-.45-.111c-.033 0-.05-.016-.081-.032l-.033-.032-.016-.016c-.306-.222-.434-.555-.386-.968.032-.286.193-.636.435-1.017.096-.143.193-.285.306-.428v-.016h.016c.096-.127.193-.254.306-.381v-.016c.112-.127.241-.254.37-.397.644-.683 1.45-1.382 2.448-2.112v-.016h.016c1.175-.858 2.27-1.509 3.285-1.922 1.046-.444 2.012-.65 2.914-.635h.193c.274.016.548.048.789.111.258.064.499.127.709.239 1.111.492 1.674 1.508 1.707 3a6.897 6.897 0 0 1-.661 3.05c-.45.953-1.143 1.858-2.061 2.715-1.481 1.382-3.107 2.51-4.879 3.35a19.006 19.006 0 0 1-4.847 1.573c.081.143.145.302.194.46.16.461.241.97.241 1.525.049.683-.306 1.572-1.079 2.636-.628.874-1.545 1.89-2.737 3.08 3.172.89 5.974 1.89 8.341 2.748 1.45.524 2.737.985 3.832 1.318 3.607-1.318 7.037-2.54 10.129-3.541 3.14-1.016 5.942-1.826 8.212-2.255l.032-.016h.048a54.372 54.372 0 0 1 3.35-.54 37.77 37.77 0 0 1 3.14-.333c5.217-.397 9.548.063 12.898 1.032l.016.016h.032c.37.11.741.222 1.079.35.354.11.708.253 1.046.38 1.723.699 3.108 1.556 4.139 2.477h.016l.193.207h.016l.016.016c.194.175.371.365.532.556.161.19.322.397.467.587.708 1 1.062 2.065 1.046 3.097-.096 5.637-5.797 7.4-13.284 7.289-12.157-.207-29.178-5.4-33.686-6.781l-.548-.159c-2.11.762-4.218 1.795-6.296 2.811-5.04 2.461-9.822 4.812-14.04 2.97a.26.26 0 0 1-.114-.064h-.016a.877.877 0 0 1-.322-.397.548.548 0 0 1 .049-.524.602.602 0 0 1 .338-.254h.032c.16-.032.419-.032.628.032l.032.016c3.607 1.111 7.166-.652 11.594-2.859 1.723-.857 3.575-1.778 5.636-2.636l-.13-.032a717.034 717.034 0 0 1-10.804-3.319l-.242.223-.482.428-.049.032h-.016c-.483.381-.982.746-1.481 1.096-.5.35-.999.683-1.498 1.016-2.592 1.684-5.217 3.05-7.874 4.081v.016h-.016c-.419.16-.966.35-1.594.54-.612.207-1.32.397-2.093.588-3.994 1-9.42 1.667-11.626-.524a5.516 5.516 0 0 1-.983-1.27c-.692-1.24-.805-2.573-.434-3.907.354-1.27 1.143-2.541 2.27-3.637a12.493 12.493 0 0 1 2.705-2zm19.693 2.192c-2.64-.762-5.957-1.572-9.226-1.922-3.591-.38-7.117-.222-9.517 1.207-1.385.81-2.56 2.255-3.172 3.764-.306.778-.45 1.588-.37 2.318.08.667.37 1.287.934 1.747.628.524 1.61.873 3.01.937l.065.016h.016c.66.032 1.337.016 2.013-.048.693-.08 1.401-.19 2.126-.35 3.751-.825 7.906-2.921 12.479-6.288l.032-.031.322-.27.032-.016.306-.27c.338-.27.645-.54.95-.794zm20.853 3.89c5.185 1.604 20.675 6.257 31.432 6.432 6.006.111 10.498-1.191 10.611-5.256a5.604 5.604 0 0 0-.934-2.065 7.324 7.324 0 0 0-1.787-1.715c-3.8-2.7-10.757-3.573-17.487-2.985h-.065c-8.969.81-17.68 4.05-21.77 5.59zm18.775-24.804c0 1.048-.434 2.27-1.32 3.668-.854 1.35-2.126 2.874-3.832 4.574v.015c-2.432 2.414-4.574 4.225-6.409 5.447-1.916 1.255-3.527 1.874-4.847 1.874-1.948 0-2.915-1-2.915-3.033 0-1.239.371-2.54 1.144-3.922.74-1.334 1.852-2.748 3.333-4.224a26.129 26.129 0 0 1 6.409-4.7l.032-.017c1.143-.587 2.174-1.032 3.124-1.334.998-.301 1.9-.46 2.705-.46 1.723 0 2.576.698 2.576 2.112zm-2.077-.318c-.821 0-2.061.604-3.687 1.826-1.691 1.255-3.784 3.16-6.28 5.701-1.562 1.604-2.754 2.954-3.527 4.034-.724 1.016-1.095 1.763-1.095 2.239 0 .238.113.365.371.365 1.401 0 4.669-2.572 9.79-7.686l.032-.032c1.562-1.572 2.721-2.905 3.494-4.001.741-1.032 1.111-1.826 1.111-2.35 0-.064-.08-.096-.209-.096zm7.52 7.13c.048.08.129.143.274.19.241.096.628.128 1.111.096.934-.047 2.238-.317 3.88-.81.483-.508.966-.984 1.417-1.445.483-.476.966-.937 1.417-1.365 2.351-2.24 4.3-3.812 5.862-4.7h.016c.128-.08.257-.16.386-.207.145-.064.274-.127.419-.175.708-.238 1.546-.318 2.496-.222.273.015.483.27.467.555a.567.567 0 0 1-.178.334h.017a161.496 161.496 0 0 0-6.377 6.082 90.442 90.442 0 0 0-4.815 5.256v.016c-.225.27-.434.54-.628.778-.177.223-.354.445-.531.683l-.016.016c-.692.921-1.079 1.509-1.143 1.794.209.064.66-.079 1.32-.428.805-.43 1.884-1.16 3.204-2.192.113-.11.58-.508 1.401-1.207l3.994-3.35c.016-.016.048-.032.064-.048h.016c.21-.143.419-.238.612-.27.29-.032.548.032.741.238l.096.096v.015l.017.016c.128.19.177.381.128.588-.032.19-.128.35-.273.508-.049.032-.097.08-.161.127a41.766 41.766 0 0 1-2.319 2.064 93.414 93.414 0 0 1-3.043 2.446c-2.867 2.223-4.896 3.319-6.103 3.287-.081.016-.193.016-.29.016-.709 0-1.272-.19-1.691-.556-.402-.38-.644-.92-.692-1.62-.016-.095-.016-.206-.016-.317 0-.048 0-.095.016-.127.129-.842.467-1.715.998-2.636l.016-.032a17.31 17.31 0 0 1 1.127-1.588c-.386.08-.772.159-1.143.206-1.642.27-2.818.207-3.51-.19l-.419.429c-.29.285-.547.571-.805.825-1.385 1.493-3.011 3.383-4.847 5.67a.543.543 0 0 1-.418.19v.016h-.016c-.017 0-.049 0-.065-.016a.828.828 0 0 1-.209-.032h-.016v-.016a.573.573 0 0 1-.226-.095h-.016v-.016h-.016c-.29-.206-.483-.555-.564-1.08a2.556 2.556 0 0 1-.048-.841 2.16 2.16 0 0 1 .209-.794l.033-.048c.676-1.27 1.61-2.684 2.818-4.208a64.004 64.004 0 0 1 4.412-5.018l.016-.016c.998-1.016 1.916-1.906 2.769-2.636a23.143 23.143 0 0 1 2.416-1.874c.016 0 .032-.016.048-.016.129-.095.274-.174.419-.238.145-.08.306-.159.483-.222.869-.318 1.916-.477 3.172-.477a.52.52 0 0 1 .531.508.519.519 0 0 1-.241.43h.016-.016v.015c-.322.222-.644.445-.966.699-.322.254-.677.524-1.015.826-1.787 1.508-3.784 3.557-6.022 6.113zM171 22.454c-2.383 2.176-4.621 4.224-6.57 6.098-1.948 1.89-3.639 3.637-4.975 5.257h-.017v.016c-.225.27-.434.523-.628.778l-.032.015c-.177.239-.354.461-.499.667-.708.922-1.079 1.525-1.143 1.795.209.063.644-.08 1.304-.413.805-.429 1.884-1.16 3.188-2.191.194-.175 1.997-1.684 5.411-4.558a.31.31 0 0 1 .096-.063v-.016h.017l.016-.016a.633.633 0 0 1 .145-.08c.096-.047.193-.095.289-.11l.049-.017c.322-.08.612 0 .821.207.032.032.064.063.097.11l.032.049a.804.804 0 0 1 .129.571 1.057 1.057 0 0 1-.29.492l-.016.016c-.033.032-.081.064-.129.111a56.99 56.99 0 0 1-2.319 2.065 145.96 145.96 0 0 1-3.043 2.461c-2.883 2.224-4.928 3.32-6.119 3.288h-.016c-.789-.048-1.401-.255-1.836-.652l-.016-.015c-.435-.413-.644-.953-.644-1.652v-.016c0-.35.048-.73.161-1.111l-.209.158h-.017v.016h-.016c-.37.286-.756.572-1.111.826-.386.27-.724.508-1.046.715-1.772 1.159-3.156 1.73-4.139 1.73-1.61 0-2.415-.698-2.415-2.111a6.29 6.29 0 0 1 .499-2.271c.29-.763.725-1.557 1.256-2.35 2.657-3.97 7.761-8.1 10.531-9.656l.032-.031c.145-.08.306-.143.467-.223.145-.063.306-.127.483-.19.822-.27 1.755-.366 2.77-.286.29.016.499.27.467.556a.49.49 0 0 1-.193.365c-.322.254-.822.651-1.45 1.19-.595.493-1.336 1.112-2.157 1.827-4.042 3.526-9.726 8.893-9.758 11.275a.36.36 0 0 0 .145.016c.096 0 .225-.016.37-.048l.032-.016c.902-.254 2.303-1.127 4.219-2.636.177-.143.37-.302.564-.46.177-.16.386-.334.611-.54 1.112-.969 2.464-2.271 4.042-3.89h.016v-.017l.016-.016c.483-.492.983-.968 1.45-1.429.483-.46.95-.89 1.433-1.318 2.383-2.128 4.492-3.652 6.038-4.542a4.786 4.786 0 0 1 1.498-.555 6.687 6.687 0 0 1 1.803-.064.53.53 0 0 1 .483.556.487.487 0 0 1-.177.333zm-12.56 7.051h.016-.016z" fill="#0E6740"/><path d="M136.476 5.193c0-.826-.274-1.461-.806-1.906-.644-.54-1.674-.826-3.059-.826h-4.009v.334h1.062v9.258h-1.062v.333h4.234v-.333h-1.207V8.146h.918c1.336 0 2.318-.238 2.962-.698.628-.46.967-1.223.967-2.255zm-2.223.429c0 .936-.193 1.572-.547 1.873-.258.207-.741.318-1.433.318h-.644V2.795h.773c.789 0 1.304.159 1.562.476.177.223.289.667.289 1.27v1.08zm11.224 3.477h-.435a3.828 3.828 0 0 1-.918 2.017c-.563.62-1.224.937-1.98.937h-1.224V7.098h.837c.354 0 .628.096.837.27.323.286.484.81.484 1.557h.45V4.97h-.45c0 .445-.097.842-.322 1.191-.242.397-.596.604-.999.604h-.837v-3.97h1.224c.901 0 1.594.35 2.061 1.048.322.476.531 1.08.612 1.794h.45l-.096-3.176h-7.262v.334h1.046v9.258h-1.046v.333h7.455l.113-3.287zm9.033-.222h-.451c-.145 1.096-.499 1.97-1.079 2.572-.466.477-.982.715-1.545.715-.596 0-1.047-.317-1.385-.953-.322-.635-.483-1.604-.483-2.906V6.241c0-.953.064-1.668.193-2.128.274-.953.853-1.43 1.691-1.43.579 0 1.111.255 1.562.795.467.54.773 1.27.934 2.175h.37V2.461h-.483a.397.397 0 0 1-.177.239.517.517 0 0 1-.258.063c-.37 0-.741-.095-1.111-.27-.193-.095-.499-.143-.869-.143-1.16 0-2.158.54-2.963 1.636a5.437 5.437 0 0 0-1.111 3.335c0 1.318.37 2.477 1.095 3.51.789 1.11 1.819 1.667 3.091 1.667.226 0 .419-.016.564-.048.145-.048.29-.095.451-.159.161-.063.306-.143.467-.19a.979.979 0 0 1 .386-.096c.129 0 .226.016.306.064.097.047.161.159.242.317h.45l.113-3.509zm9.243-3.208l-.081-3.208h-7.793l-.081 3.208h.467c.145-.89.403-1.604.757-2.112.371-.508.837-.762 1.417-.762h.354v9.258h-1.078v.333h4.122v-.333h-1.079V2.795h.338c.66 0 1.192.365 1.61 1.08.274.492.467 1.095.58 1.794h.467zm9.275 1.763c0-1.477-.435-2.716-1.337-3.716-.837-.921-1.787-1.366-2.866-1.366-1.046 0-1.98.445-2.818 1.35-.885 1-1.336 2.24-1.336 3.732 0 1.508.435 2.747 1.32 3.732.821.889 1.755 1.334 2.834 1.334 1.143 0 2.126-.477 2.963-1.461.837-.985 1.24-2.176 1.24-3.605zm-2.206 1.636c0 .889-.129 1.603-.37 2.112-.323.65-.854.984-1.627.984-.58 0-1.03-.206-1.352-.651-.387-.508-.58-1.318-.58-2.445v-3.24c0-1.016.161-1.794.499-2.334.338-.54.821-.81 1.433-.81.693 0 1.192.301 1.53.92.306.54.467 1.287.467 2.224v3.24zm10.933-3.875c0-.826-.273-1.461-.805-1.906-.644-.54-1.658-.826-3.059-.826h-4.01v.334h1.063v9.258h-1.063v.333h4.235v-.333h-1.207V8.146h.917c1.337 0 2.319-.238 2.963-.698.644-.46.966-1.223.966-2.255zm-2.222.429c0 .952-.193 1.572-.547 1.873-.258.207-.741.318-1.433.318h-.644V2.795h.772c.789 0 1.305.159 1.562.476.194.223.29.651.29 1.27v1.08zm9.951 6.764v-.333h-.756l-2.947-9.703h-.837l-2.448 8.004c-.177.587-.29.905-.29.92-.225.509-.596.779-1.111.779v.333h2.882v-.333c-.386-.048-.644-.095-.74-.127a.608.608 0 0 1-.403-.429.894.894 0 0 1-.032-.254v-.175c0-.079.032-.143.032-.174l.161-.747.21-.65h2.656l.806 2.556h-1.031v.333h3.848zm-3.687-3.223h-2.528l1.272-4.129 1.256 4.129zm13.8 3.223v-.333h-1.063V2.795h1.063V2.46h-3.913v.334h.885V6.97h-2.962V2.795h.885V2.46h-3.896v.334h1.046v9.258h-1.046v.333h3.896v-.333h-.885V7.305h2.962v4.748h-.885v.333h3.913z" fill="#FEFEFE"/><path fill-rule="evenodd" clip-rule="evenodd" d="M148.131 3.751c.868-1.18 1.979-1.798 3.288-1.798.387 0 .768.048 1.046.183.326.154.636.23.934.23a.186.186 0 0 0 .04-.004l.005-.001a.401.401 0 0 1 .39-.296h.483a.4.4 0 0 1 .403.396v3.192a.4.4 0 0 1-.403.397h-.37a.401.401 0 0 1-.397-.328c-.153-.86-.437-1.517-.843-1.987l-.005-.005c-.385-.462-.808-.65-1.251-.65-.336 0-.594.094-.796.263-.206.174-.385.453-.507.877-.114.407-.178 1.076-.178 2.02v2.065c0 1.281.16 2.174.438 2.725.148.277.307.459.469.571a.94.94 0 0 0 .558.166c.433 0 .848-.178 1.255-.592.501-.522.832-1.305.97-2.35a.402.402 0 0 1 .4-.345h.45a.399.399 0 0 1 .403.41l-.113 3.509a.4.4 0 0 1-.402.384h-.451a.402.402 0 0 1-.36-.219 1.362 1.362 0 0 0-.087-.153.4.4 0 0 0-.101-.009.595.595 0 0 0-.223.061.394.394 0 0 1-.047.018 1.56 1.56 0 0 0-.185.071l-.05.023c-.059.026-.129.057-.199.085a8.26 8.26 0 0 1-.469.165l-.004.002a.378.378 0 0 1-.04.01c-.185.041-.41.058-.651.058-1.415 0-2.564-.63-3.421-1.837l-.001-.002c-.772-1.1-1.167-2.338-1.167-3.735 0-1.306.397-2.516 1.189-3.57zm1.52-.424a4.122 4.122 0 0 0-.872.895 5.048 5.048 0 0 0-1.032 3.099c0 1.238.346 2.318 1.023 3.282.318.448.673.792 1.067 1.036a3.3 3.3 0 0 1-.143-.243l-.004-.007c-.365-.72-.526-1.763-.526-3.084V6.241c0-.96.064-1.72.208-2.234l.001-.002a3.1 3.1 0 0 1 .278-.678zm3.727 8.282h.021a.99.99 0 0 1 .501.112c.043.022.08.048.114.076l.042-1.298a4.003 4.003 0 0 1-.678 1.11zm-.113-8.452a3.934 3.934 0 0 1 .65 1.003V3.006a.919.919 0 0 1-.516.153c-.045 0-.09-.001-.134-.003zm12.445.275c.899-.971 1.935-1.479 3.115-1.479 1.21 0 2.264.506 3.166 1.498l.001.001c.977 1.083 1.439 2.42 1.439 3.98 0 1.509-.428 2.794-1.334 3.86-.904 1.063-1.995 1.603-3.272 1.603-1.209 0-2.246-.506-3.131-1.464l-.004-.004c-.961-1.068-1.422-2.406-1.422-3.995 0-1.578.48-2.913 1.436-3.993a.954.954 0 0 1 .006-.007zm.598.532c-.813.92-1.234 2.062-1.234 3.468 0 1.427.408 2.566 1.217 3.466.228.247.463.455.706.624-.355-.602-.506-1.436-.506-2.454v-3.24c0-1.02.155-1.868.529-2.495-.243.17-.48.38-.712.631zm4.351-.636l.049.086c.351.62.517 1.44.517 2.414v3.24c0 .919-.132 1.699-.409 2.28a3.617 3.617 0 0 1-.063.121 4.36 4.36 0 0 0 .727-.688c.768-.903 1.146-2 1.146-3.35 0-1.393-.408-2.533-1.235-3.45a4.363 4.363 0 0 0-.732-.653zm13.899-1.092a.403.403 0 0 1 .386-.283h.837c.178 0 .335.115.386.283l2.861 9.42h.457a.4.4 0 0 1 .402.397v.333a.4.4 0 0 1-.402.397h-3.849a.4.4 0 0 1-.402-.397v-.333a.4.4 0 0 1 .402-.397h.484l-.555-1.763h-2.066l-.114.356-.152.706a.486.486 0 0 1-.021.093l-.001.003-.004.014-.002.01v.168a.857.857 0 0 0 .012.131l.004.014c.03.1.08.14.143.161.053.018.272.062.664.11a.399.399 0 0 1 .352.394v.333a.4.4 0 0 1-.402.397h-2.883a.4.4 0 0 1-.402-.397v-.333a.4.4 0 0 1 .402-.397c.183 0 .32-.046.43-.124a.96.96 0 0 0 .301-.39l.017-.056.024-.073.035-.105c.049-.153.121-.377.208-.667l.001-.002 2.447-8.003zm1.629 7.026a.375.375 0 0 1 .059.117l.805 2.556c.006.018.01.036.013.054h1.224l-2.807-9.242h-.238l-.583 1.907a.399.399 0 0 1 .267.266l1.256 4.129c.021.07.022.144.004.213zm-3.724 2.393a1.811 1.811 0 0 1-.251.334h.435a1.035 1.035 0 0 1-.184-.334zm2.793-2.89l-.717-2.357-.727 2.358h1.444zm-57.057-6.304a.4.4 0 0 1 .403-.397h4.009c1.428 0 2.571.293 3.32.92.638.534.947 1.289.947 2.209 0 1.118-.37 2.017-1.128 2.573l-.004.003c-.744.532-1.827.774-3.199.774h-.515v3.113h.805a.4.4 0 0 1 .402.397v.333a.4.4 0 0 1-.402.397h-4.235a.4.4 0 0 1-.403-.397v-.333a.4.4 0 0 1 .403-.397h.66V3.192h-.66a.4.4 0 0 1-.403-.397V2.46zm1.868.397v9.131h1.159V8.146c0-.06.014-.116.038-.166a.389.389 0 0 1-.038-.167V2.858h-1.159zm1.965.334v4.224h.241c.671 0 1.029-.112 1.175-.225.098-.085.2-.241.278-.505.079-.267.125-.62.125-1.064v-1.08c0-.28-.026-.51-.068-.689a.889.889 0 0 0-.135-.335c-.136-.166-.481-.326-1.246-.326h-.37zm2.133 4.399c.15-.192.258-.426.334-.683.107-.361.157-.794.157-1.286v-1.08c0-.325-.03-.618-.089-.868a1.668 1.668 0 0 0-.267-.623c.47.127.838.31 1.11.539.425.356.663.871.663 1.603 0 .945-.305 1.57-.802 1.935-.277.198-.642.355-1.106.463zm3.341-5.13a.4.4 0 0 1 .403-.397h7.262a.4.4 0 0 1 .402.385l.097 3.177a.398.398 0 0 1-.402.408h-.451a.4.4 0 0 1-.4-.353c-.075-.665-.268-1.204-.547-1.618l-.001-.002c-.386-.578-.947-.87-1.725-.87h-.821v3.177h.434c.243 0 .475-.117.654-.41a.039.039 0 0 1 .005-.01c.176-.273.259-.592.259-.978a.4.4 0 0 1 .403-.397h.451a.4.4 0 0 1 .402.397v3.955a.4.4 0 0 1-.402.397h-.451a.4.4 0 0 1-.403-.397c0-.71-.156-1.086-.345-1.258-.124-.101-.3-.172-.573-.172h-.434v4.161h.821c.625 0 1.18-.256 1.678-.802.446-.512.72-1.107.822-1.81a.4.4 0 0 1 .398-.342h.435c.109 0 .214.044.289.121a.392.392 0 0 1 .113.29l-.112 3.287a.401.401 0 0 1-.403.383h-7.455a.4.4 0 0 1-.403-.397v-.333a.4.4 0 0 1 .403-.397h.644V3.192h-.644a.4.4 0 0 1-.403-.397V2.46zm1.852.397v9.131h1.16V7.1c0-.06.013-.117.037-.167a.388.388 0 0 1-.037-.167V2.858h-1.16zm4.428 0h.994l.039 1.258a3.68 3.68 0 0 0-.279-.492 2.726 2.726 0 0 0-.754-.766zm-1.178 4.04a1.49 1.49 0 0 1 .256.175c.101.09.188.194.262.309V6.326l-.028.044a1.74 1.74 0 0 1-.49.528zm1.106 5.091h1.261l.051-1.497a4.186 4.186 0 0 1-.602.89c-.22.241-.457.445-.71.607zm11.763-9.537a.4.4 0 0 1 .402-.388h7.794a.4.4 0 0 1 .402.388l.081 3.207a.403.403 0 0 1-.403.407h-.467a.4.4 0 0 1-.397-.334c-.107-.665-.288-1.22-.533-1.662-.355-.604-.75-.855-1.195-.877v8.463h.676a.4.4 0 0 1 .403.397v.333a.4.4 0 0 1-.403.397h-4.122a.4.4 0 0 1-.403-.397v-.333a.4.4 0 0 1 .403-.397h.676V3.193c-.411.013-.747.193-1.039.592-.308.444-.55 1.094-.689 1.947a.4.4 0 0 1-.397.334h-.467a.407.407 0 0 1-.289-.12.396.396 0 0 1-.114-.287l.081-3.207zm3.719.406v9.131h1.16V2.86h-1.16zm3.183 0h.901l.034 1.365a4.439 4.439 0 0 0-.259-.547 3.004 3.004 0 0 0-.676-.818zm-5.248 0h-.859l-.034 1.34a4.168 4.168 0 0 1 .458-.873c.131-.18.276-.337.435-.467zm16.348-.397a.4.4 0 0 1 .403-.397h4.009c1.444 0 2.571.293 3.32.92.638.534.947 1.289.947 2.209 0 1.113-.351 2.017-1.132 2.576-.744.532-1.827.774-3.199.774h-.516v3.113h.805a.4.4 0 0 1 .403.397v.333a.4.4 0 0 1-.403.397h-4.234a.4.4 0 0 1-.403-.397v-.333a.4.4 0 0 1 .403-.397h.66V3.192h-.66a.4.4 0 0 1-.403-.397V2.46zm1.868.397v9.131h1.159V8.146c0-.06.014-.116.037-.166a.403.403 0 0 1-.037-.167V2.858h-1.159zm1.964.334v4.224h.242c.671 0 1.029-.112 1.175-.225.209-.183.403-.642.403-1.57v-1.08c0-.291-.023-.522-.063-.696-.04-.179-.092-.272-.13-.315a1.064 1.064 0 0 1-.009-.01c-.135-.167-.48-.328-1.247-.328h-.371zm2.135 4.398c.351-.447.49-1.138.49-1.968v-1.08a3.98 3.98 0 0 0-.082-.871 1.559 1.559 0 0 0-.274-.621c.471.126.837.31 1.11.54.425.356.663.871.663 1.603 0 .951-.293 1.571-.8 1.933-.278.199-.643.357-1.107.464zm10.747-5.129a.4.4 0 0 1 .403-.397h3.897a.4.4 0 0 1 .402.397v.334a.4.4 0 0 1-.402.397h-.484v3.382h2.158V3.192h-.483a.4.4 0 0 1-.402-.397V2.46a.4.4 0 0 1 .402-.397h3.913a.4.4 0 0 1 .403.397v.334a.4.4 0 0 1-.403.397h-.66v8.464h.66a.4.4 0 0 1 .403.397v.333a.4.4 0 0 1-.403.397h-3.913a.4.4 0 0 1-.402-.397v-.333a.4.4 0 0 1 .402-.397h.483V7.702h-2.158v3.954h.484a.4.4 0 0 1 .402.397v.333a.4.4 0 0 1-.402.397h-3.897a.4.4 0 0 1-.403-.397v-.333a.4.4 0 0 1 .403-.397h.644V3.192h-.644a.4.4 0 0 1-.403-.397V2.46zm1.852.397v9.131h1.159V7.305c0-.06.014-.116.037-.167a.403.403 0 0 1-.037-.167V2.858h-1.159zm4.89 4.28c.024.05.037.107.037.167v4.684h1.16V2.86h-1.16v4.11c0 .06-.013.116-.037.167zm-28.11-4.057c-.466 0-.822.193-1.09.621-.281.449-.439 1.14-.439 2.126v3.24c0 1.1.191 1.803.499 2.207a.033.033 0 0 1 .005.007c.238.328.56.485 1.025.485.327 0 .576-.07.771-.188.193-.119.359-.301.493-.57.205-.436.331-1.084.331-1.941v-3.24c0-.899-.156-1.57-.416-2.03l-.003-.005c-.143-.26-.307-.433-.488-.542a1.298 1.298 0 0 0-.688-.17z" fill="#FEFEFE"/><path d="M135.704 4.764c0-.826-.274-1.477-.806-1.937-.644-.556-1.69-.842-3.075-.842h-4.042v.35h1.079v9.416h-1.079v.334h4.267v-.334h-1.207V7.765h.918c1.336 0 2.334-.238 2.978-.698.628-.477.967-1.239.967-2.303zm-2.239.429c0 .968-.193 1.62-.547 1.921-.258.207-.741.318-1.449.318h-.628V2.334h.757c.805 0 1.32.16 1.578.477.193.238.289.667.289 1.286v1.096zm11.288 3.541h-.435a3.877 3.877 0 0 1-.934 2.049c-.547.635-1.223.968-1.996.968h-1.224v-5.05h.853c.355 0 .628.096.838.286.322.286.499.826.499 1.588h.435V4.542h-.435c0 .444-.113.857-.338 1.207-.258.412-.596.619-.999.619h-.853V2.334h1.224c.918 0 1.61.35 2.093 1.064.322.477.531 1.096.596 1.827h.467l-.097-3.24h-7.31v.35h1.062v9.416h-1.062v.334h7.487l.129-3.351zm9.082-.222h-.467c-.129 1.127-.483 2-1.079 2.62-.467.492-.982.73-1.546.73-.596 0-1.063-.317-1.385-.968-.338-.651-.499-1.636-.499-2.954V5.828c0-.969.065-1.683.193-2.16.29-.968.854-1.46 1.707-1.46.58 0 1.111.27 1.578.81.451.555.773 1.285.934 2.222h.354V1.985h-.466c-.049.127-.097.206-.194.238a.49.49 0 0 1-.257.08c-.371 0-.741-.096-1.111-.286-.21-.096-.5-.143-.87-.143-1.175 0-2.174.556-2.979 1.651-.741 1.017-1.127 2.16-1.127 3.415 0 1.333.37 2.524 1.111 3.557.789 1.143 1.836 1.715 3.108 1.715.225 0 .418-.032.563-.064a7.11 7.11 0 0 0 .451-.159c.161-.079.322-.143.467-.206.161-.048.29-.08.387-.08a.69.69 0 0 1 .322.064c.08.048.161.159.241.318h.451l.113-3.573zm9.291-3.256l-.097-3.271h-7.825l-.081 3.271h.467c.145-.905.403-1.635.773-2.144.37-.524.837-.778 1.417-.778h.354v9.417h-1.079v.334h4.139v-.334h-1.079V2.334h.338c.66 0 1.208.366 1.61 1.096.29.492.483 1.112.58 1.826h.483zm9.323 1.795c0-1.509-.451-2.78-1.352-3.78-.838-.937-1.804-1.397-2.867-1.397-1.062 0-2.012.46-2.834 1.381-.901 1-1.352 2.271-1.352 3.796 0 1.524.434 2.795 1.336 3.78.805.92 1.755 1.38 2.85 1.38 1.144 0 2.126-.507 2.963-1.492.837-1 1.256-2.223 1.256-3.668zm-2.238 1.651c0 .921-.113 1.636-.354 2.144-.322.683-.87 1.016-1.627 1.016-.595 0-1.046-.222-1.368-.65-.403-.525-.596-1.366-.596-2.51V5.415c0-1.048.177-1.842.515-2.382.338-.556.821-.826 1.449-.826.677 0 1.192.318 1.53.937.306.556.451 1.318.451 2.271v3.287zm10.998-3.938c0-.826-.274-1.477-.805-1.937-.644-.556-1.675-.842-3.076-.842h-4.025v.35h1.078v9.416h-1.078v.334h4.251v-.334h-1.208V7.765h.918c1.336 0 2.335-.238 2.979-.698.644-.477.966-1.239.966-2.303zm-2.222.429c0 .968-.194 1.62-.548 1.921-.257.207-.757.318-1.449.318h-.644V2.334h.773c.789 0 1.32.16 1.562.477.193.238.306.667.306 1.286v1.096zm9.999 6.892v-.334h-.757l-2.962-9.877h-.854l-2.464 8.146c-.177.588-.289.921-.289.937-.21.524-.596.794-1.111.794v.334h2.898v-.334c-.386-.047-.644-.095-.741-.127a.636.636 0 0 1-.402-.429c-.016-.063-.049-.158-.049-.27v-.174a.892.892 0 0 1 .049-.175l.161-.778.193-.651h2.673l.821 2.604h-1.03v.334h3.864zm-3.703-3.287h-2.545l1.273-4.193 1.272 4.193zm13.864 3.287v-.334h-1.063V2.334h1.063v-.349h-3.929v.35h.885V6.59h-2.978V2.334h.901v-.349h-3.929v.35h1.063v9.416h-1.063v.334h3.929v-.334h-.901V6.924h2.978v4.827h-.885v.334h3.929z" fill="#E31E24"/></symbol><symbol viewBox="0 0 16 16" id="modal-close"><path fill-rule="evenodd" clip-rule="evenodd" d="M15.211 13.446L9.908 8.143l5.303-5.304a1.25 1.25 0 0 0-1.767-1.767L8.14 6.375 2.837 1.072a1.25 1.25 0 1 0-1.768 1.767l5.304 5.304-5.304 5.303a1.25 1.25 0 1 0 1.768 1.768L8.14 9.91l5.304 5.304a1.25 1.25 0 1 0 1.767-1.768z"/></symbol><symbol viewBox="0 0 45 45" id="view"><path d="M44.61 42.705L33.674 31.77a19.107 19.107 0 0 0 4.71-12.582C38.383 8.601 29.77 0 19.192 0 8.602 0 0 8.61 0 19.187c0 10.577 8.613 19.188 19.192 19.188 4.81 0 9.211-1.776 12.584-4.71l10.939 10.936c.26.26.608.399.948.399a1.349 1.349 0 0 0 .948-2.295zM2.686 19.187c0-9.1 7.405-16.493 16.497-16.493 9.101 0 16.497 7.404 16.497 16.493 0 9.09-7.396 16.504-16.497 16.504-9.092 0-16.497-7.404-16.497-16.504z"/></symbol><symbol viewBox="0 0 32 32" id="vk"><path fill-rule="evenodd" clip-rule="evenodd" d="M16 29c7.18 0 13-5.82 13-13S23.18 3 16 3 3 8.82 3 16s5.82 13 13 13zm7.906-8.4l.004.01c.02.046.041.124.06.24a.67.67 0 0 1-.003.304c-.022.091-.097.173-.221.248a.714.714 0 0 1-.234.087 1.46 1.46 0 0 1-.288.026l-2.274.034a.97.97 0 0 1-.497-.043 2.128 2.128 0 0 1-.463-.198l-.177-.107a4.163 4.163 0 0 1-.622-.573c-.24-.257-.442-.486-.61-.693a2.924 2.924 0 0 0-.54-.52c-.193-.138-.358-.185-.5-.138l-.025.009a.367.367 0 0 0-.047.022.642.642 0 0 0-.153.129 1.27 1.27 0 0 0-.19.263 1.69 1.69 0 0 0-.152.464 2.814 2.814 0 0 0-.059.693c0 .09-.01.172-.031.247a.49.49 0 0 1-.065.166l-.034.044c-.106.113-.262.179-.47.198h-1.02A3.982 3.982 0 0 1 14 21.364a4.963 4.963 0 0 1-1.166-.473 11.146 11.146 0 0 1-.915-.592c-.273-.2-.481-.37-.624-.514l-.221-.217c-.06-.06-.143-.15-.246-.27a22.44 22.44 0 0 1-.634-.814c-.32-.423-.634-.875-.942-1.351a26.09 26.09 0 0 1-1.088-1.887A26.477 26.477 0 0 1 7.01 12.8a1.03 1.03 0 0 1-.039-.124.515.515 0 0 1-.014-.117.29.29 0 0 1 .027-.145l.035-.053c.09-.113.257-.17.507-.17l2.43-.018c.072.013.14.031.206.06.066.025.115.05.143.075l.043.028c.097.066.168.16.215.285.118.301.252.608.407.928.153.32.274.564.364.73l.143.26a9.837 9.837 0 0 0 .498.931c.079.13.153.244.224.344.073.105.143.196.208.27.124.148.249.261.367.346a.8.8 0 0 0 .173.098.35.35 0 0 0 .128.027.688.688 0 0 0 .24-.044.132.132 0 0 0 .043-.044 2.73 2.73 0 0 0 .106-.197 1.41 1.41 0 0 0 .12-.42c.026-.173.054-.414.085-.724.012-.134.02-.197.02-.261.003-.086-.004-.17-.02-.42a4.412 4.412 0 0 0-.08-.652 1.792 1.792 0 0 0-.125-.41l-.053-.107c-.15-.204-.4-.332-.755-.385-.078-.013-.063-.085.043-.217.1-.116.211-.203.336-.27.314-.156 1.02-.228 2.12-.215.486.006.883.043 1.198.116.061.016.118.035.17.057.046.02.09.04.128.065a.517.517 0 0 1 .183.216c.04.091.072.188.093.285.022.1.032.235.032.408 0 .172-.004.338-.01.492-.003.066-.005.061-.008.056-.004-.008-.008-.016-.014.135a22.41 22.41 0 0 0-.012.74c0 .066-.003.191-.01.376l-.002.096c-.002.14-.003.251 0 .334.003.103.012.222.03.363.02.138.053.254.103.348.05.094.115.166.2.22.05.009.099.021.152.034.052.013.13-.019.23-.097a2.827 2.827 0 0 0 .545-.551c.077-.1.161-.218.253-.355.184-.273.386-.593.604-.962a14.49 14.49 0 0 0 .951-2.013.587.587 0 0 1 .087-.157.375.375 0 0 1 .097-.094l.034-.028.043-.022.116-.028a.452.452 0 0 1 .143-.011.151.151 0 0 1 .034.008l2.555-.019c.23-.031.42-.022.57.022.146.044.239.094.273.147l.053.088c.137.38-.308 1.257-1.33 2.63-.144.191-.337.445-.58.762-.46.595-.727.987-.798 1.172-.1.245-.06.486.124.724.1.126.339.37.718.734h.01l.019.018.018.02c.834.78 1.4 1.441 1.694 1.977.018.03.035.064.055.104z"/><path fill-rule="evenodd" clip-rule="evenodd" d="M32 16c0 8.837-7.164 16-16 16S0 24.837 0 16 7.164 0 16 0s16 7.163 16 16zm-1 0c0 8.284-6.716 15-15 15-8.284 0-15-6.716-15-15C1 7.716 7.716 1 16 1c8.284 0 15 6.716 15 15z"/></symbol></svg>