<svg version="1" xmlns="http://www.w3.org/2000/svg" width="933.333" height="933.333" viewBox="0 0 700.000000 700.000000"><path d="M633 56.2c-15.3 2.1-40.4 13-59.1 25.4-25.4 16.9-47.8 40.1-80.6 83.4-37.8 50-63.9 93.3-101.4 168.3-9.9 19.6-18.3 35.7-18.8 35.7-.8 0-8.3-2.9-8.9-3.5-.2-.1 2.5-10.3 5.8-22.6 3.4-12.3 10.6-40.2 16-62 13.8-55.3 18.8-71.6 27.8-89.9 3.6-7.3 6.2-11.1 11.3-16.2 7.2-7.2 6.2-6.8 22.4-8.4l7-.7-4.5-.9c-16.5-3.2-79 11.3-121.8 28.3-57 22.7-111 64-147.8 112.9-6.2 8.2-12.3 17.2-14.9 21.7-.1.2-3.6 1.2-7.9 2.3-45.8 11.7-100.1 67-125.1 127.3-19.4 46.9-24.2 86-14.9 120.2 7.6 27.6 22.9 45.5 43.5 51 7.1 1.9 22.1 1.9 31.7-.1 26-5.3 55.3-20.8 80.2-42.4l6.5-5.7 6 2.4c24.8 9.7 52.9 6.4 87-10.2 32.1-15.6 56.3-36.5 75.9-65.5 9.6-14.2 24.7-46.9 24.6-53.3-.1-2.1-.1-2.1-1.4.3-.8 1.4-3.7 8.2-6.6 15.2-18.7 45.6-48.7 78.1-92 99.7-33.5 16.6-57.3 19.9-83.3 11.5l-7.7-2.6 7.2-8c33.9-37.2 56.5-80.2 109.8-208.2 14-33.8 19.8-47.2 29.5-69.1 5.1-11.5.6-3.8-12 20.4-6.9 13.4-20.7 41.7-30.7 63-45 96.1-60.7 127-80.4 157.8-10.7 16.6-28.3 39.3-30.5 39.3-2.7 0-22.7-21.8-24.6-26.8-.3-.7 3.5-5.4 8.4-10.5 18-18.7 31.9-38.6 43.9-63 12.4-25.4 18.2-45.4 19.1-66.9 1.2-27.8-5.4-50.4-18.8-64.3-6.3-6.6-12.1-10-21.3-12.5l-5.9-1.6 8.3-11c12.2-16 23.7-29.2 39-44.4 40.4-40.3 80.9-65 138.8-85.1 16.2-5.6 41.2-13 42.1-12.4.4.2 1.6 2.2 2.6 4.5l1.8 4-12.8 12.2c-7 6.7-16.2 16.5-20.4 21.7-9.7 12-21.5 29.1-20.2 29.1.5 0 1.3-.5 1.6-1 1.1-1.7 6.4-1.1 8.5 1 2.9 2.9 3.4 6.1 2.7 18.9-.6 12.5-4.8 38.1-15.1 93.6-3.6 19.2-8.1 45.3-10.1 58-3.5 21.9-3.9 23.5-8.7 34-12.4 27.1-16.5 39.1-15.4 44.9.6 2.9 1 3.3 2.9 2.9 3.7-.9 5.5-3.2 8.6-10.8 3.1-7.3 9-28.2 11.1-39 1.7-8.8 40.5-88 73.8-150.5 28.1-52.8 53.6-93.1 87.4-138.3 6.5-8.6 12.1-15.7 12.5-15.7.5 0 2.4 1.3 8.2 5.6.1.2-2.1 4.2-5.1 9.1-13.1 21.3-34.6 63.7-47.8 94.3-32.1 74.3-55.5 153.5-51.9 175.9.9 5.9 4.2 11.1 6.9 11.1 3.9 0 8.1-9.9 10.5-24.7.9-5.4 2-10.7 2.5-11.8.5-1.1 2.1-6.9 3.5-12.9 8.3-35.3 31-103.9 51.5-155.1 24.6-61.6 50.8-112.6 70.8-137.5 13.7-17.1 27.9-27 49.2-34.3 19.3-6.6 34.1-5.6 55.2 3.7 8.5 3.7 3.3-4.1-5.5-8.2-8.2-3.9-17.3-4.8-29.7-3zm-476.6 289c-20.9 41.7-28.9 74.3-30.1 122.1-.8 31.7.3 37.4 13.2 66.7l4.6 10.5-6.3 5.8c-13 12-28.1 20.8-41.3 24.2-7.6 1.9-17 1.9-22.5 0-5.1-1.8-6.2-1.3-2.5 1.1 5.9 3.9 20.5 3.8 32.3-.2 10.3-3.5 22.5-10.8 35.4-21.1 3.7-2.9 6.9-5.3 7.2-5.3.2 0 2.8 3.2 5.6 7 2.9 3.9 8.6 10.2 12.8 14l7.7 6.9-3.5 3.7c-5.6 5.8-20.8 18.3-28.2 23-22 14.1-46 22.4-64.8 22.4-16.5 0-25.8-3.7-36.7-14.6-5.7-5.7-8.1-9.2-11.7-16.6-6.1-12.6-7.6-19-8.3-34.6-1.2-26.9 5.4-55.1 22.4-95.2 17.5-41.5 37.2-71.9 64.3-99.1 12.7-12.8 22.8-20.7 33.5-26.2 6.7-3.4 21.3-9.5 23.2-9.6.7-.1-2.2 6.7-6.3 15.1zm32.3-10.8c7.7 3.6 11.6 7 16.8 14.5 15.5 22.6 15.3 58.4-.5 98.1-9.1 22.7-18.5 40.5-32.5 61.5-9.4 14-23.1 31-25 30.8-3.1-.2-11.4-26.4-13.6-43-1.8-14-.6-48.6 2.4-65.8 6.3-35.6 18.8-69.8 35.1-95.4 2.8-4.3 2.8-4.3 7.4-3.7 2.5.3 6.9 1.7 9.9 3z"/><path d="M131.5 357.7c-23.9 17.6-51.7 52.8-69.3 87.8-10.5 21.1-23.7 55.9-28 74.5-4.6 19.6-5.7 41.9-2.7 54.5 3.6 14.5 13 29.9 21.4 34.8l3.1 1.8-3.5-5.8c-15.4-25.3-12.7-63 8-115.8 15.8-40.2 36.7-74.6 61.2-100.5 5.1-5.5 8.5-9.9 9.3-12.5.7-2.2 3.3-8.7 5.6-14.4 2.4-5.8 4.2-10.6 4.1-10.8-.2-.1-4.3 2.8-9.2 6.4zM136 570.3c-10.1 7.1-26 14.9-34.9 17.2-6.6 1.7-21.4 2.2-26.5.9-2.6-.6-2.7-.5-1.7 1.4.6 1.2 2.7 3.3 4.6 4.7 11.5 8.9 36.6 6.8 57.2-4.7 8.8-4.8 20.5-12.8 20.1-13.7-.2-.5-2.6-3.3-5.3-6.3l-5-5.4-8.5 5.9zM176.7 347.2c-17.9 30.8-29.2 69-32.8 110.3-1.6 18.9.4 43 4.6 57.3 1.6 5.3 1.7 5.3 3.6 3.6 1.1-1 2.8-3.2 3.9-5 1.9-3 1.9-3.9.9-16.2-3.6-41.1 9.7-99.1 31.2-136.8 3.6-6.3 4.6-7.3 6.3-6.8 3.2 1-4-6.3-8.6-8.7-5.3-2.7-6.3-2.4-9.1 2.3zM683 63.6c.6 1.4.9 4.6.7 7.1-.4 4-.8 4.7-4.6 7-5.2 3.1-7.2 2.8-21.1-2.8-12.4-5-20.2-5.8-31.8-3.5-14.1 2.9-34.1 12.5-42.5 20.5-30.4 28.6-72.2 115.4-110 228.1-11 32.7-20.5 65.8-25.2 88-6.7 31.6-10.7 39.8-20.8 42.4l-4.7 1.2 3.4 4c4.1 4.8 9.3 6.7 14.9 5.4 4.6-1 7.1-3.1 10.3-8.5 3.5-6.1 4.9-10.5 9.4-31.6 19-88.6 74.4-230.9 112.7-289.4 16.8-25.6 29.8-37.1 51.4-45.4 17.5-6.8 30.5-6.8 46.7-.3 11.8 4.8 16.6 5.3 21.4 1.9 3.5-2.3 4.2-4.9 3.2-11.5-.6-3.8-7-11.4-11.6-13.8C682 61 682 61 683 63.6zM467 167.6c0 3.4-2.5 7-5.8 8.3-1.5.6-7.3 1.2-13 1.5-9.1.3-10.6.7-13.6 2.9-8.4 6.5-16.6 24-26 56.2-3.7 12.6-19.5 76.5-18.9 76.5.1 0 2.9-5.3 6.2-11.8 3.2-6.4 9.3-18 13.5-25.7 6.3-11.4 8.6-17 12.6-30 9.1-30 15.9-45 23.4-52.4 4.2-4.1 4.8-4.4 11.3-4.9l6.8-.5 6.4-8.9c6.9-9.9 7-10.8.3-12.7-3-.9-3.2-.8-3.2 1.5zM370 195.4c-56.2 19.3-93.8 41.2-131.5 76.5-18.3 17.1-46.3 49-43.8 49.8.7.3 4 2.2 7.4 4.4l6.1 4 1.6-2.3c4.6-6.5 21.2-24.9 33.6-37.3 33.5-33.4 68.7-56.9 109.1-73 8.3-3.3 12.6-5.5 14-7.4 1-1.4 4.4-5.3 7.5-8.6 6.4-7 9.5-10.5 8.9-10.4-.2 0-6 2-12.9 4.3zM461.8 237.7c-24.5 39.4-51.7 90.3-89.3 167.2-17.8 36.4-19.9 41.4-22.1 51-3.3 14.9-7.9 30.1-11.4 37.9-2.2 4.9-2.5 6-1 4.2 3.6-4.6 13.6-24.5 18.5-36.8 5.3-13.3 9-18.7 13.4-19.7 2.6-.6 5-4.9 31.9-58.8 19.6-39.3 30.4-62.1 33.2-70.2 8.3-23.9 27.1-70 34.1-83.6 4.3-8.6.9-4.4-7.3 8.8zM348.7 275.7c-8.6 16.8-20 42.4-32.4 72.3-4.6 11.3-9 21.8-9.8 23.5-.7 1.6-3.3 8-5.8 14-36.7 89.5-65.8 145.8-92.5 178.9-3.5 4.3-6 8.1-5.7 8.5.4.3 4.9.8 10 .9l9.3.4 4.2-5.4c24.1-30.3 51.1-84.6 94.5-189.3 8.4-20.4 18.7-44.7 22.8-54 6.9-15.8 7.6-18.1 10.1-32.4 2.6-15.3 4.4-32.1 3.4-32.1-.3 0-4 6.6-8.1 14.7zM214 336.5c0 .3 1.1 2.1 2.4 3.8 4 5.3 9.4 17.1 12 25.9 7.2 24.9 5.7 53.5-4.1 82.8-10.6 31.3-30.6 65-52.8 89-8.6 9.3-8.4 8.3-3 14.5 2.5 3 5 5.5 5.5 5.5 1.2 0 13.4-16.5 21.5-29 19.3-29.9 45.6-80.8 48-93.1 2.2-10.9 3-29.9 1.6-40.1-2.7-20.5-10.3-39.4-20.1-50.1-5-5.5-11-10.5-11-9.2z"/><path d="M383.2 457.7c-2.5 12.2-14.4 37.9-25.2 54.3-20.1 30.5-45.8 52.9-80 69.9-21.9 10.8-39 15.8-58 16.8-11.9.6-23.1-.7-32.1-3.7l-6.1-2.1-3.2 2.6c-18.3 14.9-28.5 21.6-46.1 30.2-32.5 15.9-60.9 19.4-83 10.3l-7-2.9 4.3 3.9c5.7 5.1 11.9 8.6 21.2 11.7 6.5 2.2 9.2 2.6 20.5 2.6 10.7 0 14.8-.4 23.7-2.6 25.4-6.3 53.2-20.7 74.6-38.8l7.4-6.1 7.1 2.1c30.7 9 66.3 1.5 106.6-22.4 22.9-13.7 45.6-35.1 60.8-57.5 11.8-17.3 23.7-42.1 26.9-56 2.4-10.2-.3-16.4-7.8-17.6l-3.4-.6-1.2 5.9z"/><path d="M331.6 505c-2.3 2.4-5.1 4.2-7.1 4.6-3.2.6-3.3.7-2.3 3.5.5 1.6 1.4 2.9 1.8 2.9.5 0 3-2.8 5.6-6.3 2.6-3.4 5.2-6.8 5.7-7.5 1.9-2.4.1-1.1-3.7 2.8z"/></svg>