<svg width="200" height="60" viewBox="0 0 200 60" fill="none" xmlns="http://www.w3.org/2000/svg">
<path d="M188.053 24.487C189.228 23.5184 190.275 22.772 191.209 22.248C191.241 22.2321 191.257 22.2162 191.289 22.2003C191.434 22.1209 191.579 22.0415 191.724 21.9621C191.901 21.8827 192.11 21.8033 192.32 21.7239C193.286 21.4063 194.365 21.2952 195.588 21.3904C196.861 21.5175 197.794 22.6132 197.682 23.8677C197.617 24.4553 197.344 24.9793 196.941 25.3446C195.379 26.7738 193.93 28.1395 192.593 29.4416C193.479 29.3146 194.22 29.5528 194.848 30.1721C194.912 30.2197 194.993 30.3309 195.105 30.4579C195.556 31.0614 195.717 31.7284 195.588 32.4588C195.492 32.9988 195.218 33.4752 194.816 33.888C194.767 33.9357 194.719 33.9833 194.655 34.031C194.622 34.0627 194.574 34.1104 194.526 34.1421C194.349 34.3009 194.188 34.4597 194.043 34.5868C193.946 34.682 193.721 34.8726 193.382 35.1902C192.159 36.2542 190.758 37.4293 189.131 38.6838C186.072 41.0499 183.721 42.2727 182.095 42.3362C181.998 42.3521 181.837 42.3521 181.628 42.3521V42.368C180.452 42.368 179.486 42.0186 178.729 41.3358C177.972 40.6371 177.554 39.716 177.457 38.5409C177.441 38.3821 177.441 38.2233 177.441 38.0804C177.441 37.9057 177.457 37.731 177.489 37.5722C177.538 37.334 177.602 37.0799 177.667 36.81C177.763 36.4765 177.86 36.1748 177.989 35.873L178.005 35.8254C177.747 35.8095 177.489 35.7778 177.264 35.7301C177.087 35.9207 176.942 36.0636 176.829 36.1748C175.493 37.604 173.899 39.4619 172.063 41.7487C171.564 42.3839 170.791 42.6856 170.034 42.6062C168.537 42.5268 167.651 41.6534 167.377 39.9701C167.264 39.4937 167.232 39.0491 167.264 38.6044C167.313 38.1121 167.458 37.6357 167.683 37.1752L167.699 37.1435C167.828 36.9053 167.957 36.6512 168.102 36.413C167.248 37.1276 166.331 37.8581 165.348 38.6203L165.332 38.6362C164.962 38.922 164.559 39.2237 164.157 39.5255C163.835 39.7478 163.48 40.0019 163.062 40.2718C161.001 41.6534 159.326 42.3203 158.07 42.2886C158.054 42.2886 158.022 42.2886 158.006 42.2886C156.798 42.2251 155.816 41.8439 155.075 41.177C154.785 40.907 154.527 40.6053 154.334 40.2877C153.771 40.6529 153.239 40.9705 152.756 41.2246C151.404 41.9392 150.244 42.2886 149.246 42.2886C148.054 42.2886 147.072 41.971 146.315 41.3358C145.462 40.6212 145.027 39.6366 145.027 38.4139H145.043C145.043 37.4611 145.253 36.4765 145.639 35.5078C145.768 35.1902 145.913 34.8567 146.074 34.5391L146.025 34.5868C145.929 34.682 145.703 34.8726 145.349 35.1902C144.141 36.2542 142.724 37.4293 141.114 38.6838C140.019 39.5255 139.005 40.2242 138.103 40.78C139.359 40.9864 140.535 41.2564 141.613 41.5581H141.63C141.678 41.574 141.726 41.5899 141.774 41.6057C142.145 41.7169 142.483 41.8281 142.821 41.9392C143.191 42.0663 143.578 42.2092 143.948 42.368C145.881 43.1461 147.442 44.1148 148.634 45.1629L148.65 45.1788C148.859 45.3852 149.101 45.6075 149.343 45.8775C149.568 46.1316 149.777 46.3698 149.954 46.608C151.001 47.9736 151.532 49.4664 151.5 50.9591C151.388 57.9304 144.914 60.1219 136.396 59.9948C123.997 59.7884 106.848 54.548 102.243 53.1505C100.424 53.8493 98.5397 54.7703 96.6879 55.6755C91.2614 58.3433 86.1087 60.8682 81.1331 58.6927C80.9237 58.5974 80.7466 58.4862 80.5856 58.3592C80.1508 58.0257 79.8771 57.6287 79.7161 57.2158C79.4262 56.4536 79.5228 55.739 79.9576 55.1038V55.0879C80.2797 54.6274 80.7144 54.3098 81.2619 54.151C81.4712 54.0875 81.6806 54.0398 81.8899 54.0398C82.228 54.0239 82.5984 54.0716 82.9526 54.1669C82.9687 54.1669 82.9848 54.1827 83.0009 54.1827C85.8994 55.1038 89.1842 53.4681 93.2581 51.4355C93.7251 51.2132 94.2082 50.9591 94.7073 50.7209C92.9522 50.1969 91.0682 49.6093 89.2003 49.0217C89.152 49.0694 89.1037 49.1011 89.0715 49.1329C89.0232 49.1647 88.991 49.1964 88.9588 49.2123C88.4113 49.6252 87.9444 49.9587 87.5579 50.2445C87.0265 50.6256 86.4952 50.975 85.996 51.2926C83.2908 53.0553 80.5534 54.4845 77.7999 55.5643C77.3329 55.739 76.7532 55.9454 76.0769 56.1519C75.449 56.3583 74.7082 56.5648 73.8709 56.7712C69.4428 57.8828 63.3239 58.5339 60.5221 55.7708C60.0068 55.2467 59.5882 54.7068 59.25 54.1192C58.3161 52.4518 58.1712 50.6415 58.6542 48.8947C59.089 47.3067 60.0551 45.7822 61.3916 44.4642C62.245 43.6225 63.2434 42.8762 64.3706 42.2409C66.0613 41.1452 68.1385 40.5418 70.4089 40.2718C69.797 39.3508 69.5394 38.2392 69.6521 36.9211C69.6521 36.8417 69.6682 36.7782 69.6843 36.6988C69.7165 36.3336 69.797 35.9683 69.8775 35.6031C69.9742 35.2061 70.1191 34.7932 70.2801 34.3644C70.4894 33.8404 70.7471 33.3005 71.053 32.7606L70.8759 32.967C68.9758 35.2061 67.4461 37.1435 66.3028 38.8109H66.3189L66.3028 38.8267C66.1096 39.1126 65.9164 39.3667 65.7392 39.6366C65.6104 39.7954 65.4333 40.0336 65.1757 40.3353C63.8875 41.9233 62.6315 42.6856 61.4238 42.6062H61.3916C60.345 42.5427 59.5399 42.0663 58.9924 41.177C58.6381 40.6053 58.461 39.8907 58.461 39.0808C58.461 38.6521 58.5093 38.2233 58.622 37.7787C58.7186 37.4134 58.8636 37.0164 59.0568 36.6035C59.1695 36.3494 59.3305 36.0477 59.5237 35.6984C59.6848 35.3966 59.878 35.079 60.0873 34.7614C61.1179 33.1576 62.6959 31.109 64.8536 28.6C64.8697 28.5841 64.9019 28.5523 64.918 28.5206C65.8037 27.5201 66.6893 26.5356 67.5749 25.5828C66.7859 26.2021 66.1579 26.6944 65.6587 27.0914C62.1162 29.918 58.4449 32.9352 54.6608 36.1271C55.16 36.2065 55.627 36.4606 56.0779 36.9053L56.094 36.9211C56.6897 37.4769 56.9474 38.1757 56.8508 39.0014C56.8025 39.4143 56.6736 39.8272 56.4321 40.2242C56.255 40.5259 55.9812 40.8911 55.6109 41.304C55.5948 41.3199 55.5787 41.3358 55.5626 41.3517C52.6158 44.4642 49.3149 46.7985 45.6918 48.323C42.0688 49.8634 38.1399 50.5939 33.8888 50.5145C31.2964 50.4668 29.0098 50.0539 27.0453 49.2599C25.4995 48.6406 24.1308 47.799 22.9715 46.735C21.8443 47.0685 20.701 47.3543 19.5578 47.5608C17.9314 47.8466 16.3373 47.9895 14.8076 47.9895C10.2184 47.9895 6.77251 46.9573 4.46988 44.877C2.03843 42.7015 1.02398 39.5572 1.37823 35.476C1.37823 35.4602 1.37823 35.4443 1.37823 35.4125C1.45874 34.6344 1.58756 33.8086 1.78079 32.9829C1.95792 32.1412 2.21555 31.3314 2.5054 30.5056C4.03512 26.4085 6.99795 22.375 11.41 18.4209C11.4261 18.405 11.4261 18.405 11.4422 18.3891C11.7964 18.0715 12.199 17.7221 12.666 17.341C13.1168 16.9758 13.5516 16.6423 14.0025 16.3088C16.3051 14.5938 18.8493 13.1487 21.635 11.9736C23.5672 11.1478 25.4512 10.5444 27.2869 10.1156C29.1709 9.70272 30.9743 9.4804 32.7134 9.4804C33.2931 9.4804 33.9049 9.52804 34.5168 9.60744C34.7262 9.6392 34.9355 9.67096 35.1448 9.70272C35.3542 9.5598 35.5796 9.41688 35.7889 9.28984C36.3042 8.97224 36.8356 8.65464 37.383 8.35292C40.1365 6.79667 43.1638 5.51039 46.4648 4.49406C48.864 3.73182 51.3277 3.16014 53.8557 2.77902C56.3677 2.38202 58.8636 2.19146 61.3272 2.19146V2.20734C65.8681 2.20734 70.7149 2.81078 75.8676 4.01766C75.9159 4.01766 75.9642 4.03354 76.0125 4.04942C76.2219 4.09706 76.4795 4.16058 76.7532 4.2241C77.027 4.3035 77.3007 4.3829 77.5745 4.4623C79.072 4.87519 80.1991 5.35159 80.9882 5.89151C81.0204 5.90739 81.0687 5.93915 81.1009 5.97091C81.3263 6.12971 81.5034 6.28851 81.6645 6.44731H81.6806C82.0348 6.79667 82.2763 7.17779 82.4213 7.59067C82.534 7.92416 82.5823 8.22588 82.5823 8.54348C84.8688 7.25719 87.1876 6.05031 89.5224 4.95459C91.9216 3.81122 94.2565 2.96958 96.5269 2.3979C98.8617 1.82622 101.132 1.54037 103.354 1.54037C105.866 1.54037 107.976 1.87386 109.683 2.54082C111.615 3.28718 113.032 4.4623 113.934 6.06619H113.95C114.127 6.38379 114.256 6.70139 114.352 7.00311C114.545 7.60655 114.562 8.16236 114.433 8.70228C114.223 9.46452 113.773 10.0362 113.064 10.4332C112.903 10.5126 112.726 10.592 112.533 10.6555C111.905 10.862 111.293 10.8143 110.665 10.4808C110.504 10.4014 110.343 10.2903 110.182 10.1632V10.1474V10.1632C109.892 9.90916 109.457 9.46452 108.893 8.78168C108.893 8.7658 108.877 8.74992 108.861 8.74992C108.33 8.11472 107.654 7.63831 106.848 7.32071C105.915 6.93959 104.82 6.76491 103.515 6.76491C103.161 6.76491 102.71 6.78079 102.163 6.82843C101.712 6.87607 102.195 6.81255 101.921 6.84431C101.599 6.87607 101.18 6.92371 100.681 7.00311L100.585 7.03487C100.488 7.05075 100.617 7.01899 100.359 7.09839C99.9406 7.24131 99.5702 7.38423 99.2321 7.52715C99.1838 7.55891 99.1516 7.57479 99.1033 7.59067C96.704 8.6864 93.7734 10.6873 90.2953 13.5775C86.6884 16.5629 82.5018 20.5329 77.7355 25.4557C77.349 25.8686 76.9626 26.2815 76.5761 26.6785C77.0109 26.3291 77.4456 25.9957 77.8804 25.6781C79.0237 24.8523 80.1991 24.09 81.4551 23.3913V23.3754C81.5034 23.3596 81.5517 23.3278 81.6 23.3119C82.1636 22.9943 82.7272 22.7085 83.2747 22.4544C83.8866 22.1686 84.4502 21.9304 84.9493 21.7398C86.1248 21.311 87.1715 21.1046 88.0893 21.1046C89.1842 21.1046 90.1021 21.4063 90.8106 21.978C91.6479 22.6767 92.0666 23.5978 92.0666 24.7729C92.0666 25.821 91.664 26.8691 90.8589 27.9013C90.408 28.4888 89.8122 29.0605 89.0715 29.6481C89.2648 29.7751 89.458 29.9339 89.619 30.1245C89.6351 30.1403 89.6673 30.188 89.7156 30.2356L89.7317 30.2515C89.8927 30.4579 90.0216 30.6803 90.1182 30.9185C90.1665 31.0296 90.1987 31.1249 90.2148 31.2202C90.2631 31.379 90.2792 31.5537 90.2953 31.7125C90.3436 32.57 90.0055 33.3481 89.2809 34.0627L89.2648 34.0786C89.6351 33.9833 90.0699 33.9357 90.5529 33.9357C90.9716 33.888 91.4225 33.8563 91.9055 33.8722C92.2437 33.888 92.5657 33.9039 92.8878 33.9357C93.5319 33.7134 94.2243 33.364 94.9811 32.9194C94.7879 32.9511 94.6107 32.967 94.4175 32.967C93.9827 32.967 93.5641 32.8717 93.1615 32.6812C93.0166 32.6018 92.8878 32.5224 92.7751 32.4271H92.759C91.9055 31.7919 91.5352 30.9185 91.6801 29.8227C91.7606 29.2669 91.986 28.6953 92.3886 28.0759C92.5174 27.8695 92.6462 27.6789 92.7751 27.5201C93.1776 26.9802 93.6929 26.4244 94.3048 25.8686C94.8523 25.3446 95.5125 24.8205 96.2532 24.2647L96.2693 24.2488C97.5736 23.296 98.7973 22.5814 99.9406 22.105C101.229 21.5651 102.436 21.311 103.58 21.3269C106.961 21.4063 108.668 23.0896 108.749 26.4244V26.4403C108.749 26.8373 108.732 27.2025 108.7 27.5519C108.668 27.7266 108.652 27.9171 108.62 28.0918C108.636 28.0759 108.668 28.0442 108.684 28.0283C108.893 27.8219 109.135 27.5995 109.425 27.3296C109.779 26.9961 110.085 26.7261 110.327 26.5356C111.872 25.2175 113.563 24.09 115.415 23.1372C116.671 22.4703 117.83 21.978 118.861 21.6445C120.036 21.2952 121.115 21.1046 122.114 21.1046V21.1205C123.321 21.1205 124.32 21.4063 125.076 21.9939C126.01 22.7244 126.477 23.7089 126.477 24.9793H126.493C126.493 27.5043 124.593 30.6644 120.809 34.4756V34.4915C115.544 39.716 111.357 42.3362 108.266 42.3362C105.126 42.3362 103.564 40.7323 103.564 37.5405C103.564 36.6194 103.725 35.6666 104.063 34.7138C103.596 35.079 103.113 35.4284 102.597 35.7619C100.794 36.9529 98.8295 37.8581 96.7201 38.4456C96.7362 38.6679 96.7523 38.8903 96.7523 39.1285C96.7523 39.1443 96.7362 39.1602 96.7362 39.1761C96.7684 40.2401 96.2854 41.4469 95.3192 42.7809C95.0616 43.1461 94.7395 43.5431 94.3853 43.956C96.4786 44.623 98.3787 45.3058 100.069 45.9251C101.261 46.3539 102.34 46.735 103.258 47.0367C106.687 45.7822 109.94 44.623 112.855 43.686C115.495 42.8285 117.911 42.1139 119.988 41.6375C119.682 41.2246 119.457 40.6688 119.344 39.9701C119.247 39.4937 119.215 39.0491 119.247 38.6044C119.296 38.1121 119.424 37.6357 119.65 37.1752L119.682 37.1435C120.407 35.746 121.421 34.2533 122.693 32.6176C123.933 31.0296 125.447 29.3146 127.218 27.4725C127.234 27.4566 127.25 27.4407 127.25 27.4249C129.343 25.2969 131.163 23.7248 132.725 22.6926C132.773 22.6608 132.822 22.6291 132.886 22.5973C133.047 22.502 133.192 22.4068 133.353 22.3274C133.53 22.248 133.755 22.1527 134.013 22.0574C135.076 21.6445 136.348 21.4381 137.845 21.4381C139.118 21.4381 140.148 22.4703 140.148 23.7248C140.148 23.9948 140.116 24.2488 140.019 24.487C141.195 23.5184 142.258 22.772 143.191 22.248C143.208 22.2321 143.24 22.2162 143.256 22.2003C143.417 22.1209 143.562 22.0415 143.707 21.9621C143.884 21.8827 144.077 21.8033 144.303 21.7239C145.253 21.4063 146.348 21.2952 147.555 21.3904C148.827 21.5175 149.761 22.6132 149.648 23.8677C149.6 24.4553 149.326 24.9793 148.908 25.3446H148.924C147.346 26.7738 145.897 28.1395 144.56 29.4416C145.446 29.3146 146.203 29.5528 146.831 30.1721C146.879 30.2197 146.976 30.3309 147.072 30.4579C147.459 30.9661 147.636 31.506 147.603 32.0777C150.518 28.1077 155.461 24.1377 158.215 22.5814C158.923 22.2003 159.68 21.9145 160.518 21.7557C161.307 21.5969 162.128 21.5651 162.997 21.6286C164.237 21.7398 165.155 22.7561 165.139 23.9471C166.121 23.2325 167.023 22.645 167.78 22.2003C168.408 21.8351 169.1 21.581 169.873 21.4381C170.582 21.2952 171.338 21.2634 172.176 21.3428C173.448 21.454 174.382 22.5656 174.269 23.8201C174.221 24.4076 173.947 24.9158 173.528 25.2969C171.982 26.7103 170.501 28.0601 169.148 29.3305C169.841 29.2987 170.485 29.5528 171.048 30.1086H171.065V30.1245C171.435 30.4897 171.676 30.8867 171.773 31.2996C172.788 30.0927 173.947 28.8064 175.251 27.4725C175.251 27.4566 175.267 27.4407 175.283 27.4249C177.361 25.2969 179.18 23.7248 180.742 22.6926C180.806 22.6608 180.855 22.6291 180.903 22.5973C181.064 22.502 181.225 22.4068 181.386 22.3274C181.563 22.248 181.773 22.1527 182.046 22.0574C183.109 21.6445 184.381 21.4381 185.863 21.4381C187.151 21.4381 188.181 22.4703 188.181 23.7248C188.181 23.9948 188.133 24.2488 188.053 24.487ZM129.923 40.3353C129.649 39.8272 129.488 39.2237 129.424 38.5409C129.408 38.3821 129.408 38.2233 129.408 38.0804C129.408 37.9057 129.424 37.731 129.472 37.5722C129.504 37.334 129.569 37.0799 129.649 36.81C129.73 36.4765 129.843 36.1748 129.955 35.873L129.988 35.8254C129.714 35.8095 129.472 35.7778 129.231 35.7301C129.054 35.9207 128.909 36.0636 128.812 36.1748C127.669 37.3975 126.332 38.9379 124.819 40.7959C125.962 40.6371 127.025 40.5259 128.023 40.4465C128.667 40.3989 129.311 40.3671 129.923 40.3353ZM80.5534 40.6688C82.8238 41.0182 85.0137 41.4787 86.8494 41.9233C87.7511 41.0817 88.5079 40.3512 89.1037 39.7001C88.9749 39.6684 88.8461 39.6366 88.7173 39.6049C88.2503 39.4302 87.8639 39.192 87.5579 38.8585C87.1715 38.4297 86.9621 37.9375 86.8977 37.3658C86.8816 37.2387 86.8816 37.1435 86.8816 37.0958C86.8816 36.9211 86.9138 36.6035 87.0104 36.1906C87.0265 36.1112 87.0426 36.0477 87.0587 35.9842C85.5451 37.2387 84.0476 38.3821 82.5823 39.4143C82.534 39.4461 82.4857 39.4619 82.4374 39.4937C82.067 39.7478 81.6967 39.986 81.3424 40.2083C81.0848 40.3671 80.811 40.5259 80.5534 40.6688ZM43.5341 43.3843C43.4858 43.3367 43.4536 43.289 43.4053 43.2573C43.3248 43.1461 43.2443 43.0508 43.1799 42.9397C42.8739 42.495 42.729 42.0027 42.729 41.4311C42.729 40.7165 42.9383 39.986 43.3731 39.2555C43.6791 38.7156 44.1299 38.1598 44.7096 37.5563C45.1122 37.1435 45.6918 36.5876 46.4487 35.9048C47.1572 35.2696 47.9301 34.6026 48.7835 33.888C49.9107 32.1412 51.1183 30.2833 52.4387 28.2824C53.8235 26.2021 55.5626 23.6136 57.6237 20.5488C57.6398 20.5329 57.6398 20.517 57.6559 20.4853L57.7686 20.3424C55.6914 22.0415 53.6303 23.8677 51.5531 25.8527C48.0911 29.1717 45.0155 32.0142 42.3104 34.3962C39.5408 36.8259 37.1093 38.8267 34.9838 40.3989C34.9677 40.4147 34.9516 40.4306 34.9355 40.4465C34.5329 40.7482 34.0982 41.0658 33.6634 41.3675C33.1964 41.701 32.7456 42.0027 32.3269 42.2886C31.232 43.0032 30.1209 43.6384 29.0259 44.2101C29.1064 44.2577 29.187 44.2895 29.2675 44.3212C30.5718 44.8294 32.1337 45.0994 33.9694 45.1311C37.4152 45.1946 40.6196 44.6071 43.5341 43.3843ZM78.9593 10.6555C78.7338 10.5761 78.4601 10.4491 78.138 10.2744H78.1219C78.1058 10.2585 78.0897 10.2426 78.0575 10.2426C78.0414 10.2268 78.0092 10.2109 77.9448 10.1791C77.7355 10.0997 77.4456 10.0044 77.0914 9.90916C76.8499 9.9568 76.6083 10.0362 76.399 10.1315C76.0447 10.3062 75.6905 10.5285 75.3523 10.8143C75.304 10.8461 75.2718 10.8778 75.2396 10.9096C74.6116 11.4336 73.887 12.1165 73.0819 12.974C72.2124 13.8792 71.2946 14.9431 70.2801 16.1818L69.8131 16.7852C72.5344 14.8002 75.2718 12.9423 78.0575 11.2113C78.3474 11.0208 78.6533 10.8461 78.9593 10.6555ZM65.7715 8.16236C64.3061 8.08296 62.8247 8.03532 61.3272 8.03532C59.4593 8.03532 57.5432 8.19412 55.5787 8.51172C53.5659 8.8452 51.4887 9.33748 49.3471 10.0044C49.3149 10.0203 49.2988 10.0203 49.2666 10.0362C47.3182 10.6555 45.4664 11.3701 43.6952 12.1641C42.8256 12.5611 41.9561 12.974 41.1027 13.4187C42.1654 15.0067 42.6485 16.944 42.5197 19.2308C42.3748 22.0256 41.5213 24.7094 39.9594 27.2819C39.4763 28.0601 38.945 28.8382 38.3331 29.6163C40.5713 27.7266 43.0994 25.5351 45.8851 23.0737C45.9334 23.0261 45.9817 22.9943 46.0139 22.9626C48.8801 20.4376 51.6175 18.1509 54.21 16.1183C56.883 14.0062 59.4754 12.1165 61.9713 10.4332L61.9874 10.4173C62.0357 10.3856 62.0679 10.3697 62.1001 10.3538C62.4866 10.0997 62.8891 9.82976 63.3239 9.5598C63.8392 9.2422 64.29 8.97224 64.6765 8.74992C65.0468 8.54348 65.4011 8.35292 65.7715 8.16236ZM37.061 18.9926C37.1415 18.0239 37.0449 17.2457 36.7551 16.6582C36.6906 16.5153 36.6101 16.3882 36.5135 16.2612C35.0965 17.2934 33.7761 18.4526 32.5523 19.7389C30.926 21.4222 29.4446 23.3278 28.1242 25.4557L28.1081 25.4716C27.8022 25.9798 27.4801 26.5356 27.142 27.139C26.8038 27.7583 26.5301 28.2824 26.3207 28.727C25.5961 30.2515 25.0648 31.7125 24.7588 33.0782C26.3207 32.1571 27.931 31.0296 29.5734 29.6957V29.6798C32.0371 27.7107 33.8888 25.7892 35.1448 23.9312C36.3042 22.2321 36.9483 20.5806 37.061 19.0084V18.9926ZM27.9954 15.753C26.9648 16.1024 25.9021 16.547 24.791 17.1028C23.2774 17.8492 21.7799 18.7226 20.3146 19.723C18.8332 20.7076 17.4323 21.8192 16.0636 23.0102V23.0261C16.0314 23.0578 15.983 23.0896 15.9347 23.1372C15.1618 23.8201 14.405 24.5188 13.6804 25.2334C12.9397 25.9639 12.2634 26.6626 11.6676 27.3296C8.67259 30.6644 7.06236 33.5863 6.83692 36.0954C6.64369 38.2709 7.09456 39.8431 8.18952 40.8117C9.4294 41.8916 11.5549 42.4315 14.5821 42.4315C15.7415 42.4315 16.917 42.3045 18.1247 42.0504C18.6238 41.9392 19.1391 41.8122 19.6544 41.6534C19.6061 41.5263 19.5739 41.4152 19.5256 41.2881C19.2196 41.3517 18.9137 41.4152 18.6238 41.4628C17.5772 41.6534 16.5627 41.7328 15.5805 41.7328V41.7487C13.4711 41.7487 11.6354 41.2564 10.1057 40.2877C10.0735 40.2559 10.0574 40.2401 10.0252 40.2242C9.4455 39.8589 8.99463 39.4143 8.65649 38.922C8.20562 38.2709 7.98019 37.5722 7.98019 36.8259C7.98019 36.3336 8.10901 35.8889 8.36664 35.476C8.68869 34.952 9.13956 34.5868 9.75144 34.3803C10.5083 34.1421 11.2329 34.2374 11.9092 34.682C12.2473 34.8885 12.5371 35.1902 12.7626 35.5713H12.7787L12.8914 35.7619C13.0846 35.9048 13.3423 36.016 13.6643 36.1112C14.1796 36.27 14.8398 36.3494 15.6449 36.3494C16.3212 36.3494 17.0297 36.27 17.7382 36.1112C18.0925 36.0318 18.4306 35.9366 18.801 35.8254V35.3808C18.8171 34.555 18.8493 33.6816 18.8815 32.7447C18.9298 31.5219 19.3162 30.0292 20.0086 28.2824C20.6527 26.6785 21.5867 24.8205 22.7943 22.7085L22.8104 22.6926H22.7943C24.1147 20.4218 25.6767 18.3097 27.4479 16.3406C27.625 16.1341 27.8022 15.9436 27.9954 15.753ZM82.9526 32.5065C82.1153 32.7129 81.3907 32.8082 80.7466 32.8082C80.6983 32.8082 80.6661 32.8082 80.6178 32.8082C80.3924 33.0146 80.183 33.2211 79.9898 33.4275C79.5712 33.8404 79.1686 34.2533 78.766 34.6979C78.2186 35.3014 77.7516 35.8413 77.3973 36.3177C77.8482 36.0954 78.3313 35.8254 78.8465 35.4919C79.0559 35.3649 79.3457 35.1743 79.7161 34.9361C80.022 34.7297 80.3119 34.5232 80.6017 34.3327C81.3585 33.7769 82.1475 33.1734 82.9526 32.5065ZM81.1653 46.7191C79.394 46.3062 77.5101 45.941 75.6422 45.7504C72.3895 45.3852 69.2496 45.5122 67.2207 46.7032C66.1901 47.3226 65.2884 48.4342 64.8214 49.5934C64.596 50.1333 64.4994 50.6415 64.5477 51.0703C64.5799 51.3085 64.6765 51.5149 64.8536 51.6578C65.1918 51.9595 65.8198 52.1501 66.802 52.1977C67.3978 52.2295 67.9936 52.2136 68.5894 52.166C69.1529 52.1183 69.797 52.0072 70.4894 51.8643C73.6938 51.1655 77.2524 49.4505 81.1653 46.7191ZM111.583 49.6411C118.539 51.6261 129.36 54.3257 137.362 54.4686C142.225 54.548 145.881 53.7222 146.138 51.1338C146.025 50.705 145.832 50.308 145.558 49.9428C145.22 49.4664 144.753 49.0376 144.206 48.6247C140.776 46.1792 134.255 45.417 127.894 45.9728C121.904 46.4968 116.011 48.1642 111.583 49.6411Z" fill="#E31E24"/>
<path d="M186.748 22.9467C187.923 21.9939 188.97 21.2475 189.904 20.7076C189.92 20.6917 189.952 20.6917 189.968 20.6758C190.129 20.5805 190.274 20.5011 190.419 20.4376C190.596 20.3582 190.789 20.2788 191.015 20.1994C191.965 19.8659 193.06 19.7548 194.268 19.8659C195.54 19.9771 196.49 21.0887 196.361 22.3432C196.313 22.9308 196.039 23.439 195.636 23.8201C194.058 25.2493 192.609 26.615 191.289 27.9012C192.158 27.7742 192.915 28.0124 193.543 28.6317C193.607 28.6953 193.688 28.7905 193.785 28.9335C194.251 29.5369 194.412 30.2039 194.268 30.9343C194.171 31.4743 193.913 31.9507 193.495 32.3477C193.446 32.3953 193.398 32.4429 193.35 32.4906C193.301 32.5382 193.269 32.57 193.221 32.6017C193.044 32.7764 192.883 32.9193 192.738 33.0623C192.641 33.1575 192.416 33.3481 192.062 33.6498C190.854 34.7297 189.437 35.8889 187.827 37.1434C184.767 39.5254 182.416 40.7482 180.79 40.8117C180.677 40.8117 180.532 40.8276 180.307 40.8276C179.131 40.8276 178.165 40.4782 177.425 39.7954C176.668 39.1126 176.233 38.1756 176.136 37.0164C176.136 36.8417 176.12 36.6988 176.12 36.5559C176.12 36.3812 176.152 36.2065 176.185 36.0318C176.233 35.7936 176.281 35.5396 176.362 35.2855C176.442 34.952 176.555 34.6344 176.684 34.3327L176.7 34.285C176.442 34.2691 176.185 34.2374 175.943 34.2056C175.766 34.3803 175.637 34.5391 175.524 34.6503C174.188 36.0795 172.594 37.9374 170.758 40.2242C170.243 40.8435 169.47 41.1452 168.729 41.0817C167.216 41.0023 166.33 40.1289 166.056 38.4456C165.96 37.9692 165.927 37.5087 165.96 37.0799C166.008 36.5876 166.137 36.1112 166.378 35.6507L166.394 35.6031C166.523 35.3649 166.652 35.1267 166.797 34.8726C165.944 35.5872 165.026 36.3336 164.044 37.0958L164.011 37.1117C163.641 37.3975 163.254 37.6834 162.836 37.9851C162.53 38.2233 162.16 38.4774 161.757 38.7473C159.68 40.1289 158.021 40.7958 156.749 40.7482C156.733 40.7482 156.717 40.7482 156.701 40.7482C155.493 40.6847 154.511 40.3194 153.77 39.6525C153.464 39.3825 153.223 39.0808 153.03 38.7473C152.466 39.1126 151.935 39.4302 151.451 39.6842C150.099 40.3988 148.923 40.7641 147.925 40.7641C146.733 40.7641 145.767 40.4465 145.011 39.8113C144.157 39.0808 143.722 38.1121 143.722 36.8894H143.738C143.738 35.9207 143.948 34.952 144.334 33.9674C144.463 33.6498 144.608 33.3322 144.769 33.0146L144.705 33.0623C144.608 33.1575 144.399 33.3481 144.044 33.6498C142.821 34.7297 141.42 35.8889 139.793 37.1434C138.698 38.001 137.7 38.6997 136.782 39.2555C138.054 39.4619 139.214 39.716 140.293 40.0336H140.309H140.325C140.357 40.0495 140.405 40.0654 140.454 40.0812C140.824 40.1924 141.178 40.3036 141.5 40.4147C141.887 40.5418 142.273 40.6847 142.627 40.8276C144.576 41.6216 146.138 42.5744 147.313 43.6384L147.345 43.6543C147.555 43.8448 147.78 44.083 148.038 44.353C148.263 44.5912 148.473 44.8294 148.65 45.0676C149.696 46.4491 150.212 47.9419 150.195 49.4346C150.067 56.4059 143.594 58.5974 135.092 58.4545C122.693 58.248 105.528 53.0235 100.938 51.626C99.1189 52.3248 97.2349 53.2458 95.3832 54.151C89.9406 56.8029 84.8039 59.3279 79.8122 57.1523C79.619 57.0729 79.4258 56.9617 79.2647 56.8188C78.8461 56.5012 78.5562 56.1042 78.4113 55.6913C78.1054 54.9291 78.2181 54.2145 78.6367 53.5793L78.6528 53.5634H78.6367C78.9588 53.087 79.4097 52.7853 79.941 52.6106C80.1504 52.5471 80.3758 52.5153 80.5851 52.5153C80.9233 52.4994 81.2936 52.5312 81.6479 52.6424C81.664 52.6424 81.6801 52.6424 81.6801 52.6582V52.6424C84.5946 53.5793 87.8795 51.9436 91.9534 49.911C92.4203 49.6728 92.9034 49.4346 93.3865 49.1964C91.6474 48.6565 89.7473 48.0848 87.8956 47.4972C87.8473 47.529 87.799 47.5766 87.7507 47.6084C87.7185 47.6402 87.6862 47.656 87.654 47.6878C87.1066 48.0848 86.6396 48.4342 86.2531 48.7041C85.7057 49.0852 85.1904 49.4346 84.6912 49.7681C81.986 51.5308 79.2486 52.96 76.479 54.0398C76.0282 54.2145 75.4485 54.4209 74.7722 54.6274C74.1281 54.8179 73.3874 55.0403 72.5662 55.2467C68.1219 56.3424 62.0191 57.0094 59.2173 54.2463C58.7021 53.7222 58.2673 53.1664 57.9452 52.5788C56.9952 50.9114 56.8503 49.117 57.3334 47.3543C57.7681 45.7822 58.7343 44.2577 60.0869 42.9238C60.9242 42.098 61.9386 41.3358 63.0658 40.7006C64.7565 39.6207 66.8337 39.0173 69.1042 38.7314C68.4923 37.8263 68.2346 36.7147 68.3473 35.3966C68.3473 35.3172 68.3635 35.2378 68.3635 35.1743C68.4118 34.8091 68.4762 34.4438 68.5728 34.0786C68.6694 33.6657 68.7982 33.2528 68.9753 32.8399C69.1847 32.3 69.4423 31.776 69.7483 31.2361L69.5711 31.4425C67.6549 33.6657 66.1413 35.619 64.9981 37.2864V37.3022C64.8048 37.5722 64.6116 37.8422 64.4184 38.0962C64.3057 38.2709 64.1124 38.4932 63.8709 38.8108C62.5827 40.3988 61.3267 41.1611 60.103 41.0817H60.0869C59.0241 41.0023 58.2351 40.5259 57.6876 39.6525C57.3173 39.0649 57.1401 38.3662 57.1401 37.5404C57.1401 37.1276 57.2045 36.6988 57.3173 36.2542C57.4139 35.873 57.5588 35.4919 57.752 35.0632H57.7359C57.8647 34.8091 58.0097 34.5073 58.2029 34.1739C58.38 33.8721 58.5732 33.5545 58.7665 33.2369C59.797 31.6172 61.3911 29.5687 63.5328 27.0755C63.565 27.0437 63.5811 27.012 63.6133 26.9961C64.4989 25.9798 65.3684 25.0111 66.254 24.0583C65.4811 24.6617 64.8531 25.1699 64.354 25.5669C60.8115 28.3935 57.1401 31.4107 53.3561 34.6026C53.8392 34.6661 54.3222 34.9361 54.7731 35.3808L54.7892 35.3966C55.385 35.9524 55.6265 36.6512 55.546 37.4769C55.4977 37.8898 55.3528 38.2868 55.1273 38.6838C54.9502 39.0014 54.6765 39.3666 54.29 39.7795C54.29 39.7954 54.2739 39.7954 54.2578 39.8113C51.295 42.9397 48.0101 45.2581 44.371 46.7985C40.748 48.323 36.819 49.0535 32.5841 48.9741C29.9916 48.9423 27.7051 48.5136 25.7245 47.7354C24.1787 47.1161 22.8261 46.2745 21.6667 45.2105C20.5234 45.544 19.3963 45.8139 18.253 46.0204C16.6106 46.3221 15.0325 46.465 13.5028 46.465C8.89755 46.465 5.45165 45.4169 3.14901 43.3525C0.733665 41.1611 -0.296884 38.0327 0.0734694 33.9515C0.0734694 33.9198 0.0734694 33.9039 0.0734694 33.888C0.137879 33.094 0.2828 32.2841 0.459925 31.4425C0.653153 30.6167 0.894688 29.791 1.20063 28.9811C2.73035 24.8682 5.69318 20.8505 10.1052 16.8805C10.1052 16.8805 10.1213 16.8646 10.1374 16.8646C10.4917 16.547 10.8942 16.1818 11.3612 15.8006C11.796 15.4513 12.2468 15.1019 12.6816 14.7684C14.9842 13.0693 17.5445 11.6242 20.3141 10.4491C22.2625 9.62331 24.1465 9.00399 25.966 8.59111C27.85 8.16235 29.6535 7.95591 31.3925 7.95591C31.9883 7.95591 32.5841 7.98767 33.2121 8.08295C33.4214 8.09883 33.6146 8.13059 33.824 8.17823C34.0494 8.03531 34.2748 7.89238 34.4842 7.74946C34.9994 7.43186 35.5308 7.11426 36.0622 6.81254C38.8318 5.27218 41.859 3.98589 45.1439 2.96957C47.5592 2.20733 50.0229 1.63565 52.5349 1.23864C55.0629 0.857523 57.5427 0.666962 60.0224 0.666962C64.5633 0.666962 69.4101 1.2704 74.5628 2.47729C74.6112 2.49317 74.6595 2.49317 74.6917 2.50905C74.9171 2.57257 75.1586 2.62021 75.4485 2.69961C75.7222 2.76313 75.996 2.84253 76.2697 2.92193C77.7511 3.35069 78.8944 3.82709 79.6673 4.35113C79.7156 4.38289 79.7478 4.41465 79.7961 4.44641C80.0054 4.60521 80.1987 4.76402 80.3597 4.90694V4.92282V4.90694C80.7139 5.2563 80.9716 5.6533 81.1165 6.06618C81.2292 6.38378 81.2775 6.70138 81.2614 7.0031C83.5641 5.71682 85.8828 4.52581 88.2015 3.41421C90.6008 2.28673 92.9356 1.4292 95.2221 0.873403C97.5409 0.285841 99.8274 0 102.05 0C104.561 0 106.671 0.333481 108.378 1.00044C110.31 1.76269 111.727 2.93781 112.629 4.52581V4.54169C112.806 4.8593 112.951 5.16102 113.047 5.46274C113.225 6.06618 113.257 6.63786 113.112 7.1619C112.919 7.94003 112.468 8.51171 111.743 8.89283C111.598 8.98811 111.421 9.05163 111.228 9.11515C110.6 9.33747 109.972 9.27395 109.36 8.95635C109.199 8.87695 109.038 8.76579 108.877 8.62287H108.861C108.571 8.38467 108.152 7.92415 107.589 7.25718C107.573 7.2413 107.573 7.22542 107.557 7.20954C107.009 6.57434 106.333 6.09794 105.528 5.78034C104.61 5.4151 103.499 5.22454 102.211 5.22454V5.24042V5.22454C101.856 5.22454 101.405 5.2563 100.858 5.30394C100.407 5.3357 100.89 5.28806 100.616 5.31982C100.294 5.35158 99.8757 5.39922 99.3604 5.47862L99.2799 5.4945C99.1672 5.52626 99.3121 5.4945 99.0545 5.5739C98.6358 5.70094 98.2655 5.84386 97.9273 6.00266C97.879 6.01854 97.8307 6.03442 97.7824 6.06618C95.3993 7.1619 92.4686 9.14691 88.9744 12.0371C85.3675 15.0384 81.197 18.9925 76.4307 23.9312C76.0282 24.3441 75.6417 24.7411 75.2714 25.154C75.69 24.8046 76.1248 24.4712 76.5756 24.1377C77.7028 23.3119 78.8944 22.5497 80.1504 21.8509C80.1987 21.8192 80.247 21.8033 80.2792 21.7715C80.8589 21.4698 81.4063 21.184 81.9699 20.914C82.5657 20.6282 83.1293 20.39 83.6446 20.2153C84.82 19.7865 85.8667 19.5801 86.7684 19.5801C87.8795 19.5801 88.7812 19.8659 89.5058 20.4535C90.3431 21.1363 90.7618 22.0733 90.7618 23.2325C90.7618 24.2965 90.3592 25.3446 89.5541 26.3768C89.0872 26.9484 88.4914 27.536 87.7507 28.1236C87.96 28.2506 88.1371 28.4094 88.3142 28.6C88.3303 28.6159 88.3625 28.6476 88.4109 28.7111V28.727H88.427C88.588 28.9335 88.7168 29.1558 88.8134 29.394C88.8456 29.4893 88.8778 29.5845 88.91 29.6957C88.9422 29.8545 88.9744 30.0133 88.9905 30.188C89.0388 31.0296 88.7007 31.8077 87.9761 32.5223L87.96 32.5382C88.3303 32.4588 88.7651 32.4112 89.2482 32.4112C89.6668 32.3477 90.1177 32.3318 90.5847 32.3477C90.9228 32.3477 91.261 32.3794 91.583 32.4112C92.2271 32.173 92.9195 31.8395 93.6602 31.379C93.4831 31.4266 93.2899 31.4425 93.1127 31.4425C92.678 31.4425 92.2593 31.3472 91.8568 31.1408C91.7118 31.0773 91.583 30.9979 91.4542 30.9026C90.5847 30.2515 90.2304 29.3781 90.3753 28.2982C90.4558 27.7424 90.6813 27.1549 91.0677 26.5514C91.2127 26.3291 91.3415 26.1544 91.4542 25.9956C91.8729 25.4557 92.3881 24.8999 93 24.3282C93.5475 23.8201 94.1916 23.2802 94.9484 22.7244H94.9645C96.2527 21.7715 97.4765 21.0569 98.6197 20.5647C99.9079 20.0406 101.132 19.7707 102.275 19.8024C105.64 19.8659 107.363 21.5651 107.428 24.884V24.8999V24.9158C107.444 25.3128 107.428 25.678 107.379 26.0115C107.363 26.2021 107.331 26.3768 107.299 26.5673C107.331 26.5356 107.347 26.5197 107.379 26.5038C107.589 26.2974 107.83 26.0592 108.12 25.7892C108.474 25.4716 108.78 25.2016 109.006 24.9952C110.568 23.693 112.258 22.5656 114.094 21.6127C115.366 20.9458 116.509 20.4535 117.556 20.12C118.715 19.7548 119.81 19.5801 120.793 19.5801C122.016 19.5801 122.999 19.8818 123.772 20.4694C124.706 21.184 125.172 22.1844 125.172 23.4548C125.172 25.9639 123.289 29.1399 119.504 32.9511H119.488C114.223 38.1915 110.052 40.8117 106.961 40.8117C103.821 40.8117 102.243 39.2078 102.243 36.0001C102.243 35.079 102.42 34.1421 102.742 33.1734C102.291 33.5387 101.792 33.888 101.293 34.2215C99.4732 35.4284 97.5087 36.3177 95.3993 36.9052C95.4154 37.1276 95.4315 37.3658 95.4315 37.604C95.4315 37.6198 95.4315 37.6357 95.4315 37.6516C95.4476 38.6997 94.9806 39.9066 94.0145 41.2564C93.7407 41.6216 93.4348 42.0186 93.0805 42.4315C95.1577 43.0985 97.0739 43.7813 98.7647 44.3847C99.9562 44.8135 101.035 45.2105 101.953 45.4963C105.367 44.2577 108.635 43.0985 111.55 42.1457C114.191 41.2881 116.59 40.5894 118.683 40.113C118.361 39.6842 118.152 39.1443 118.039 38.4456C117.926 37.9692 117.894 37.5087 117.943 37.0799C117.975 36.5876 118.12 36.1112 118.345 35.6507L118.361 35.6031C119.102 34.2215 120.1 32.7129 121.372 31.0931C122.628 29.4893 124.126 27.7742 125.913 25.9321C125.913 25.9162 125.929 25.9162 125.945 25.9004C128.023 23.7724 129.842 22.1844 131.404 21.1681C131.468 21.1363 131.517 21.1046 131.565 21.0728C131.726 20.9617 131.887 20.8823 132.048 20.8029C132.225 20.7076 132.435 20.6123 132.708 20.517C133.771 20.12 135.043 19.9136 136.541 19.9136C137.813 19.9136 138.843 20.9299 138.843 22.2003C138.843 22.4544 138.795 22.7085 138.715 22.9467C139.89 21.9939 140.937 21.2475 141.871 20.7076C141.903 20.6917 141.919 20.6917 141.951 20.6758C142.096 20.5805 142.241 20.5011 142.386 20.4376C142.563 20.3582 142.772 20.2788 142.982 20.1994C143.948 19.8659 145.027 19.7548 146.25 19.8659C147.523 19.9771 148.456 21.0887 148.344 22.3432C148.295 22.9308 148.006 23.439 147.603 23.8201C146.041 25.2493 144.592 26.615 143.255 27.9012C144.141 27.7742 144.882 28.0124 145.51 28.6317C145.574 28.6953 145.655 28.7905 145.767 28.9335C146.138 29.4257 146.315 29.9657 146.299 30.5532C149.213 26.5673 154.157 22.6132 156.91 21.0569C157.603 20.6599 158.375 20.39 159.213 20.2312C159.986 20.0724 160.823 20.0406 161.693 20.1041C162.916 20.1994 163.85 21.2316 163.818 22.4226C164.816 21.6921 165.718 21.1046 166.475 20.6599C167.103 20.3106 167.795 20.0406 168.568 19.8977C169.261 19.7707 170.034 19.7389 170.871 19.8183C172.143 19.9295 173.077 21.0411 172.964 22.2956C172.9 22.8832 172.626 23.3913 172.223 23.7566C170.678 25.1699 169.196 26.5197 167.828 27.7901C168.536 27.7583 169.18 28.0283 169.744 28.5841L169.76 28.6C170.13 28.9652 170.356 29.3463 170.468 29.7751C171.483 28.5682 172.642 27.2819 173.93 25.9321C173.946 25.9162 173.963 25.9162 173.979 25.9004C176.056 23.7724 177.875 22.1844 179.437 21.1681C179.486 21.1363 179.55 21.1046 179.598 21.0728C179.759 20.9617 179.92 20.8823 180.065 20.8029C180.242 20.7076 180.468 20.6123 180.726 20.517C181.788 20.12 183.076 19.9136 184.558 19.9136C185.83 19.9136 186.877 20.9299 186.877 22.2003C186.877 22.4544 186.828 22.7085 186.748 22.9467ZM128.618 38.8108C128.345 38.2868 128.168 37.6992 128.119 37.0164C128.103 36.8417 128.103 36.6988 128.103 36.5559C128.103 36.3812 128.119 36.2065 128.151 36.0318C128.2 35.7936 128.264 35.5396 128.329 35.2855C128.425 34.952 128.522 34.6344 128.651 34.3327L128.667 34.285C128.409 34.2691 128.168 34.2374 127.926 34.2056C127.749 34.3803 127.604 34.5391 127.491 34.6503C126.348 35.873 125.028 37.4134 123.498 39.2714C124.641 39.1126 125.704 39.0014 126.702 38.922C127.362 38.8744 127.99 38.8267 128.618 38.8108ZM79.2325 39.1443C81.5191 39.4937 83.6929 39.9542 85.5446 40.383C86.4464 39.5572 87.1871 38.8108 87.799 38.1756C87.654 38.1439 87.5252 38.1121 87.3964 38.0645C86.9455 37.9057 86.5591 37.6516 86.2531 37.3181C85.8667 36.9052 85.6413 36.413 85.5929 35.8254C85.5768 35.6984 85.5607 35.619 85.5607 35.5713C85.5607 35.3808 85.609 35.079 85.6896 34.6503C85.7057 34.5867 85.7218 34.5232 85.7379 34.4438C84.2403 35.7142 82.7428 36.8576 81.2614 37.8739C81.2292 37.9057 81.1809 37.9374 81.1326 37.9692C80.7461 38.2233 80.3919 38.4615 80.0376 38.6679C79.7639 38.8426 79.5063 38.9855 79.2325 39.1443ZM42.2294 41.8598C42.1811 41.8122 42.1328 41.7645 42.1006 41.7169C42.0039 41.6216 41.9395 41.5263 41.859 41.4152C41.5692 40.9705 41.4082 40.4624 41.4082 39.9066C41.4082 39.192 41.6336 38.4615 42.0522 37.7151C42.3582 37.1911 42.8091 36.6194 43.3887 36.016C43.7913 35.6031 44.371 35.0632 45.1439 34.3644C45.8524 33.7451 46.6253 33.0623 47.4787 32.3477C48.5898 30.6167 49.8136 28.7429 51.134 26.7579C52.5188 24.6617 54.2417 22.0891 56.3189 19.0084C56.3189 18.9925 56.335 18.9767 56.3511 18.9608L56.4477 18.8179C54.3866 20.5011 52.3094 22.3432 50.2483 24.3282C46.7863 27.6313 43.7108 30.4897 40.9895 32.8558C38.236 35.2855 35.7884 37.3022 33.679 38.8744C33.6629 38.8902 33.6468 38.9061 33.6307 38.9061C33.2121 39.2237 32.7934 39.5254 32.3425 39.843C31.8917 40.1765 31.4408 40.4782 31.006 40.7482C29.9111 41.4628 28.8161 42.1139 27.7212 42.6856C27.8017 42.7173 27.8661 42.7491 27.9466 42.7809C29.2509 43.289 30.8289 43.559 32.6485 43.5907C36.1105 43.6543 39.2987 43.0826 42.2294 41.8598ZM77.6384 9.13103C77.413 9.03575 77.1553 8.90871 76.8333 8.74991L76.8172 8.73403C76.785 8.71815 76.7689 8.71815 76.7528 8.70227C76.7367 8.70227 76.6884 8.68639 76.64 8.65463C76.4307 8.57523 76.1409 8.47995 75.7705 8.36879C75.529 8.43231 75.3036 8.51171 75.0942 8.60699C74.7239 8.76579 74.3857 9.00399 74.0315 9.28983C73.9993 9.32159 73.9671 9.35335 73.9188 9.36923C73.2908 9.89327 72.5662 10.592 71.761 11.4336C70.9076 12.3388 69.9737 13.4186 68.9753 14.6414L68.5084 15.2448C71.2136 13.2598 73.9671 11.4019 76.7367 9.68683C77.0426 9.49627 77.3486 9.30571 77.6384 9.13103ZM64.4506 6.63786C62.9853 6.54258 61.5039 6.49494 60.0224 6.49494C58.1546 6.49494 56.2223 6.66962 54.2578 6.98722C52.2611 7.3207 50.1839 7.81298 48.0423 8.47995C48.0101 8.47995 47.9779 8.49583 47.9457 8.49583C46.0134 9.13103 44.1617 9.82975 42.3904 10.6238C41.5048 11.0208 40.6352 11.4495 39.7979 11.8942C40.8607 13.4663 41.3276 15.4036 41.2149 17.7063C41.0539 20.5011 40.2005 23.169 38.6547 25.7416C38.1716 26.5356 37.6241 27.3137 37.0122 28.0759C39.2665 26.1862 41.7785 24.0106 44.5803 21.5333C44.6125 21.5016 44.6608 21.4539 44.7091 21.4222C47.5753 18.8973 50.2966 16.6105 52.8891 14.5779C55.5782 12.4658 58.1707 10.5761 60.6665 8.90871L60.6826 8.89283C60.7148 8.86107 60.7471 8.84519 60.7954 8.81343C61.1818 8.55935 61.5844 8.30527 62.0191 8.03531C62.5344 7.7177 62.9853 7.44774 63.3717 7.22542C63.726 7.01898 64.0963 6.82842 64.4506 6.63786ZM35.7562 17.4681C35.8367 16.4994 35.724 15.7212 35.4503 15.1337C35.3698 14.9908 35.2893 14.8637 35.2088 14.7367C33.7918 15.7689 32.4714 16.9281 31.2315 18.1985C29.6051 19.8977 28.1398 21.8033 26.8194 23.9312L26.8033 23.9471C26.4813 24.4553 26.1753 25.0111 25.8372 25.5986C25.499 26.2338 25.2253 26.7579 25.016 27.1866C24.2753 28.727 23.76 30.1721 23.438 31.5537C25.016 30.6167 26.6101 29.4893 28.2525 28.1553H28.2687C30.7162 26.1703 32.568 24.2647 33.8401 22.4068C34.9994 20.6917 35.6435 19.0561 35.7562 17.4839V17.4681ZM26.6745 14.2126C25.6601 14.5779 24.5973 15.0225 23.4863 15.5624C21.9726 16.3088 20.4751 17.1822 18.9937 18.1827C17.5284 19.1831 16.1114 20.2788 14.7588 21.4857C14.7105 21.5333 14.6622 21.5651 14.63 21.5969C13.841 22.2956 13.1003 22.9943 12.3757 23.693C11.6349 24.4235 10.9586 25.1222 10.3468 25.8051C7.35172 29.1399 5.74149 32.0618 5.53216 34.555C5.33893 36.7464 5.7898 38.3186 6.88476 39.2714C8.10853 40.3512 10.2501 40.907 13.2774 40.907C14.4367 40.907 15.6122 40.7641 16.8199 40.51C17.3191 40.3988 17.8343 40.2718 18.3496 40.1289C18.3013 40.0018 18.253 39.8748 18.2208 39.7478C17.9149 39.8272 17.6089 39.8748 17.3191 39.9383C16.2724 40.113 15.258 40.2083 14.2757 40.2083C12.1502 40.2083 10.3307 39.7319 8.80093 38.7473C8.76873 38.7314 8.73652 38.7156 8.70432 38.6997C8.14074 38.3186 7.68987 37.8898 7.35172 37.3975C6.90086 36.7464 6.67542 36.0477 6.67542 35.3014C6.67542 34.8091 6.80424 34.3644 7.04578 33.9515C7.36783 33.4116 7.83479 33.0464 8.43058 32.8558C9.20349 32.6017 9.9281 32.697 10.6044 33.1417C10.9425 33.364 11.2324 33.6657 11.4578 34.0309L11.5866 34.2215C11.7638 34.3644 12.0214 34.4915 12.3595 34.5867C12.8748 34.7297 13.535 34.8091 14.324 34.8091C15.0164 34.8091 15.7088 34.7297 16.4334 34.5709C16.7716 34.5073 17.1258 34.4121 17.4801 34.3009L17.4962 33.8404C17.5123 33.0305 17.5445 32.1571 17.5767 31.2043C17.625 29.9815 17.9954 28.4888 18.7039 26.7579C19.348 25.1381 20.2819 23.2802 21.4896 21.1681C22.81 18.8973 24.3558 16.7693 26.127 14.8002C26.3203 14.6096 26.4974 14.4191 26.6745 14.2126ZM81.6479 30.9661C80.8106 31.1725 80.0698 31.2837 79.4419 31.2837H79.4258V31.2678C79.3935 31.2678 79.3452 31.2678 79.313 31.2678C79.0876 31.4901 78.8783 31.6966 78.6689 31.8871C78.2664 32.3 77.8477 32.7288 77.4613 33.1734C76.8977 33.7769 76.4468 34.3168 76.0765 34.7773C76.5273 34.555 77.0104 34.285 77.5418 33.9674C77.7511 33.8245 78.041 33.6498 78.3952 33.4116C78.7011 33.2052 78.991 32.9987 79.2808 32.7923C80.0537 32.2524 80.8428 31.6331 81.6479 30.9661ZM79.8605 45.1787C78.0893 44.7659 76.1892 44.4165 74.3374 44.2101C71.0686 43.8607 67.9287 43.9719 65.9159 45.1787C64.8692 45.7822 63.9675 46.8938 63.5006 48.053C63.2912 48.593 63.1946 49.1011 63.2429 49.5299C63.2751 49.784 63.3556 49.9904 63.5328 50.1333C63.887 50.4192 64.515 50.6097 65.4972 50.6732C66.093 50.6891 66.6727 50.6891 67.2685 50.6256C67.8482 50.578 68.4762 50.4827 69.1847 50.3239C72.389 49.6252 75.9476 47.926 79.8605 45.1787ZM110.278 48.1166C117.234 50.0857 128.055 52.8012 136.058 52.9282C140.921 53.0076 144.576 52.1977 144.833 49.5934C144.705 49.1805 144.511 48.7835 144.254 48.4024C143.916 47.9419 143.449 47.4972 142.885 47.1002C139.455 44.6547 132.95 43.8925 126.589 44.4483C120.599 44.9723 114.706 46.6238 110.278 48.1166Z" fill="#FEFEFE"/>
<path d="M176.845 30.2674C176.877 30.3468 176.974 30.4103 177.103 30.4579C177.36 30.5532 177.731 30.585 178.23 30.5532C179.164 30.5056 180.452 30.2356 182.111 29.7433C182.594 29.2352 183.077 28.7588 183.528 28.2982C184.011 27.8218 184.478 27.3613 184.928 26.9326C187.279 24.6935 189.244 23.1214 190.806 22.2321C190.935 22.1527 191.08 22.0733 191.208 22.0256C191.337 21.9621 191.482 21.8986 191.627 21.8509C192.336 21.6127 193.173 21.5333 194.107 21.6286C194.397 21.6445 194.606 21.8986 194.574 22.1844C194.574 22.3115 194.509 22.4226 194.413 22.5179C192.03 24.6935 189.904 26.7261 188.036 28.6C186.184 30.4897 184.574 32.2524 183.238 33.8563V33.8721H183.222C182.996 34.1421 182.787 34.4121 182.594 34.6503C182.417 34.8726 182.239 35.0949 182.062 35.3331V35.349C181.354 36.27 180.983 36.8735 180.919 37.1434C181.128 37.207 181.563 37.064 182.223 36.7147C183.045 36.2859 184.107 35.5554 185.444 34.5232C185.556 34.4121 186.023 34.0151 186.845 33.3163L190.838 29.9657C190.854 29.9339 190.886 29.918 190.919 29.9021L190.951 29.8863C190.999 29.8545 191.063 29.8227 191.096 29.8069L191.128 29.791C191.224 29.7433 191.305 29.7116 191.386 29.6798H191.434C191.772 29.6004 192.046 29.6639 192.271 29.8863C192.722 30.3309 192.658 30.7914 192.078 31.2361C191.418 31.8554 190.645 32.5541 189.759 33.3005C188.857 34.0627 187.843 34.8726 186.716 35.746L186.7 35.7619L186.442 35.9524C186.04 36.2542 185.685 36.54 185.347 36.7782C184.993 37.0164 184.671 37.2546 184.349 37.461C182.739 38.525 181.499 39.049 180.645 39.0332C179.776 39.1126 179.099 38.922 178.632 38.4932L178.6 38.4615C178.149 38.0327 177.924 37.3975 177.924 36.5559C177.924 36.5082 177.924 36.4765 177.924 36.4447C177.956 36.2065 178.021 35.9683 178.085 35.7142C178.165 35.4602 178.246 35.222 178.343 34.9679C178.713 34.0786 179.293 33.1417 180.082 32.173C179.035 32.3953 178.149 32.5223 177.425 32.5382C176.555 32.57 175.879 32.4588 175.412 32.1889L174.993 32.6176C174.72 32.9035 174.446 33.1893 174.204 33.4434C172.803 34.9361 171.193 36.8258 169.341 39.1126C169.245 39.2396 169.084 39.3031 168.939 39.3031V39.319C168.601 39.319 168.311 39.1761 168.118 38.8902C167.957 38.6838 167.86 38.4138 167.812 38.0486V38.0327H167.796C167.779 37.9533 167.779 37.8739 167.763 37.7786C167.747 37.7151 167.747 37.6357 167.747 37.5404C167.731 37.1276 167.796 36.7623 167.973 36.4288L176.845 30.2674ZM167.973 36.4288L167.989 36.3971C168.665 35.1108 169.615 33.6975 170.823 32.173C172.014 30.6326 173.496 28.9493 175.235 27.1549L175.251 27.1231C176.233 26.1227 177.167 25.2334 178.021 24.5029C178.89 23.7407 179.695 23.1214 180.436 22.6291C180.919 22.3115 181.531 22.0733 182.223 21.8986C182.916 21.7557 183.689 21.6763 184.558 21.6763C184.848 21.6763 185.073 21.8986 185.073 22.1844C185.073 22.3591 184.993 22.5179 184.848 22.6132L184.832 22.6291C184.51 22.8514 184.188 23.0737 183.882 23.3278C183.544 23.5819 183.206 23.8518 182.851 24.1536C181.08 25.6622 179.067 27.7107 176.845 30.2674L167.973 36.4288ZM111.067 5.38334C111.18 5.58978 111.26 5.79622 111.325 5.98678C111.405 6.25674 111.421 6.51082 111.373 6.73314C111.309 7.0031 111.131 7.20954 110.89 7.33658H110.874V7.35246H110.858C110.793 7.38422 110.713 7.41598 110.648 7.44774C110.407 7.51126 110.181 7.30482 110.037 7.19366C109.747 6.98722 109.392 6.62198 108.974 6.1297V6.11382C108.764 5.87562 108.539 5.63742 108.297 5.43098C108.072 5.20866 107.814 5.01809 107.557 4.84341C106.172 3.92237 104.385 3.46185 102.211 3.46185C101.277 3.46185 100.214 3.55713 99.0225 3.73181L98.7649 3.79533L98.4912 3.87473V3.89061C98.0242 4.03353 97.5733 4.20821 97.1547 4.39877H97.1386C92.018 6.71726 84.6754 12.8152 75.1267 22.7085C72.4537 25.4875 70.135 28.0283 68.2027 30.2991C66.2704 32.5541 64.6924 34.555 63.5008 36.2859L63.3881 36.4765C63.3398 36.54 62.8567 37.207 62.8567 37.1911C62.7118 37.4134 62.5508 37.6198 62.3736 37.8104C61.5202 38.8426 60.7956 39.3508 60.2159 39.319L60.1676 39.3031H60.1354C60.0227 39.2872 59.91 39.2714 59.8134 39.2237C59.7007 39.192 59.604 39.1284 59.5074 39.0649C59.1371 38.7632 58.9438 38.255 58.9438 37.5404C58.9438 37.2546 58.9761 36.9688 59.0566 36.6829C59.121 36.3971 59.2337 36.0954 59.3786 35.7936C59.7651 34.9679 60.4092 33.9039 61.3431 32.6335C62.2609 31.379 63.4525 29.9021 64.9017 28.2188L64.9178 28.1871C65.2882 27.7583 65.6746 27.3296 66.0772 26.8849C66.528 26.3926 66.9145 25.948 67.2688 25.5669L67.301 25.5351C69.3298 23.3278 71.407 21.2316 73.5004 19.2466L73.5326 19.2149C77.7353 15.2607 81.6642 11.9736 85.3034 9.35335C86.0441 8.82931 86.7526 8.33703 87.4611 7.86062C84.466 9.44863 81.5515 11.1319 78.6853 12.9422C75.0301 15.2607 71.4393 17.7539 67.9612 20.4535C65.1915 22.5973 62.3253 24.884 59.3947 27.266C56.448 29.6798 53.453 32.173 50.4096 34.7614C50.0876 35.2378 49.7333 35.7301 49.3469 36.2224C48.9443 36.7623 48.5256 37.2864 48.0909 37.7945V37.8104L48.0587 37.8422C47.8332 38.0962 47.6239 38.3503 47.4307 38.5885C47.2052 38.8267 47.012 39.049 46.8188 39.2396C45.756 40.3512 44.9187 40.907 44.2907 40.907C44.178 40.907 44.0814 40.8911 43.9687 40.8594L43.9365 40.8435C43.8399 40.8117 43.7593 40.78 43.6627 40.7323V40.7164H43.6466C43.5017 40.6212 43.389 40.51 43.3085 40.3671L43.2924 40.3194C43.2441 40.1924 43.2119 40.0495 43.2119 39.8907C43.2119 39.4937 43.3407 39.049 43.6144 38.5885L43.6305 38.5568C43.711 38.4138 43.8077 38.2868 43.9043 38.1598C44.1136 37.8739 44.3712 37.5563 44.6933 37.2387L44.7094 37.2228C45.0958 36.81 45.6433 36.3018 46.3357 35.6825C47.0442 35.0473 47.8815 34.3327 48.8477 33.5228L49.7333 32.1253L50.78 30.5215C58.4608 18.802 74.0156 -0.857524 48.9926 23.042V23.0578L48.9604 23.0737L48.9443 23.0896C47.9943 23.9948 47.0925 24.8682 46.2069 25.6939C45.3052 26.5356 44.4356 27.3613 43.5822 28.1236C39.2346 32.1253 35.5633 35.2378 32.6004 37.461L32.5682 37.4769C31.0385 38.6362 29.5088 39.6366 27.9952 40.51C26.6909 41.2405 25.4027 41.8757 24.1145 42.3997C25.0001 43.2573 26.0468 43.9401 27.2867 44.4165C28.8003 45.0041 30.5715 45.3217 32.6165 45.3534C36.3684 45.4328 39.8304 44.7976 43.0025 43.4478C46.1747 42.1139 49.1053 40.0177 51.7139 37.2705L51.8588 37.1117L51.8749 37.0958C52.1326 36.8417 52.358 36.667 52.5512 36.5718L52.5834 36.54C52.8733 36.3971 53.1309 36.3812 53.3724 36.5241L53.4046 36.5559H53.4207L53.4368 36.5718C53.7911 36.81 53.8716 37.1593 53.6623 37.6198C53.5496 37.8739 53.308 38.2074 52.9538 38.5885V38.6044L52.825 38.7473H52.8089C52.0359 39.5572 51.2308 40.3036 50.4096 41.0023C49.5723 41.701 48.7189 42.3362 47.8493 42.9238C43.3729 45.8775 38.2846 47.3067 32.6004 47.2114C30.2495 47.1637 28.1723 46.7985 26.401 46.0839C24.7264 45.4169 23.3094 44.4483 22.1661 43.1779C20.733 43.6543 19.3321 44.0354 17.9312 44.2736C16.4337 44.5435 14.9523 44.6865 13.487 44.6865C9.36477 44.6865 6.30532 43.7972 4.35694 42.0345C2.37636 40.2559 1.53903 37.604 1.86108 34.0945V34.0627C2.08651 31.3949 3.00435 28.727 4.58238 26.075C6.36973 23.0737 8.75288 20.4853 11.3293 18.1668C14.115 15.6577 17.3354 13.6251 21.0229 12.0688L21.039 12.053C21.5381 11.8465 22.0373 11.6401 22.5687 11.4495C23.084 11.259 23.5831 11.0843 24.0662 10.9414L24.1145 10.9255C26.6587 10.1156 29.0901 9.71859 31.3928 9.71859H31.425C31.9563 9.71859 32.4716 9.76623 32.9708 9.82975H32.9869L33.2123 9.86151H33.2606C33.5827 9.92503 33.8886 9.98855 34.1785 10.068C34.5971 9.78211 35.0158 9.51215 35.4505 9.24219C35.9336 8.94047 36.4489 8.63875 36.9642 8.35291C39.6049 6.86018 42.5034 5.63742 45.6916 4.65285C48.0426 3.90649 50.4096 3.35069 52.8089 2.98545C55.2081 2.62021 57.6074 2.42965 60.0227 2.42965H60.0388C62.2287 2.42965 64.4991 2.58845 66.8501 2.87429C67.6391 2.96957 68.4281 3.09661 69.2171 3.22365C70.8435 3.47773 72.4859 3.81121 74.1444 4.19233L74.1767 4.20821C75.2072 4.44641 76.1089 4.70049 76.8496 4.95457C77.6064 5.22454 78.2183 5.51038 78.6531 5.8121L78.6692 5.82798C78.8463 5.93914 78.9912 6.06618 79.0879 6.16146C79.2489 6.32026 79.3616 6.47906 79.4099 6.63786C79.5065 6.89194 79.4582 7.11426 79.3133 7.3207L79.2811 7.35246H79.2972L79.265 7.4001L79.2328 7.41598V7.43186C79.1845 7.46362 79.1362 7.49538 79.0879 7.52714H79.0718L79.0557 7.54302C78.9912 7.5589 78.9429 7.59066 78.8624 7.59066C78.798 7.60654 78.7336 7.59066 78.6531 7.59066H78.637L78.6048 7.57478H78.5887C78.3794 7.52714 78.0734 7.4001 77.6709 7.17778C77.4937 7.0825 77.2361 6.98722 76.9301 6.87606C76.6242 6.7649 76.27 6.65374 75.8352 6.54258C75.3038 6.63786 74.8046 6.78078 74.3377 7.0031L74.3055 7.01898C73.7902 7.25718 73.3232 7.5589 72.8563 7.94002H72.8724H72.8563V7.9559C72.663 8.09882 72.4537 8.28939 72.2283 8.47995C72.0028 8.68639 71.7774 8.89283 71.5681 9.09927C70.3926 10.2268 69.04 11.7195 67.5425 13.5774C66.5925 14.8002 65.6585 16.0071 64.7085 17.2299C63.8067 18.405 62.8567 19.6119 61.8745 20.8505C60.9244 22.0574 59.7329 23.5501 58.2675 25.2969C57.9133 25.7098 57.559 26.1386 57.1726 26.5991C61.1982 23.2325 64.3542 20.6599 66.6408 18.8814C70.2799 16.0547 73.9673 13.4822 77.7031 11.1796C81.4066 8.86107 85.1745 6.81254 88.9747 5.00221C93.5317 2.85841 97.8954 1.77856 102.05 1.77856C104.336 1.77856 106.22 2.06441 107.718 2.65197C107.975 2.74725 108.217 2.85841 108.426 2.96957L108.459 2.98545C109.618 3.57301 110.487 4.36701 111.051 5.38334H111.067ZM111.051 5.38334H111.067H111.051ZM78.6692 5.8121V5.82798V5.8121ZM71.8257 5.6533C71.2943 5.5739 70.763 5.4945 70.2316 5.43098C66.7857 4.95457 63.372 4.71637 60.0227 4.71637C56.1098 4.71637 51.9393 5.4151 47.4951 6.78078C45.4501 7.43186 43.5017 8.17822 41.6499 9.01987C40.0236 9.75035 38.4617 10.5444 36.9642 11.4178C37.0447 11.4813 37.1252 11.5607 37.1896 11.6242C37.4633 11.8465 37.7049 12.1006 37.9303 12.3547C39.0253 13.6886 39.5244 15.4513 39.4117 17.611V17.6745C39.3795 18.3732 39.2829 19.0561 39.138 19.7548C38.9931 20.4376 38.7998 21.1205 38.5744 21.7874C37.3506 25.2016 34.8387 28.4253 31.0546 31.4743H31.0385H31.0546H31.0385L31.0224 31.4901C30.6037 31.8236 30.1851 32.1571 29.7503 32.4747C29.3156 32.7923 28.8647 33.094 28.4138 33.3957C26.2239 34.8408 23.8891 36.016 21.4254 36.937L21.4898 37.2387C21.522 37.4452 21.5864 37.6675 21.6347 37.9057C21.8763 38.8267 22.1822 39.6525 22.5526 40.383C25.0806 39.2237 27.9147 37.461 31.0707 35.0949H31.0868C31.586 34.7138 32.1174 34.3168 32.6809 33.888C33.2606 33.4275 33.8403 32.967 34.42 32.5065C37.5277 30.0133 41.3118 26.7896 45.7721 22.8514L45.8043 22.8196C51.4885 17.8015 56.77 13.6568 61.6651 10.3538C64.7568 8.28939 67.8484 6.79666 70.9401 5.90738C71.246 5.8121 71.5359 5.7327 71.8257 5.6533ZM37.5438 17.5951V17.5792C37.7371 15.1972 36.9803 13.498 35.3056 12.4817C34.8065 12.8152 34.3395 13.1487 33.8886 13.4822C33.3572 13.895 32.8098 14.3079 32.2945 14.7684C29.6215 17.0393 27.2706 19.7865 25.2739 23.0102C23.9857 25.0905 23.0034 27.0755 22.3432 28.9652C21.6831 30.8232 21.3288 32.5859 21.2966 34.2533V34.6661C21.4576 34.6026 21.6186 34.5232 21.7636 34.4597C22.1661 34.2691 22.5687 34.0627 22.9712 33.8563C25.0323 32.7605 27.19 31.3155 29.3961 29.521L29.4122 29.5051C31.9885 27.4248 33.9691 25.3763 35.3217 23.3754C36.6582 21.4063 37.3989 19.4848 37.5438 17.5951ZM32.2301 11.5448C31.9563 11.5289 31.6826 11.5289 31.3928 11.5289C28.913 11.5289 26.0146 12.3388 22.6814 13.9903C21.0712 14.7843 19.4931 15.6895 17.9795 16.7217C16.4659 17.7539 14.9845 18.8973 13.5675 20.1518C10.4436 22.899 8.06048 25.4875 6.41804 27.8695V27.8854C4.80781 30.2356 3.90608 32.4112 3.72895 34.3962C3.48742 37.1752 4.13151 39.2396 5.67733 40.5894C7.25536 41.971 9.78343 42.6697 13.2776 42.6697C14.5497 42.6697 15.854 42.5268 17.1905 42.2409C18.3499 41.9869 19.5414 41.6375 20.7491 41.177L20.7008 41.0658C20.5881 40.8594 20.4915 40.6529 20.3949 40.4465L20.3788 40.3988C19.9762 39.5254 19.7025 38.5885 19.5092 37.5881C18.6397 37.8422 17.7863 38.0486 16.9973 38.1756C16.0311 38.3503 15.1294 38.4297 14.276 38.4297C12.5047 38.4297 11.0072 38.0486 9.76733 37.2546H9.75122L9.71902 37.2228C9.6224 37.1593 9.52579 37.0958 9.44528 37.0323C9.34867 36.9688 9.25205 36.8894 9.17154 36.81C8.70457 36.3653 8.46304 35.8572 8.46304 35.2855V35.2696V35.222V35.2061H8.47914C8.47914 35.1267 8.49524 35.0473 8.51134 34.9837L8.52745 34.9679C8.54355 34.9043 8.57575 34.8408 8.62406 34.7932L8.64016 34.7614H8.65627V34.7455C8.75288 34.6503 8.8656 34.5709 8.99441 34.5232C9.20374 34.4597 9.41307 34.4915 9.6224 34.6185L9.63851 34.6344C9.75122 34.7138 9.84784 34.8249 9.92835 34.9679H9.94445C10.025 35.1108 10.0894 35.2061 10.1538 35.3014L10.1699 35.3172C10.2021 35.3649 10.2343 35.3966 10.2504 35.4125L10.2665 35.4284C10.3792 35.5396 10.4919 35.619 10.6046 35.7142C10.7496 35.8095 10.8784 35.8889 11.0394 35.9683C11.8445 36.3812 12.9395 36.5876 14.3243 36.5876C15.1294 36.5876 15.9667 36.4924 16.8201 36.3018C17.6092 36.1271 18.4143 35.873 19.2516 35.5396C19.2516 35.0314 19.2677 34.4438 19.2838 33.8086L19.2999 33.0623V33.0464C19.316 32.4906 19.3482 31.8871 19.3643 31.2678V31.2519V31.1725V31.1567C19.3804 30.8708 19.4287 30.5532 19.4931 30.2197C19.5575 29.8704 19.6381 29.521 19.7347 29.1558C20.2821 27.3137 21.3771 24.9476 23.0517 22.0415C23.3899 21.4381 23.7603 20.8505 24.1628 20.2471C24.5493 19.6595 24.9518 19.0878 25.3705 18.532C27.3028 15.9594 29.5732 13.641 32.2301 11.5448ZM88.9586 23.2325C88.9586 23.8995 88.6849 24.5823 88.1213 25.281L88.1052 25.3128C87.928 25.5351 87.7348 25.7574 87.5255 25.9639C87.0746 26.3926 86.5271 26.8532 85.8508 27.3296C85.4483 27.5995 84.9813 27.8536 84.4499 28.1077L84.4177 28.1236C83.9025 28.3618 83.3228 28.6 82.6948 28.8064C82.0185 29.0446 81.4227 29.2193 80.8913 29.3305C80.3438 29.4416 79.8608 29.5051 79.426 29.5051H79.4099H79.3455C79.1362 29.4893 78.959 29.4734 78.798 29.4416H78.7819L78.7175 29.4257L78.6692 29.4099C78.2022 29.8386 77.7836 30.2515 77.381 30.6485C76.914 31.1249 76.4954 31.5695 76.1089 31.9824C74.1928 34.0945 73.2266 35.6984 73.2266 36.7782C73.2266 36.937 73.2588 37.0482 73.3393 37.1117H73.3554C73.452 37.207 73.6453 37.2387 73.919 37.2387H73.9351C74.4826 37.2387 75.1267 37.0958 75.8674 36.81C75.9962 36.7623 76.1411 36.6988 76.2539 36.6512C76.9301 36.3653 77.6709 35.9683 78.4921 35.4602L78.5243 35.4284C79.587 34.7773 80.682 33.9992 81.8414 33.094C83.0168 32.173 84.2245 31.1408 85.4644 29.9815L85.4805 29.9657C85.5288 29.9339 85.5771 29.8863 85.6093 29.8545C85.8347 29.6798 86.028 29.5845 86.2212 29.5369C86.5271 29.4734 86.7687 29.5528 86.978 29.7751L86.9941 29.791L87.0102 29.8069V29.8227C87.2034 30.0609 87.2517 30.3309 87.139 30.6326C87.0585 30.8391 86.9136 31.0455 86.6882 31.2678L86.656 31.3155C85.561 32.2841 84.4821 33.2052 83.4355 34.0309V34.0468H83.4194C82.3566 34.8885 81.2939 35.6825 80.2311 36.4288C77.4132 38.3662 75.0462 39.2237 73.0978 39.0332C72.0511 38.9379 71.2621 38.5726 70.763 37.9692C70.2477 37.3816 70.0384 36.5559 70.135 35.5237C70.135 35.5078 70.135 35.476 70.135 35.4602C70.2638 34.285 70.6985 33.0781 71.4554 31.8395C72.1961 30.6167 73.2588 29.3622 74.6114 28.0759V28.06L74.6597 28.0283C74.9174 27.7901 75.175 27.5519 75.4326 27.3296C75.7064 27.0755 75.9962 26.8373 76.27 26.615C77.7192 25.424 79.3133 24.3441 81.0362 23.3913C82.2439 22.7085 83.3067 22.2003 84.2567 21.8668C85.2228 21.5175 86.0602 21.3428 86.7687 21.3428C88.234 21.3428 88.9586 21.978 88.9586 23.2325ZM85.4644 29.9815L85.4805 29.9657L85.4644 29.9815ZM86.9458 23.042C86.8492 23.0896 86.7043 23.169 86.4949 23.2802C85.9314 23.566 85.1584 24.0424 84.1923 24.7411C83.2745 25.4081 82.4049 26.0909 81.5676 26.7738C81.1168 27.1549 80.6659 27.536 80.2472 27.9171C81.471 27.6472 82.9202 26.869 84.611 25.5669C85.4322 24.9158 86.0441 24.3441 86.4466 23.8677C86.7365 23.5184 86.8975 23.2484 86.9458 23.042ZM64.0483 42.1774C66.7857 40.4147 70.8757 40.113 75.0462 40.4306C79.0235 40.7323 83.0812 41.6057 86.0602 42.3203C86.4788 41.9392 86.8814 41.574 87.2517 41.2246C87.6704 40.8276 88.0569 40.4465 88.4111 40.0812C90.1663 38.3344 91.0358 37.1752 91.0358 36.6035V36.0954C90.44 36.2542 89.7798 36.3812 89.0552 36.4606H89.0391H89.023C88.862 36.4765 88.7332 36.4765 88.6204 36.4765C88.3145 36.4765 88.0569 36.4288 87.8636 36.3336L87.8314 36.3177C87.5577 36.1748 87.3967 35.9524 87.3645 35.6507V35.619V35.5872V35.5713C87.3645 35.4919 87.3967 35.3014 87.4611 34.9996C87.4611 34.9679 87.4611 34.952 87.4772 34.9202C87.5577 34.6185 87.8153 34.4121 88.2179 34.3009C88.4916 34.2215 88.8781 34.1739 89.3611 34.1739L89.4578 34.158H89.49C89.6027 34.1421 89.7154 34.1262 89.7959 34.1262H89.812C89.9086 34.1103 90.0213 34.1103 90.1502 34.1103C90.6654 34.0945 91.1968 34.1262 91.7443 34.2056C92.8715 33.8721 94.1274 33.2211 95.5444 32.2683C97.0259 31.2837 98.6522 29.9498 100.423 28.2824C101.229 27.536 101.84 26.8055 102.275 26.1227C102.678 25.4716 102.919 24.8523 102.984 24.2647C103.016 23.9789 102.968 23.7724 102.823 23.6454C102.629 23.5025 102.291 23.4231 101.776 23.4231C101.035 23.4231 99.9887 23.8518 98.6683 24.6935V24.7094H98.6522V24.7252C98.5717 24.7729 98.4912 24.8205 98.3946 24.8999C98.2979 24.9634 98.2013 25.0428 98.1047 25.1222C97.5733 25.551 96.9937 26.1703 96.3496 26.9484V26.9643C94.8359 28.7588 93.7571 29.6639 93.113 29.6639C92.952 29.6639 92.807 29.6322 92.6621 29.5528C92.6299 29.5528 92.6138 29.5369 92.5816 29.521L92.5494 29.4893L92.5333 29.4734C92.2274 29.2511 92.0985 28.9176 92.1469 28.5047C92.1791 28.2188 92.3401 27.8695 92.5816 27.4884C92.6782 27.3454 92.7748 27.2025 92.8876 27.0596V27.0437H92.9037C93.0003 26.9167 93.0969 26.7896 93.2096 26.6626V26.6467C93.3223 26.5197 93.4511 26.3926 93.58 26.2497C94.2241 25.5669 95.0292 24.8682 96.0275 24.1377V24.1218H96.0436C97.2191 23.2643 98.314 22.6132 99.3285 22.2003C100.375 21.7557 101.341 21.5492 102.243 21.5651H102.259H102.42H102.436C102.71 21.581 102.984 21.6127 103.225 21.6763C103.483 21.7398 103.724 21.8033 103.934 21.9145C105.045 22.4067 105.608 23.4231 105.641 24.9158C105.657 25.9798 105.431 26.9961 104.98 27.9648C104.53 28.9176 103.837 29.8227 102.919 30.6803C101.438 32.0618 99.8116 33.1893 98.0403 34.0309C96.5267 34.7614 94.9165 35.2855 93.1935 35.6031C93.274 35.746 93.3384 35.9048 93.3867 36.0636C93.5478 36.5241 93.6283 37.0323 93.6283 37.5881C93.6766 38.2709 93.3223 39.1602 92.5494 40.2242C91.9214 41.0976 91.0036 42.1139 89.812 43.3049C92.9842 44.1942 95.786 45.1946 98.153 46.0521C99.6022 46.5762 100.89 47.0367 101.985 47.3702C105.592 46.0521 109.022 44.8294 112.114 43.8289C115.254 42.8126 118.056 42.0027 120.326 41.574L120.358 41.5581H120.406C121.55 41.3358 122.661 41.1611 123.756 41.0182C124.835 40.8594 125.881 40.7482 126.896 40.6847C132.113 40.2877 136.444 40.7482 139.794 41.7169L139.81 41.7328H139.842C140.212 41.8439 140.583 41.9551 140.921 42.0821C141.275 42.1933 141.629 42.3362 141.967 42.4633C143.69 43.162 145.075 44.0195 146.106 44.9405H146.122L146.315 45.147H146.331L146.347 45.1629C146.541 45.3375 146.718 45.5281 146.879 45.7187C147.04 45.9092 147.201 46.1157 147.346 46.3062C148.054 47.3067 148.408 48.3706 148.392 49.4028C148.296 55.0403 142.595 56.8029 135.108 56.6918C122.951 56.4853 105.93 51.2926 101.422 49.911L100.874 49.7522C98.7649 50.5144 96.6555 51.5466 94.5783 52.563C89.5383 55.0244 84.7559 57.3746 80.5371 55.5325C80.4888 55.5167 80.4566 55.5008 80.4244 55.469H80.4083C80.2311 55.342 80.1345 55.1991 80.0862 55.072C80.0057 54.8815 80.0379 54.7068 80.1345 54.548C80.215 54.4209 80.3277 54.3415 80.4727 54.2939H80.4888H80.5049C80.6659 54.2621 80.9235 54.2621 81.1329 54.3257L81.1651 54.3415C84.772 55.4531 88.3306 53.6904 92.7587 51.4831C94.4817 50.6256 96.3335 49.7046 98.3946 48.847L98.2657 48.8153C95.4639 47.9736 91.4061 46.7509 87.4611 45.4963L87.2195 45.7187L86.7365 46.1474L86.6882 46.1792H86.6721C86.189 46.5603 85.6898 46.9255 85.1906 47.2749C84.6915 47.6243 84.1923 47.9578 83.6931 48.2912C81.1007 49.9745 78.476 51.3402 75.8191 52.3724V52.3883H75.803C75.3843 52.5471 74.8368 52.7376 74.2089 52.9282C73.597 53.1346 72.8885 53.3252 72.1156 53.5158C68.1222 54.5162 62.6957 55.1832 60.4897 52.9917C60.0871 52.5947 59.749 52.166 59.5074 51.7213C58.815 50.4827 58.7023 49.1488 59.0727 47.8148C59.4269 46.5444 60.2159 45.274 61.3431 44.1783C62.0999 43.4319 63.0177 42.7491 64.0483 42.1774ZM83.7414 44.3689C81.1007 43.6066 77.7836 42.7967 74.5148 42.4474C70.924 42.0663 67.3976 42.2251 64.9983 43.6543C63.6135 44.4641 62.4381 45.9092 61.8262 47.4178C61.5202 48.196 61.3753 49.0058 61.4558 49.7363C61.5363 50.4033 61.8262 51.0226 62.3897 51.4831C63.0177 52.0072 64 52.3565 65.4009 52.42L65.4653 52.4359H65.4814C66.1416 52.4677 66.8179 52.4518 67.4942 52.3883C68.1866 52.3089 68.8951 52.1977 69.6197 52.0389C73.3715 51.2132 77.5259 49.117 82.099 45.7504L82.1312 45.7187L82.4532 45.4487L82.4855 45.4328L82.7914 45.1629C83.1295 44.8929 83.4355 44.6229 83.7414 44.3689ZM104.594 48.2595C109.779 49.8634 125.269 54.5162 136.026 54.6909C142.032 54.8021 146.524 53.4999 146.637 49.4346C146.46 48.6724 146.154 47.9895 145.703 47.3702C145.236 46.735 144.64 46.1474 143.916 45.6551C140.116 42.9555 133.159 42.0821 126.429 42.6697H126.397H126.364C117.395 43.4796 108.684 46.7191 104.594 48.2595ZM123.369 23.4548C123.369 24.5029 122.935 25.7257 122.049 27.1231C121.195 28.4729 119.923 29.9974 118.217 31.6966V31.7125C115.785 34.1262 113.643 35.9366 111.808 37.1593C109.892 38.4138 108.281 39.0332 106.961 39.0332C105.013 39.0332 104.046 38.0327 104.046 36.0001C104.046 34.7614 104.417 33.4593 105.19 32.0777C105.93 30.7438 107.042 29.3305 108.523 27.8536C110.423 25.9639 112.549 24.3918 114.932 23.1531L114.964 23.1372C116.107 22.5497 117.138 22.105 118.088 21.8033C119.086 21.5016 119.988 21.3428 120.793 21.3428C122.516 21.3428 123.369 22.0415 123.369 23.4548ZM121.292 23.1372C120.471 23.1372 119.231 23.7407 117.605 24.9634C115.914 26.218 113.821 28.1236 111.325 30.6644C109.763 32.2683 108.571 33.6181 107.798 34.6979C107.074 35.7142 106.703 36.4606 106.703 36.937C106.703 37.1752 106.816 37.3022 107.074 37.3022C108.475 37.3022 111.743 34.7297 116.864 29.6163L116.896 29.5845C118.458 28.0124 119.617 26.6785 120.39 25.5828C121.131 24.5506 121.501 23.7566 121.501 23.2325C121.501 23.169 121.421 23.1372 121.292 23.1372ZM128.812 30.2674C128.86 30.3468 128.941 30.4103 129.086 30.4579C129.327 30.5532 129.714 30.585 130.197 30.5532C131.131 30.5056 132.435 30.2356 134.077 29.7433C134.56 29.2352 135.043 28.7588 135.494 28.2982C135.977 27.8218 136.46 27.3613 136.911 26.9326C139.262 24.6935 141.211 23.1214 142.773 22.2321H142.789C142.917 22.1527 143.046 22.0733 143.175 22.0256C143.32 21.9621 143.449 21.8986 143.594 21.8509C144.302 21.6127 145.14 21.5333 146.09 21.6286C146.363 21.6445 146.573 21.8986 146.557 22.1844C146.541 22.3115 146.476 22.4226 146.379 22.5179H146.396C143.996 24.6935 141.871 26.7261 140.019 28.6C138.151 30.4897 136.557 32.2524 135.204 33.8563V33.8721C134.979 34.1421 134.77 34.4121 134.576 34.6503C134.399 34.8726 134.222 35.0949 134.045 35.3331L134.029 35.349C133.337 36.27 132.95 36.8576 132.886 37.1434C133.095 37.207 133.546 37.064 134.206 36.7147C135.011 36.2859 136.09 35.5554 137.41 34.5232C137.523 34.4121 137.99 34.0151 138.811 33.3163L142.805 29.9657C142.821 29.9498 142.853 29.9339 142.869 29.918H142.885C143.095 29.7751 143.304 29.6798 143.497 29.6481C143.787 29.6163 144.045 29.6798 144.238 29.8863C144.27 29.918 144.302 29.9498 144.334 29.9815V29.9974L144.351 30.0133C144.479 30.2039 144.528 30.3944 144.479 30.6009C144.447 30.7914 144.351 30.9502 144.206 31.109C144.157 31.1408 144.109 31.1884 144.045 31.2361C143.401 31.8554 142.628 32.5541 141.726 33.3005C140.824 34.0627 139.81 34.8726 138.683 35.746C135.816 37.9692 133.787 39.0649 132.58 39.0332C132.499 39.049 132.387 39.049 132.29 39.049C131.581 39.049 131.018 38.8585 130.599 38.4932C130.197 38.1121 129.955 37.5722 129.907 36.8735C129.891 36.7782 129.891 36.667 129.891 36.5559C129.891 36.5082 129.891 36.4606 129.907 36.4288C130.036 35.5872 130.374 34.7138 130.905 33.7927L130.921 33.761C131.243 33.2528 131.614 32.7129 132.048 32.173C131.662 32.2524 131.276 32.3318 130.905 32.3794C129.263 32.6494 128.087 32.5859 127.395 32.1889L126.976 32.6176C126.686 32.9035 126.429 33.1893 126.171 33.4434C124.786 34.9361 123.16 36.8258 121.324 39.1126C121.212 39.2396 121.067 39.3031 120.906 39.3031V39.319H120.89C120.873 39.319 120.841 39.319 120.825 39.3031C120.745 39.3031 120.68 39.2872 120.616 39.2714H120.6V39.2555C120.519 39.2396 120.439 39.2078 120.374 39.1602H120.358V39.1443H120.342C120.052 38.9379 119.859 38.5885 119.778 38.0645C119.714 37.7628 119.698 37.4769 119.73 37.2228C119.746 36.937 119.827 36.667 119.939 36.4288L119.972 36.3812C120.648 35.1108 121.582 33.6975 122.79 32.173C123.997 30.6326 125.463 28.9493 127.202 27.1549L127.218 27.139C128.216 26.1227 129.134 25.2334 129.987 24.5029C130.857 23.7407 131.662 23.1214 132.403 22.6291C132.419 22.6291 132.435 22.6132 132.451 22.6132C132.58 22.5179 132.725 22.4385 132.87 22.375C133.015 22.2956 133.176 22.2162 133.353 22.1527C134.222 21.8351 135.269 21.6763 136.525 21.6763C136.815 21.6763 137.056 21.8986 137.056 22.1844C137.056 22.3591 136.96 22.5179 136.815 22.6132H136.831H136.815V22.6291C136.493 22.8514 136.171 23.0737 135.849 23.3278C135.527 23.5819 135.172 23.8518 134.834 24.1536C133.047 25.6622 131.05 27.7107 128.812 30.2674ZM171 22.4544C168.617 24.63 166.379 26.6785 164.43 28.5523C162.482 30.4421 160.791 32.1889 159.455 33.8086H159.438V33.8245C159.213 34.0945 159.004 34.3485 158.81 34.6026L158.778 34.6185C158.601 34.8567 158.424 35.079 158.279 35.2855C157.571 36.2065 157.2 36.81 157.136 37.0799C157.345 37.1434 157.78 37.0005 158.44 36.667C159.245 36.2383 160.324 35.5078 161.628 34.4756C161.822 34.3009 163.625 32.7923 167.039 29.918C167.071 29.8863 167.103 29.8704 167.135 29.8545V29.8386H167.152L167.168 29.8227C167.216 29.791 167.264 29.7592 167.313 29.7433C167.409 29.6957 167.506 29.6481 167.602 29.6322L167.651 29.6163C167.973 29.5369 168.263 29.6163 168.472 29.8227C168.504 29.8545 168.536 29.8863 168.569 29.9339L168.601 29.9815C168.713 30.1562 168.762 30.3468 168.73 30.5532C168.681 30.7279 168.601 30.8867 168.44 31.0455L168.424 31.0614C168.391 31.0931 168.343 31.1249 168.295 31.1725C167.635 31.7919 166.862 32.4906 165.976 33.2369C165.058 33.9992 164.044 34.8249 162.933 35.6984C160.05 37.9216 158.005 39.0173 156.814 38.9855H156.798C156.009 38.9379 155.397 38.7314 154.962 38.3344L154.946 38.3186C154.511 37.9057 154.302 37.3658 154.302 36.667V36.6512C154.302 36.3018 154.35 35.9207 154.463 35.5396L154.254 35.6984H154.237V35.7142H154.221C153.851 36.0001 153.465 36.2859 153.11 36.54C152.724 36.81 152.386 37.0482 152.064 37.2546C150.292 38.4138 148.908 38.9855 147.925 38.9855C146.315 38.9855 145.51 38.2868 145.51 36.8735C145.526 36.143 145.687 35.3808 146.009 34.6026C146.299 33.8404 146.734 33.0464 147.265 32.2524C149.922 28.2824 155.026 24.1536 157.796 22.5973L157.828 22.5656C157.973 22.4861 158.134 22.4226 158.295 22.3432C158.44 22.2797 158.601 22.2162 158.778 22.1527C159.6 21.8827 160.533 21.7874 161.548 21.8668C161.838 21.8827 162.047 22.1368 162.015 22.4226C162.015 22.5656 161.934 22.6926 161.822 22.7879C161.5 23.042 161 23.439 160.372 23.9789C159.777 24.4712 159.036 25.0905 158.215 25.8051C154.173 29.3305 148.489 34.6979 148.457 37.0799C148.489 37.0958 148.537 37.0958 148.602 37.0958C148.698 37.0958 148.827 37.0799 148.972 37.0482L149.004 37.0323C149.906 36.7782 151.307 35.9048 153.223 34.3962C153.4 34.2533 153.593 34.0945 153.787 33.9357C153.964 33.7769 154.173 33.6022 154.398 33.3957C155.51 32.4271 156.862 31.1249 158.44 29.5051H158.456V29.4893L158.472 29.4734C158.955 28.9811 159.455 28.5047 159.922 28.0442C160.405 27.5836 160.872 27.1549 161.355 26.7261C163.738 24.5982 165.847 23.0737 167.393 22.1844C167.828 21.9303 168.327 21.7398 168.891 21.6286C169.438 21.5333 170.034 21.5016 170.694 21.5651C170.984 21.5969 171.193 21.8351 171.177 22.1209C171.161 22.2638 171.097 22.375 171 22.4544ZM158.44 29.5051H158.456H158.44Z" fill="#0E6740"/>
<path d="M136.476 5.19278C136.476 4.36702 136.202 3.73181 135.67 3.28717C135.026 2.74725 133.996 2.46141 132.611 2.46141H128.602V2.79489H129.664V12.053H128.602V12.3864H132.836V12.053H131.629V8.14647H132.547C133.883 8.14647 134.865 7.90827 135.509 7.44775C136.137 6.98722 136.476 6.22498 136.476 5.19278ZM134.253 5.62154C134.253 6.55846 134.06 7.19367 133.706 7.49539C133.448 7.70183 132.965 7.81299 132.273 7.81299H131.629V2.79489H132.402C133.191 2.79489 133.706 2.95369 133.964 3.27129C134.141 3.49361 134.253 3.93826 134.253 4.5417V5.62154ZM145.477 9.09927H145.042C144.929 9.87739 144.623 10.5444 144.124 11.116C143.561 11.7354 142.9 12.053 142.144 12.053H140.92V7.09839H141.757C142.111 7.09839 142.385 7.19367 142.594 7.36835C142.917 7.65419 143.078 8.17823 143.078 8.92459H143.528V4.97046H143.078C143.078 5.4151 142.981 5.8121 142.756 6.16146C142.514 6.55846 142.16 6.7649 141.757 6.7649H140.92V2.79489H142.144C143.045 2.79489 143.738 3.14425 144.205 3.84297C144.527 4.31938 144.736 4.92282 144.817 5.63742H145.267L145.171 2.46141H137.909V2.79489H138.955V12.053H137.909V12.3864H145.364L145.477 9.09927ZM154.51 8.87695H154.059C153.914 9.97267 153.56 10.8461 152.98 11.4495C152.514 11.9259 151.998 12.1641 151.435 12.1641C150.839 12.1641 150.388 11.8465 150.05 11.2113C149.728 10.5761 149.567 9.60743 149.567 8.30527V6.24086C149.567 5.28806 149.631 4.57346 149.76 4.11294C150.034 3.16013 150.613 2.68373 151.451 2.68373C152.03 2.68373 152.562 2.93781 153.013 3.47773C153.48 4.01766 153.786 4.74814 153.947 5.6533H154.317V2.46141H153.834C153.802 2.57257 153.737 2.65197 153.657 2.69961C153.576 2.74725 153.48 2.76313 153.399 2.76313C153.029 2.76313 152.658 2.66785 152.288 2.49317C152.095 2.39789 151.789 2.35025 151.419 2.35025C150.259 2.35025 149.261 2.89017 148.456 3.9859C147.715 4.97046 147.345 6.09794 147.345 7.32071C147.345 8.63875 147.715 9.79799 148.44 10.8302C149.229 11.9418 150.259 12.4976 151.531 12.4976C151.757 12.4976 151.95 12.4817 152.095 12.45C152.24 12.4023 152.385 12.3547 152.546 12.2912C152.707 12.2276 152.852 12.1482 153.013 12.1006C153.158 12.0371 153.286 12.0053 153.399 12.0053C153.528 12.0053 153.625 12.0212 153.705 12.0688C153.802 12.1165 153.866 12.2276 153.947 12.3864H154.397L154.51 8.87695ZM163.753 5.66918L163.672 2.46141H155.879L155.798 5.66918H156.265C156.41 4.7799 156.668 4.0653 157.022 3.55713C157.393 3.04897 157.859 2.79489 158.439 2.79489H158.793V12.053H157.715V12.3864H161.837V12.053H160.758V2.79489H161.096C161.756 2.79489 162.288 3.16013 162.706 3.87474C162.98 4.36702 163.173 4.97046 163.286 5.66918H163.753ZM173.028 7.43187C173.028 5.95502 172.593 4.71638 171.691 3.71593C170.854 2.79489 169.904 2.35025 168.825 2.35025C167.779 2.35025 166.845 2.79489 166.007 3.70005C165.122 4.7005 164.671 5.93914 164.671 7.43187C164.671 8.94047 165.106 10.1791 165.991 11.1637C166.812 12.053 167.746 12.4976 168.825 12.4976C169.968 12.4976 170.951 12.0212 171.788 11.0366C172.625 10.0521 173.028 8.86107 173.028 7.43187ZM170.822 9.06751C170.822 9.95679 170.693 10.6714 170.452 11.1796C170.129 11.8306 169.598 12.1641 168.825 12.1641C168.245 12.1641 167.795 11.9577 167.473 11.513C167.086 11.0049 166.893 10.195 166.893 9.06751V5.82798C166.893 4.81166 167.054 4.03354 167.392 3.49361C167.73 2.95369 168.213 2.68373 168.825 2.68373C169.518 2.68373 170.017 2.98545 170.355 3.60477C170.661 4.1447 170.822 4.89106 170.822 5.82798V9.06751ZM181.755 5.19278C181.755 4.36702 181.482 3.73181 180.95 3.28717C180.306 2.74725 179.292 2.46141 177.891 2.46141H173.881V2.79489H174.944V12.053H173.881V12.3864H178.116V12.053H176.909V8.14647H177.826C179.163 8.14647 180.145 7.90827 180.789 7.44775C181.433 6.98722 181.755 6.22498 181.755 5.19278ZM179.533 5.62154C179.533 6.57434 179.34 7.19367 178.986 7.49539C178.728 7.70183 178.245 7.81299 177.553 7.81299H176.909V2.79489H177.681C178.47 2.79489 178.986 2.95369 179.243 3.27129C179.437 3.49361 179.533 3.92238 179.533 4.5417V5.62154ZM189.484 12.3864V12.053H188.728L185.781 2.35025H184.944L182.496 10.3538C182.319 10.9414 182.206 11.259 182.206 11.2748C181.981 11.783 181.61 12.053 181.095 12.053V12.3864H183.977V12.053C183.591 12.0053 183.333 11.9577 183.237 11.9259C183.044 11.8624 182.899 11.7195 182.834 11.4972C182.818 11.4495 182.802 11.3542 182.802 11.2431C182.802 11.1796 182.802 11.116 182.802 11.0684C182.802 10.989 182.834 10.9255 182.834 10.8937L182.995 10.1474L183.205 9.49627H185.861L186.667 12.053H185.636V12.3864H189.484ZM185.797 9.16279H183.269L184.541 5.03398L185.797 9.16279ZM199.597 12.3864V12.053H198.534V2.79489H199.597V2.46141H195.684V2.79489H196.569V6.97134H193.607V2.79489H194.492V2.46141H190.596V2.79489H191.642V12.053H190.596V12.3864H194.492V12.053H193.607V7.30483H196.569V12.053H195.684V12.3864H199.597Z" fill="#FEFEFE"/>
<path fill-rule="evenodd" clip-rule="evenodd" d="M148.131 3.75122C148.999 2.57164 150.11 1.95325 151.419 1.95325C151.806 1.95325 152.187 2.00053 152.465 2.13631C152.791 2.28993 153.101 2.36613 153.399 2.36613C153.414 2.36613 153.428 2.36462 153.439 2.36211C153.441 2.36166 153.443 2.36122 153.444 2.36081C153.445 2.35872 153.446 2.35593 153.447 2.35234C153.496 2.18191 153.654 2.06441 153.834 2.06441H154.317C154.54 2.06441 154.72 2.24215 154.72 2.46141V5.6533C154.72 5.87256 154.54 6.0503 154.317 6.0503H153.947C153.751 6.0503 153.584 5.91179 153.55 5.7219C153.397 4.86234 153.113 4.20529 152.707 3.73536C152.705 3.73363 152.704 3.73187 152.702 3.73011C152.317 3.26833 151.894 3.08073 151.451 3.08073C151.115 3.08073 150.857 3.17431 150.655 3.34336C150.449 3.5165 150.27 3.79604 150.148 4.21985C150.034 4.62665 149.97 5.29644 149.97 6.24086V8.30527C149.97 9.58635 150.13 10.4787 150.408 11.0303C150.556 11.3074 150.715 11.4888 150.877 11.601C151.035 11.7102 151.215 11.7671 151.435 11.7671C151.868 11.7671 152.283 11.589 152.69 11.175C153.191 10.6527 153.522 9.86995 153.66 8.8256C153.687 8.62787 153.857 8.47995 154.06 8.47995H154.51C154.619 8.47995 154.724 8.52352 154.8 8.60071C154.875 8.67789 154.916 8.7821 154.913 8.88952L154.8 12.399C154.793 12.6133 154.615 12.7834 154.398 12.7834H153.947C153.794 12.7834 153.655 12.6985 153.587 12.564C153.546 12.4843 153.522 12.4411 153.503 12.4144C153.502 12.413 153.501 12.4117 153.5 12.4105C153.493 12.4083 153.465 12.4023 153.399 12.4023C153.361 12.4023 153.289 12.4139 153.176 12.4634C153.161 12.4702 153.145 12.476 153.129 12.4809C153.074 12.4971 153.017 12.5202 152.944 12.5523C152.928 12.5591 152.912 12.5667 152.894 12.5747C152.835 12.601 152.765 12.6324 152.695 12.6598C152.523 12.7276 152.369 12.7784 152.226 12.8254L152.222 12.8266C152.209 12.8309 152.196 12.8345 152.182 12.8375C151.997 12.8781 151.772 12.8946 151.531 12.8946C150.116 12.8946 148.967 12.2654 148.11 11.0579C148.11 11.0573 148.109 11.0567 148.109 11.0562C147.337 9.95639 146.942 8.71805 146.942 7.3207C146.942 6.01506 147.339 4.80499 148.131 3.75122ZM149.651 3.32734C149.343 3.5541 149.053 3.84982 148.782 4.21884C148.781 4.22005 148.78 4.22125 148.779 4.22245C148.091 5.13736 147.747 6.18159 147.747 7.3207C147.747 8.55905 148.093 9.6389 148.77 10.6033C149.088 11.0508 149.443 11.3947 149.837 11.6394C149.787 11.562 149.739 11.4807 149.694 11.3959C149.692 11.3935 149.691 11.3912 149.69 11.3889C149.325 10.6698 149.164 9.62585 149.164 8.30527V6.24086C149.164 5.28072 149.228 4.52173 149.372 4.00736C149.372 4.00648 149.373 4.00559 149.373 4.00471C149.444 3.75704 149.536 3.52995 149.651 3.32734ZM153.378 11.6086C153.385 11.6084 153.392 11.6083 153.399 11.6083C153.552 11.6083 153.73 11.6251 153.9 11.7211C153.943 11.7435 153.98 11.7694 154.014 11.7969L154.056 10.4986C153.882 10.9172 153.657 11.2901 153.378 11.6086ZM153.265 3.15662C153.284 3.17824 153.303 3.20026 153.321 3.22267C153.558 3.4971 153.755 3.81073 153.915 4.15927V3.00743C153.898 3.01891 153.881 3.02978 153.864 3.04004C153.701 3.13678 153.525 3.16013 153.399 3.16013C153.354 3.16013 153.309 3.15895 153.265 3.15662ZM165.71 3.43249C166.609 2.46086 167.645 1.95325 168.825 1.95325C170.035 1.95325 171.089 2.45853 171.991 3.45092L171.992 3.45218C172.969 4.53527 173.431 5.87203 173.431 7.43186C173.431 8.94087 173.003 10.226 172.097 11.2918C171.193 12.3545 170.102 12.8946 168.825 12.8946C167.616 12.8946 166.579 12.3894 165.694 11.431C165.693 11.4297 165.691 11.4284 165.69 11.4271C164.729 10.3586 164.268 9.0213 164.268 7.43186C164.268 5.85358 164.748 4.51923 165.704 3.43896C165.706 3.43678 165.708 3.43463 165.71 3.43249ZM166.308 3.96441C165.495 4.88446 165.074 6.02636 165.074 7.43186C165.074 8.8586 165.482 9.99795 166.291 10.8983C166.519 11.1454 166.754 11.3528 166.997 11.522C166.642 10.9196 166.491 10.0865 166.491 9.06751V5.82798C166.491 4.80781 166.646 3.96009 167.02 3.33307C166.777 3.50392 166.54 3.71369 166.308 3.96441ZM170.659 3.32779C170.676 3.356 170.692 3.3847 170.708 3.41386C171.059 4.0339 171.225 4.85413 171.225 5.82798V9.06751C171.225 9.98704 171.093 10.7666 170.816 11.3481C170.815 11.3499 170.814 11.3518 170.814 11.3536C170.794 11.393 170.774 11.4317 170.753 11.4696C171.005 11.2837 171.247 11.0551 171.48 10.7815C172.248 9.87815 172.626 8.78127 172.626 7.43186C172.626 6.03829 172.218 4.89793 171.391 3.98024C171.154 3.71975 170.911 3.50305 170.659 3.32779ZM184.558 2.23562C184.61 2.06797 184.766 1.95325 184.944 1.95325H185.781C185.959 1.95325 186.116 2.06833 186.167 2.23634L189.028 11.656H189.485C189.707 11.656 189.887 11.8337 189.887 12.053V12.3864C189.887 12.6057 189.707 12.7834 189.485 12.7834H185.636C185.414 12.7834 185.234 12.6057 185.234 12.3864V12.053C185.234 11.8337 185.414 11.656 185.636 11.656H186.12L185.565 9.89327H183.499L183.385 10.2489L183.233 10.9548C183.232 10.9629 183.231 10.97 183.23 10.9759C183.226 10.9947 183.222 11.0109 183.219 11.0215C183.217 11.0319 183.214 11.0421 183.212 11.0484L183.212 11.0487L183.211 11.0509C183.21 11.0571 183.208 11.0612 183.207 11.0655C183.206 11.0702 183.205 11.0734 183.205 11.0755V11.2431C183.205 11.2803 183.208 11.314 183.211 11.3403C183.214 11.3632 183.217 11.3741 183.217 11.3741C183.217 11.3741 183.217 11.374 183.217 11.3739C183.219 11.3786 183.22 11.3833 183.221 11.3881C183.251 11.4884 183.301 11.5285 183.364 11.5493C183.417 11.5667 183.636 11.6107 184.028 11.659C184.229 11.6839 184.38 11.8527 184.38 12.053V12.3864C184.38 12.6057 184.2 12.7834 183.978 12.7834H181.095C180.873 12.7834 180.693 12.6057 180.693 12.3864V12.053C180.693 11.8337 180.873 11.656 181.095 11.656C181.278 11.656 181.415 11.6096 181.525 11.5319C181.633 11.4554 181.737 11.3323 181.826 11.1421C181.826 11.1419 181.826 11.1417 181.826 11.1415C181.83 11.1261 181.837 11.1068 181.843 11.0861C181.85 11.067 181.858 11.0421 181.867 11.0133C181.877 10.9819 181.889 10.9459 181.902 10.9075C181.951 10.7545 182.023 10.531 182.11 10.2407L182.111 10.2392L184.558 2.23562ZM186.187 9.26234C186.213 9.29693 186.233 9.33599 186.246 9.37853L187.051 11.9352C187.057 11.9531 187.061 11.9712 187.064 11.9894H188.288L185.481 2.74725H185.243L184.66 4.65449C184.786 4.69272 184.888 4.79064 184.927 4.9199L186.183 9.04871C186.204 9.11915 186.205 9.193 186.187 9.26234ZM182.463 11.6547C182.391 11.7774 182.307 11.8899 182.212 11.9894H182.647C182.568 11.8937 182.505 11.7814 182.463 11.6547ZM185.256 8.76579L184.539 6.40751L183.812 8.76579H185.256ZM128.199 2.46141C128.199 2.24215 128.379 2.06441 128.602 2.06441H132.611C134.039 2.06441 135.182 2.35679 135.931 2.98468C136.569 3.51815 136.878 4.27301 136.878 5.19278C136.878 6.31106 136.508 7.21012 135.75 7.76632C135.749 7.76728 135.747 7.76822 135.746 7.76916C135.002 8.30104 133.919 8.54347 132.547 8.54347H132.032V11.656H132.837C133.059 11.656 133.239 11.8337 133.239 12.053V12.3864C133.239 12.6057 133.059 12.7834 132.837 12.7834H128.602C128.379 12.7834 128.199 12.6057 128.199 12.3864V12.053C128.199 11.8337 128.379 11.656 128.602 11.656H129.262V3.19189H128.602C128.379 3.19189 128.199 3.01415 128.199 2.79489V2.46141ZM130.067 2.85841V11.9894H131.226V8.14647C131.226 8.08691 131.24 8.03042 131.264 7.97973C131.24 7.92903 131.226 7.87254 131.226 7.81299V2.85841H130.067ZM132.032 3.19189V7.41598H132.273C132.944 7.41598 133.302 7.30383 133.448 7.19086C133.546 7.10552 133.648 6.94987 133.726 6.68569C133.805 6.41906 133.851 6.06587 133.851 5.62154V4.5417C133.851 4.26283 133.825 4.03179 133.783 3.8531C133.74 3.67087 133.687 3.56648 133.648 3.51785C133.512 3.35193 133.167 3.19189 132.402 3.19189H132.032ZM134.165 7.59053C134.315 7.39886 134.423 7.1653 134.499 6.90764C134.606 6.547 134.656 6.11413 134.656 5.62154V4.5417C134.656 4.21712 134.626 3.92412 134.567 3.67404C134.513 3.44083 134.428 3.22217 134.3 3.05135C134.77 3.17777 135.138 3.36177 135.41 3.58966L135.41 3.58989C135.835 3.94569 136.073 4.46115 136.073 5.19278C136.073 6.13766 135.768 6.7627 135.271 7.12774C134.994 7.32575 134.629 7.48348 134.165 7.59053ZM137.506 2.46141C137.506 2.24215 137.687 2.06441 137.909 2.06441H145.171C145.389 2.06441 145.567 2.23498 145.573 2.4495L145.67 5.62551C145.673 5.73282 145.632 5.83686 145.557 5.9139C145.481 5.99094 145.377 6.03442 145.268 6.03442H144.817C144.612 6.03442 144.439 5.88231 144.417 5.68126C144.342 5.01634 144.149 4.4766 143.87 4.06319L143.869 4.06145C143.483 3.48343 142.922 3.19189 142.144 3.19189H141.323V6.3679H141.757C142 6.3679 142.232 6.25094 142.411 5.9572C142.412 5.95422 142.414 5.95126 142.416 5.94832C142.592 5.67547 142.675 5.35637 142.675 4.97046C142.675 4.7512 142.855 4.57346 143.078 4.57346H143.529C143.751 4.57346 143.931 4.7512 143.931 4.97046V8.92459C143.931 9.14385 143.751 9.32159 143.529 9.32159H143.078C142.855 9.32159 142.675 9.14385 142.675 8.92459C142.675 8.21567 142.519 7.83899 142.33 7.66743C142.206 7.56581 142.03 7.49538 141.757 7.49538H141.323V11.656H142.144C142.769 11.656 143.324 11.4002 143.822 10.8539C144.268 10.3419 144.542 9.74686 144.644 9.04313C144.672 8.84754 144.842 8.70227 145.042 8.70227H145.477C145.586 8.70227 145.691 8.74596 145.766 8.82333C145.842 8.90071 145.883 9.00513 145.879 9.11269L145.767 12.3999C145.759 12.6138 145.581 12.7834 145.364 12.7834H137.909C137.687 12.7834 137.506 12.6057 137.506 12.3864V12.053C137.506 11.8337 137.687 11.656 137.909 11.656H138.553V3.19189H137.909C137.687 3.19189 137.506 3.01415 137.506 2.79489V2.46141ZM139.358 2.85841V11.9894H140.518V7.09838C140.518 7.03883 140.531 6.98234 140.555 6.93164C140.531 6.88095 140.518 6.82445 140.518 6.7649V2.85841H139.358ZM143.786 2.85841H144.78L144.819 4.11602C144.737 3.94195 144.644 3.77758 144.54 3.62361C144.329 3.30709 144.076 3.05212 143.786 2.85841ZM142.608 6.8984C142.695 6.94541 142.778 7.00098 142.855 7.06528C142.858 7.06789 142.861 7.07055 142.864 7.07326C142.965 7.16325 143.052 7.26674 143.126 7.38189V6.32565C143.117 6.34057 143.108 6.35544 143.098 6.37024C142.965 6.58766 142.799 6.76623 142.608 6.8984ZM143.714 11.9894H144.975L145.026 10.4916C144.868 10.8067 144.669 11.101 144.429 11.3751C144.428 11.3771 144.426 11.3792 144.424 11.3812C144.204 11.6232 143.967 11.8269 143.714 11.9894ZM155.477 2.45158C155.482 2.23622 155.661 2.06441 155.879 2.06441H163.673C163.891 2.06441 164.07 2.23622 164.075 2.45158L164.156 5.65936C164.158 5.76632 164.117 5.86982 164.041 5.94641C163.966 6.02299 163.862 6.06618 163.753 6.06618H163.286C163.088 6.06618 162.92 5.92431 162.889 5.73155C162.782 5.06747 162.601 4.51151 162.356 4.06951C162.001 3.46629 161.606 3.21519 161.161 3.19345V11.656H161.837C162.059 11.656 162.24 11.8337 162.24 12.053V12.3864C162.24 12.6057 162.059 12.7834 161.837 12.7834H157.715C157.492 12.7834 157.312 12.6057 157.312 12.3864V12.053C157.312 11.8337 157.492 11.656 157.715 11.656H158.391V3.19264C157.98 3.20558 157.644 3.38578 157.352 3.78548C157.044 4.22855 156.802 4.87948 156.663 5.73217C156.632 5.92464 156.463 6.06618 156.266 6.06618H155.799C155.69 6.06618 155.586 6.02299 155.51 5.94641C155.435 5.86982 155.393 5.76632 155.396 5.65936L155.477 2.45158ZM159.196 2.85841V11.9894H160.356V2.85841H159.196ZM162.379 2.85841H163.28L163.314 4.22303C163.239 4.0333 163.154 3.85331 163.059 3.68384C163.058 3.68125 163.057 3.67868 163.055 3.67612C162.861 3.34569 162.637 3.06894 162.379 2.85841ZM157.131 2.85841H156.272L156.238 4.19829C156.365 3.87367 156.516 3.58337 156.691 3.33222C156.692 3.32994 156.694 3.32768 156.696 3.32543C156.827 3.1446 156.972 2.98838 157.131 2.85841ZM173.479 2.46141C173.479 2.24215 173.659 2.06441 173.882 2.06441H177.891C179.335 2.06441 180.462 2.35708 181.211 2.98468C181.849 3.51815 182.158 4.27301 182.158 5.19278C182.158 6.30561 181.807 7.21028 181.026 7.76916C180.282 8.30104 179.199 8.54347 177.827 8.54347H177.311V11.656H178.116C178.339 11.656 178.519 11.8337 178.519 12.053V12.3864C178.519 12.6057 178.339 12.7834 178.116 12.7834H173.882C173.659 12.7834 173.479 12.6057 173.479 12.3864V12.053C173.479 11.8337 173.659 11.656 173.882 11.656H174.542V3.19189H173.882C173.659 3.19189 173.479 3.01415 173.479 2.79489V2.46141ZM175.347 2.85841V11.9894H176.506V8.14647C176.506 8.08691 176.52 8.03042 176.543 7.97973C176.52 7.92903 176.506 7.87254 176.506 7.81299V2.85841H175.347ZM177.311 3.19189V7.41598H177.553C178.224 7.41598 178.582 7.30382 178.728 7.19084C178.937 7.00779 179.131 6.54885 179.131 5.62154V4.5417C179.131 4.24997 179.108 4.01914 179.068 3.84451C179.028 3.66627 178.976 3.57298 178.938 3.52966C178.935 3.52625 178.932 3.5228 178.929 3.5193C178.794 3.35286 178.449 3.19189 177.682 3.19189H177.311ZM179.446 7.5903C179.797 7.14304 179.936 6.45235 179.936 5.62154V4.5417C179.936 4.2141 179.911 3.92088 179.854 3.67073C179.801 3.44074 179.717 3.22321 179.58 3.04973C180.051 3.17616 180.417 3.36071 180.69 3.58966L180.69 3.58989C181.115 3.94569 181.353 4.46115 181.353 5.19278C181.353 6.14435 181.06 6.76417 180.553 7.12633C180.275 7.32486 179.91 7.48301 179.446 7.5903ZM190.193 2.46141C190.193 2.24215 190.373 2.06441 190.596 2.06441H194.493C194.715 2.06441 194.895 2.24215 194.895 2.46141V2.79489C194.895 3.01415 194.715 3.19189 194.493 3.19189H194.009V6.57434H196.167V3.19189H195.684C195.462 3.19189 195.282 3.01415 195.282 2.79489V2.46141C195.282 2.24215 195.462 2.06441 195.684 2.06441H199.597C199.819 2.06441 200 2.24215 200 2.46141V2.79489C200 3.01415 199.819 3.19189 199.597 3.19189H198.937V11.656H199.597C199.819 11.656 200 11.8337 200 12.053V12.3864C200 12.6057 199.819 12.7834 199.597 12.7834H195.684C195.462 12.7834 195.282 12.6057 195.282 12.3864V12.053C195.282 11.8337 195.462 11.656 195.684 11.656H196.167V7.70183H194.009V11.656H194.493C194.715 11.656 194.895 11.8337 194.895 12.053V12.3864C194.895 12.6057 194.715 12.7834 194.493 12.7834H190.596C190.373 12.7834 190.193 12.6057 190.193 12.3864V12.053C190.193 11.8337 190.373 11.656 190.596 11.656H191.24V3.19189H190.596C190.373 3.19189 190.193 3.01415 190.193 2.79489V2.46141ZM192.045 2.85841V11.9894H193.204V7.30482C193.204 7.24527 193.218 7.18878 193.241 7.13808C193.218 7.08739 193.204 7.0309 193.204 6.97134V2.85841H192.045ZM196.935 7.13808C196.959 7.18878 196.972 7.24527 196.972 7.30482V11.9894H198.132V2.85841H196.972V6.97134C196.972 7.0309 196.959 7.08739 196.935 7.13808ZM168.825 3.08073C168.359 3.08073 168.003 3.274 167.735 3.70223C167.454 4.1506 167.296 4.84181 167.296 5.82798V9.06751C167.296 10.1673 167.487 10.8707 167.795 11.2748C167.797 11.2773 167.799 11.2798 167.8 11.2823C168.038 11.6103 168.36 11.7671 168.825 11.7671C169.152 11.7671 169.401 11.6972 169.596 11.5785C169.789 11.4604 169.955 11.2776 170.089 11.0082C170.294 10.5734 170.42 9.9247 170.42 9.06751V5.82798C170.42 4.92943 170.264 4.25791 170.004 3.79844C170.003 3.79663 170.002 3.79481 170.001 3.79299C169.858 3.53216 169.694 3.35989 169.513 3.25076C169.333 3.14211 169.11 3.08073 168.825 3.08073Z" fill="#FEFEFE"/>
<path d="M135.704 4.76401C135.704 3.93825 135.43 3.28716 134.898 2.82664C134.254 2.27084 133.208 1.985 131.823 1.985H127.781V2.33436H128.86V11.7512H127.781V12.0847H132.048V11.7512H130.841V7.76534H131.759C133.095 7.76534 134.093 7.52714 134.737 7.06662C135.365 6.59022 135.704 5.82797 135.704 4.76401ZM133.465 5.19277C133.465 6.16145 133.272 6.81254 132.918 7.11426C132.66 7.3207 132.177 7.43186 131.469 7.43186H130.841V2.33436H131.598C132.403 2.33436 132.918 2.49316 133.176 2.81076C133.369 3.04896 133.465 3.47773 133.465 4.09705V5.19277ZM144.753 8.73402H144.318C144.206 9.52802 143.884 10.2109 143.384 10.7825C142.837 11.4178 142.161 11.7512 141.388 11.7512H140.164V6.70138H141.017C141.372 6.70138 141.645 6.79666 141.855 6.98722C142.177 7.27306 142.354 7.81298 142.354 8.57522H142.789V4.54169H142.354C142.354 4.98633 142.241 5.39921 142.016 5.74857C141.758 6.16145 141.42 6.36789 141.017 6.36789H140.164V2.33436H141.388C142.306 2.33436 142.998 2.68372 143.481 3.39833C143.803 3.87473 144.012 4.49405 144.077 5.22453H144.544L144.447 1.985H137.137V2.33436H138.199V11.7512H137.137V12.0847H144.624L144.753 8.73402ZM153.835 8.5117H153.368C153.239 9.63918 152.885 10.5126 152.289 11.1319C151.822 11.6242 151.307 11.8624 150.743 11.8624C150.147 11.8624 149.68 11.5448 149.358 10.8937C149.02 10.2426 148.859 9.25806 148.859 7.94002V5.82797C148.859 4.85929 148.924 4.14469 149.052 3.66829C149.342 2.6996 149.906 2.20732 150.759 2.20732C151.339 2.20732 151.87 2.47728 152.337 3.0172C152.788 3.57301 153.11 4.30349 153.271 5.24041H153.625V1.985H153.159C153.11 2.11204 153.062 2.19144 152.965 2.2232C152.885 2.27084 152.804 2.3026 152.708 2.3026C152.337 2.3026 151.967 2.20732 151.597 2.01676C151.387 1.92148 151.097 1.87384 150.727 1.87384C149.552 1.87384 148.553 2.42964 147.748 3.52537C147.007 4.54169 146.621 5.68505 146.621 6.93958C146.621 8.2735 146.991 9.4645 147.732 10.4967C148.521 11.6401 149.568 12.2118 150.84 12.2118C151.065 12.2118 151.258 12.18 151.403 12.1482C151.548 12.1006 151.693 12.053 151.854 11.9894C152.015 11.91 152.176 11.8465 152.321 11.783C152.482 11.7354 152.611 11.7036 152.708 11.7036C152.836 11.7036 152.933 11.7195 153.03 11.7671C153.11 11.8148 153.191 11.9259 153.271 12.0847H153.722L153.835 8.5117ZM163.126 5.25629L163.029 1.985H155.204L155.123 5.25629H155.59C155.735 4.35113 155.993 3.62065 156.363 3.11248C156.733 2.58844 157.2 2.33436 157.78 2.33436H158.134V11.7512H157.055V12.0847H161.194V11.7512H160.115V2.33436H160.453C161.113 2.33436 161.661 2.6996 162.063 3.43009C162.353 3.92237 162.546 4.54169 162.643 5.25629H163.126ZM172.449 7.05074C172.449 5.54213 171.998 4.27173 171.097 3.27128C170.259 2.33436 169.293 1.87384 168.23 1.87384C167.168 1.87384 166.218 2.33436 165.396 3.2554C164.495 4.25585 164.044 5.52625 164.044 7.05074C164.044 8.57522 164.478 9.84563 165.38 10.8302C166.185 11.7512 167.135 12.2118 168.23 12.2118C169.374 12.2118 170.356 11.7036 171.193 10.719C172.03 9.71859 172.449 8.49582 172.449 7.05074ZM170.211 8.70226C170.211 9.6233 170.098 10.3379 169.857 10.8461C169.535 11.5289 168.987 11.8624 168.23 11.8624C167.635 11.8624 167.184 11.6401 166.862 11.2113C166.459 10.6873 166.266 9.84563 166.266 8.70226V5.41509C166.266 4.36701 166.443 3.57301 166.781 3.03308C167.119 2.47728 167.602 2.20732 168.23 2.20732C168.907 2.20732 169.422 2.52492 169.76 3.14424C170.066 3.70005 170.211 4.46229 170.211 5.41509V8.70226ZM181.209 4.76401C181.209 3.93825 180.935 3.28716 180.404 2.82664C179.76 2.27084 178.729 1.985 177.328 1.985H173.303V2.33436H174.381V11.7512H173.303V12.0847H177.554V11.7512H176.346V7.76534H177.264C178.6 7.76534 179.599 7.52714 180.243 7.06662C180.887 6.59022 181.209 5.82797 181.209 4.76401ZM178.987 5.19277C178.987 6.16145 178.793 6.81254 178.439 7.11426C178.182 7.3207 177.682 7.43186 176.99 7.43186H176.346V2.33436H177.119C177.908 2.33436 178.439 2.49316 178.681 2.81076C178.874 3.04896 178.987 3.47773 178.987 4.09705V5.19277ZM188.986 12.0847V11.7512H188.229L185.267 1.87384H184.413L181.949 10.0203C181.772 10.6079 181.66 10.9413 181.66 10.9572C181.45 11.4813 181.064 11.7512 180.549 11.7512V12.0847H183.447V11.7512C183.061 11.7036 182.803 11.656 182.706 11.6242C182.513 11.5607 182.368 11.4019 182.304 11.1954C182.288 11.1319 182.255 11.0366 182.255 10.9255C182.255 10.8619 182.255 10.7984 182.255 10.7508C182.272 10.6714 182.288 10.6079 182.304 10.5761L182.465 9.79799L182.658 9.1469H185.331L186.152 11.7512H185.122V12.0847H188.986ZM185.283 8.79754H182.738L184.011 4.60521L185.283 8.79754ZM199.147 12.0847V11.7512H198.084V2.33436H199.147V1.985H195.218V2.33436H196.103V6.59022H193.125V2.33436H194.026V1.985H190.097V2.33436H191.16V11.7512H190.097V12.0847H194.026V11.7512H193.125V6.9237H196.103V11.7512H195.218V12.0847H199.147Z" fill="#E31E24"/>
</svg>
